<svg xmlns="http://www.w3.org/2000/svg" viewBox="0 0 800 600" width="800" height="600">
  <defs>
    <filter id="mshad" x="-40%" y="-40%" width="180%" height="180%">
      <feDropShadow dx="1.5" dy="2" stdDeviation="2.5" flood-color="#00000033"/>
    </filter>
    <style>text { font-family: Archivo, sans-serif; }</style>
  </defs>

  <!-- background -->
  <rect width="800" height="600" fill="#FAF6EC"/>

  <!-- lake ontario -->
  <!-- lake: none in view -->

  <!-- ESA (environmentally sensitive areas) -->
  <path fill="#147D64" fill-opacity="0.85" stroke="#0C6B58" stroke-width="1" stroke-linejoin="round" stroke-linecap="round" d="M212.8,-100.02L214.12,-98.86L220.56,-97.59L231.63,-100.02L358.18,-100.02L363.65,-93.78L370.55,-88.69L376.53,-81.05L390.34,-71.51L403.22,-68.96L423.93,-69.6L436.35,-67.06L444.63,-57.51L442.33,-45.43L443.71,-33.34L441.41,-24.43L434.97,-16.8L438.65,-10.44L449.69,-7.89L465.33,-8.53L475,-14.89L489.72,-31.43L496.62,-35.25L513.18,-36.52L544.47,-33.97L554.59,-30.16L558.73,-21.25L562.88,-20.62L582.2,-22.52L590.02,-9.8L606.58,-16.8L619.47,-18.07L628.21,-16.16L646.15,-9.8L658.12,-14.25L656.28,-19.98L657.66,-30.79L652.13,-39.06L640.17,-41.61L627.29,-46.7L627.29,-49.24L619.01,-53.7L615.79,-58.79L613.49,-68.33L613.03,-85.5L615.33,-91.23L631.41,-100.02Z"/>
  <path fill="#147D64" fill-opacity="0.85" stroke="#0C6B58" stroke-width="1" stroke-linejoin="round" stroke-linecap="round" d="M630.97,242.11L632.35,236.39L636.49,230.66L658.12,212.22L672.84,202.67L669.16,196.31L654.9,200.76L645.23,205.22L616.25,214.76L610.27,220.48L609.35,235.75L603.82,244.02L584.96,246.57L582.2,251.66L582.2,262.47L588.64,277.1L559.19,279.01L526.53,277.74L526.53,256.74L525.15,249.11L520.09,239.57L513.64,238.3L486.96,238.93L453.37,254.2L436.35,256.11L431.75,249.75L425.31,244.66L407.82,240.84L400,241.48L385.28,247.2L366.87,250.38L355.83,245.29L349.39,237.66L338.81,230.66L333.29,221.76L325,217.3L319.02,216.03L304.76,218.58L296.94,223.67L293.72,228.12L278.53,227.48L257.83,223.67L251.39,216.03L240.81,212.22L230.68,212.85L204.46,219.85L187.43,228.75L179.61,237.66L186.97,266.92L192.49,296.82L233.9,295.55L259.21,291.09L266.57,287.91L279.45,287.91L280.37,290.46L292.8,290.46L311.66,294.91L346.17,296.82L388.5,302.54L393.1,301.91L400.92,304.45L433.13,309.54L446.93,312.72L467.17,315.9L478.22,317.18L510.42,324.81L538.03,329.26L553.21,329.26L564.26,331.17L575.3,328.63L595.54,310.18L612.11,297.46L606.58,283.46L609.35,275.83L622.69,266.92L633.27,256.74L634.19,254.2L630.97,242.11Z"/>
  <path fill="#147D64" fill-opacity="0.85" stroke="#0C6B58" stroke-width="1" stroke-linejoin="round" stroke-linecap="round" d="M800,301.4L788.32,301.91L782.34,300L773.14,301.27L757.5,306.36L726.21,311.45L711.95,308.27L699.07,302.54L689.86,295.55L680.66,286.01L661.34,278.37L656.28,281.55L645.23,294.27L660.88,310.81L670.54,318.45L684.34,327.35L698.14,338.8L709.19,345.16L717.93,348.34L748.76,352.8L796.15,351.52L800,352.03Z"/>

  <!-- ravine / landscape -->
  <path fill="#147D64" fill-opacity="0.95" stroke="#0C6B58" stroke-width="1.5" stroke-linejoin="round" stroke-linecap="round" d="M800,-100.02L168.9,-100.02L170.41,-98.86L171.79,-97.59L188.35,-91.87L194.34,-90.59L204.46,-91.23L210.44,-90.59L215.04,-89.96L221.94,-88.05L227,-85.5L240.81,-82.96L245.41,-83.6L247.25,-84.87L248.63,-86.78L250.47,-95.05L253.23,-96.32L264.73,-99.5L267.49,-99.5L272.09,-93.14L273.93,-91.87L276.23,-91.23L282.21,-92.5L288.66,-94.41L290.96,-95.68L293.26,-97.59L294.31,-100.02L335.21,-100.02L336.97,-97.59L341.57,-93.78L344.33,-91.87L353.07,-89.96L356.29,-88.05L356.75,-84.23L358.59,-81.69L365.03,-77.87L371.47,-74.69L379.76,-71.51L382.98,-68.96L388.5,-66.42L392.18,-65.15L396.32,-64.51L398.62,-65.15L403.68,-64.51L406.9,-61.97L411.5,-61.33L419.78,-61.97L423.93,-62.6L427.15,-62.6L434.05,-61.33L438.19,-59.42L440.03,-58.15L440.49,-54.33L439.57,-49.24L440.03,-47.33L439.57,-45.43L439.57,-39.06L436.81,-35.25L435.89,-30.16L426.23,-30.79L419.78,-29.52L417.02,-28.25L414.72,-24.43L414.26,-22.52L415.18,-18.71L417.94,-13.62L420.24,-12.34L436.35,-6.62L446.01,-4.71L450.61,-4.71L455.21,-5.35L457.97,-6.62L463.95,-10.44L469.02,-14.25L476.38,-17.43L484.66,-22.52L490.18,-24.43L499.84,-30.16L503.52,-32.7L505.36,-35.25L510.88,-35.88L515.95,-35.25L520.09,-32.7L522.39,-32.7L526.53,-32.7L532.97,-32.07L538.49,-30.79L545.39,-30.79L548.61,-29.52L552.75,-28.89L555.97,-28.25L561.96,-24.43L563.8,-21.25L565.64,-19.98L570.7,-16.8L573,-16.16L579.44,-16.16L580.82,-14.25L583.58,-4.07L585.42,-0.89L587.26,0.38L590.94,1.01L597.84,-0.26L605.2,-3.44L613.49,-5.98L620.39,-7.89L621.31,-4.07L617.63,-2.17L616.25,-0.26L615.79,2.29L618.09,10.56L619.01,18.19L621.31,22.64L624.07,23.92L627.75,24.55L639.25,21.37L642.01,23.92L645.69,27.73L647.53,29.01L643.39,30.91L639.71,34.73L636.49,41.09L636.03,43L636.49,46.18L637.41,48.09L645.23,57L648.45,61.45L650.75,62.72L654.44,63.36L659.5,61.45L663.18,60.18L665.94,57.63L669.16,58.27L672.84,62.09L676.06,63.36L679.28,65.27L682.04,66.54L685.72,70.99L690.32,74.81L692.16,76.08L697.68,77.35L704.13,80.53L707.81,84.99L709.65,86.26L717.01,88.8L720.69,89.44L723.45,92.62L727.59,95.17L730.81,98.35L732.65,99.62L738.17,100.89L739.55,108.52L743.23,114.25L745.08,123.16L745.54,126.97L746,130.15L747.38,135.24L750.6,140.97L753.36,142.24L753.36,146.06L752.44,148.6L751.98,151.78L752.44,154.96L755.66,159.42L757.5,160.69L760.72,161.96L767.62,161.96L769.92,161.32L771.3,167.05L772.68,173.41L771.76,176.59L772.22,179.14L773.6,181.04L776.36,182.95L778.2,183.59L782.8,182.95L793.39,180.41L797.53,182.95L800,185.4L800,290.22L797.99,293L795.69,294.27L785.1,294.27L782.8,292.37L777.74,291.73L771.3,293L764.4,293.64L761.64,293L758.88,293L756.12,294.91L754.28,296.82L753.36,300L748.3,304.45L742.31,306.36L737.25,308.27L733.57,308.27L730.35,307.63L722.53,307L718.39,308.27L717.01,308.91L717.01,303.18L715.17,300L713.33,298.73L710.11,298.09L706.43,298.73L702.29,298.73L699.07,293.64L697.68,290.46L694.92,286.01L680.2,278.37L675.14,275.83L671.46,274.56L666.86,273.92L663.18,273.92L659.96,274.56L657.2,275.83L654.9,273.28L652.59,270.74L652.59,267.56L649.83,261.83L647.99,258.65L645.69,257.38L642.01,256.11L640.63,252.93L642.93,248.47L643.39,246.57L642.93,242.75L643.39,240.2L646.15,237.66L663.64,223.67L671,216.67L676.06,214.12L689.86,209.67L693.54,207.76L695.38,205.22L696.3,201.4L695.38,197.58L692.16,191.86L690.32,188.68L688.48,187.41L685.72,186.77L681.58,188.04L676.52,191.22L674.22,193.13L665.02,196.31L660.42,197.58L657.2,197.58L653.06,198.22L642.93,201.4L632.35,205.22L626.83,207.13L624.07,209.67L617.63,211.58L614.41,203.95L611.19,200.76L607.97,200.13L604.74,200.76L601.98,202.67L599.22,205.85L597.38,210.31L596.46,222.39L595.08,235.75L593.24,238.3L589.56,243.39L584.5,247.2L575.3,245.29L568.4,241.48L566.1,240.84L557.81,240.84L553.21,240.84L547.23,240.84L532.97,238.93L528.37,235.12L526.99,230.03L525.61,228.12L523.31,226.21L520.55,225.57L512.26,228.12L508.58,227.48L505.82,228.12L503.98,227.48L499.38,228.12L496.16,230.66L489.26,228.75L484.66,228.75L479.6,226.21L475.46,226.21L460.73,230.66L455.67,231.94L454.29,229.39L452.45,224.94L451.07,222.39L449.23,221.12L446.01,220.48L442.33,221.12L436.35,223.03L423.93,225.57L421.16,223.67L419.32,223.67L416.1,224.3L408.74,226.85L402.76,229.39L397.7,231.94L393.56,235.75L390.8,236.39L382.52,238.3L375.15,240.2L371.47,240.84L368.25,241.48L362.73,232.57L359.51,230.66L353.99,229.39L350.77,227.48L345.25,224.94L339.73,224.3L332.37,213.49L327.76,209.67L324.54,209.03L320.86,209.67L317.18,211.58L312.58,215.4L303.84,216.67L301.08,216.67L297.86,216.67L295.56,217.3L292.8,219.21L288.66,223.03L282.67,221.12L278.07,221.76L274.39,209.67L273.47,206.49L272.09,204.58L267.95,202.04L265.19,201.4L259.21,201.4L253.23,200.76L250.47,200.76L233.9,207.76L232.06,208.4L229.3,207.76L221.94,209.03L218.72,210.94L216.88,212.22L209.06,213.49L201.7,216.67L197.1,217.3L194.8,217.94L190.65,220.48L187.89,221.12L183.29,223.67L179.15,227.48L176.39,230.66L174.55,231.94L173.17,233.84L170.41,231.3L167.19,230.03L164.89,224.94L162.59,221.12L159.37,218.58L154.77,217.3L151.55,217.94L149.25,219.21L140.96,218.58L136.82,220.48L133.6,217.3L131.3,214.76L130.38,210.31L127.62,204.58L126.24,202.04L124.4,195.68L122.56,193.13L119.8,190.59L117.96,187.41L114.74,184.86L110.6,181.68L104.16,178.5L96.79,176.59L90.81,176.59L85.29,177.86L80.23,179.77L69.65,182.95L68.27,182.32L70.57,176.59L76.09,168.96L79.77,161.32L83.45,159.42L91.73,155.6L95.41,153.05L102.32,147.97L108.3,145.42L111.98,142.88L115.2,137.15L116.58,133.33L121.18,135.24L123.02,135.24L128.54,133.33L132.68,130.15L134.06,127.61L134.52,122.52L134.06,118.7L132.22,111.71L130.84,109.8L127.62,107.25L125.32,106.62L118.88,105.98L114.28,103.44L111.98,102.8L104.16,103.44L96.33,105.34L94.03,104.07L90.35,103.44L86.67,102.16L82.53,99.62L77.01,97.71L74.71,97.07L71.49,97.71L72.41,94.53L72.41,91.35L71.03,84.99L69.19,82.44L70.57,77.99L70.57,76.08L67.81,69.72L65.51,67.18L61.37,65.27L60.91,63.36L58.61,57L57.69,53.18L54.46,44.91L52.16,43L51.7,40.46L52.62,37.28L52.16,32.19L49.86,25.82L48.02,23.28L45.72,21.37L41.12,21.37L40.2,19.46L38.36,11.83L34.68,2.29L32.84,-0.26L31,-5.98L27.32,-9.16L22.72,-9.8L21.34,-12.34L18.12,-14.25L13.06,-14.89L3.85,-12.98L1.09,-11.71L0,43.46L3.39,45.55L5.23,57.63L6.15,60.81L4.31,66.54L5.69,72.26L7.99,76.08L10.76,78.63L7.53,81.81L6.15,85.62L5.69,89.44L6.61,96.44L3.85,98.35L0,98.83L0,138.35L0,147.73L1.55,149.87L5.23,152.42L2.93,157.51L0,155.48L0,281.15L2.01,282.82L4.77,284.73L7.07,285.37L9.84,284.73L13.06,284.73L17.66,284.73L24.56,282.82L27.32,280.92L30.54,275.83L39.28,273.92L46.18,275.83L51.7,276.46L57.69,277.1L65.05,279.01L69.19,281.55L74.25,292.37L77.47,296.82L85.29,303.18L89.43,305.73L94.49,307.63L97.25,308.91L100.47,309.54L102.78,308.91L104.62,307.63L106,305.73L123.94,298.73L128.08,294.91L130.38,291.73L133.14,291.09L135.9,289.19L137.74,286.64L141.42,285.37L146.48,285.37L149.71,286.64L152.01,289.82L157.07,294.27L160.29,298.09L164.43,301.27L169.95,303.82L173.17,309.54L176.39,313.36L178.23,314.63L180.53,315.27L182.83,314.63L184.67,313.36L186.05,311.45L188.35,314.63L193.88,317.18L197.1,320.99L201.7,330.53L204.92,333.71L207.68,334.35L211.36,333.08L233.44,322.26L238.5,318.45L255.99,312.72L261.05,310.81L273.01,307.63L285.44,307.63L289.12,307.63L294.18,307.63L296.48,310.81L300.62,312.09L305.22,311.45L307.06,310.18L308.44,308.27L308.9,305.73L315.34,306.36L332.37,303.82L338.81,302.54L345.25,301.91L356.29,303.18L363.19,304.45L370.55,305.73L385.74,309.54L398.16,311.45L400,312.09L412.42,313.99L418.86,315.27L425.31,316.54L440.03,319.08L449.69,320.36L453.83,321.63L458.89,322.26L470.4,322.9L472.24,322.26L477.76,320.36L481.44,317.81L484.66,319.72L488.8,320.99L490.18,321.63L493.86,326.08L495.7,327.35L503.52,329.9L510.88,331.17L521.93,333.08L526.99,334.35L535.73,336.26L544.01,337.53L557.35,340.71L564.72,340.07L572.08,338.8L580.82,336.26L583.12,338.8L590.02,345.8L591.4,354.71L594.62,359.79L596.92,362.97L602.9,366.79L605.2,367.43L608.43,366.79L619.47,363.61L623.15,363.61L625.45,364.25L629.13,366.79L636.03,371.24L636.03,374.42L636.95,377.61L637.87,379.51L641.55,383.33L646.61,388.42L647.07,392.87L648.91,396.05L657.2,406.87L661.8,410.68L665.94,413.86L667.78,414.5L672.38,415.77L680.2,416.41L690.78,415.13L697.68,415.77L705.05,415.77L705.51,418.95L705.05,421.5L705.51,424.68L707.35,427.86L711.95,430.4L720.69,432.31L728.05,432.31L731.73,431.67L734.49,429.77L740.47,424.68L743.23,421.5L746.46,415.77L748.76,410.05L749.68,406.23L757.5,404.96L760.26,404.32L772.22,399.87L774.52,399.87L781.88,402.41L785.1,403.69L791.09,404.32L793.39,404.96L796.61,405.59L798.91,404.32L800,405.01Z"/>

  <!-- minor streets -->
  <path fill="none" stroke="#D3CEC4" stroke-width="2" stroke-linejoin="round" stroke-linecap="round" d="M606.12,6.74L580.36,13.74L568.4,13.74L525.61,26.46L521.47,36L562.42,171.5L526.53,181.68L515.49,144.78L510.88,137.15L495.24,128.88L472.24,126.34L460.27,128.25L404.14,142.88L387.58,83.72L387.12,79.26L390.34,56.36L387.58,32.82L382.98,18.83L383.44,-6.62L388.04,-21.89L355.83,-25.7L349.85,-25.07L320.4,-18.71L292.34,-10.44L307.52,43L311.2,48.73L324.54,57L337.43,99.62L355.37,89.44L387.12,79.26L440.03,61.45L445.55,40.46L447.85,17.55L451.53,5.47L449.23,-4.07L442.33,-7.89L408.74,-19.98L435.89,-17.43"/>
  <path fill="none" stroke="#D3CEC4" stroke-width="2" stroke-linejoin="round" stroke-linecap="round" d="M723.91,140.33L725.75,120.61L721.61,111.07L713.33,115.52L680.66,123.79L665.02,69.08L659.96,63.99L644.77,65.9L634.65,62.72L619.47,44.91L609.35,39.18L587.72,34.09L601.52,83.72L622.23,153.05L570.7,168.96L578.06,194.4L586.34,199.49L670.54,174.68L681.12,178.5L691.24,181.04"/>
  <path fill="none" stroke="#D3CEC4" stroke-width="2" stroke-linejoin="round" stroke-linecap="round" d="M691.7,177.23L685.26,156.24L682.5,136.52L676.98,137.15L622.23,153.05"/>
  <path fill="none" stroke="#D3CEC4" stroke-width="2" stroke-linejoin="round" stroke-linecap="round" d="M231.14,211.58L249.09,202.67L260.13,193.13L277.15,186.77L263.81,141.6L269.79,137.79L337.43,99.62"/>
  <path fill="none" stroke="#D3CEC4" stroke-width="2" stroke-linejoin="round" stroke-linecap="round" d="M339.27,225.57L330.52,212.85L320.4,209.67L304.76,216.03L285.44,217.3L277.15,186.77"/>
  <path fill="none" stroke="#D3CEC4" stroke-width="2" stroke-linejoin="round" stroke-linecap="round" d="M432.21,-179.66L402.76,-74.69L388.04,-21.89L408.74,-19.98"/>
  <path fill="none" stroke="#D3CEC4" stroke-width="2" stroke-linejoin="round" stroke-linecap="round" d="M132.22,179.14L150.63,173.41L157.07,172.14L259.21,142.88L263.81,141.6L249.55,92.62L233.9,42.37L246.79,36.64L258.29,26.46L270.71,6.74L272.09,-5.98L267.49,-23.16L257.83,-32.07L237.58,-44.79L246.33,-65.15L259.21,-74.05L295.1,-86.14"/>
  <path fill="none" stroke="#D3CEC4" stroke-width="2" stroke-linejoin="round" stroke-linecap="round" d="M149.25,-11.71L164.43,4.83L184.21,20.1L186.97,26.46L188.35,50L213.2,47.45L233.9,42.37"/>
  <path fill="none" stroke="#D3CEC4" stroke-width="2" stroke-linejoin="round" stroke-linecap="round" d="M302.46,-88.05L329.14,-96.32"/>
  <path fill="none" stroke="#D3CEC4" stroke-width="2" stroke-linejoin="round" stroke-linecap="round" d="M266.11,576.7L263.81,577.97L209.98,594.51L192.95,598.96L90.35,630.77L54.46,640.94L6.15,656.21L-76.66,680.38"/>
  <path fill="none" stroke="#D3CEC4" stroke-width="2" stroke-linejoin="round" stroke-linecap="round" d="M225.62,646.03L172.25,662.57"/>
  <path fill="none" stroke="#D3CEC4" stroke-width="2" stroke-linejoin="round" stroke-linecap="round" d="M271.17,575.43L291.88,570.34L378.38,543.62L390.34,541.08L409.2,539.81L423.47,535.99L433.13,567.79L451.99,635.85L461.19,663.2L525.15,878.18"/>
  <path fill="none" stroke="#D3CEC4" stroke-width="2" stroke-linejoin="round" stroke-linecap="round" d="M267.03,569.07L252.31,516.91L275.77,511.18L304.3,502.92L338.81,490.19L360.43,484.47L338.81,413.86L260.13,438.67L230.68,446.3L217.8,403.69L206.3,364.88L204,349.62L205.38,343.26"/>
  <path fill="none" stroke="#D3CEC4" stroke-width="2" stroke-linejoin="round" stroke-linecap="round" d="M56.31,386.51L37.9,327.35L34.22,323.54L30.54,323.54L0.17,333.08L-24.67,340.71"/>
  <path fill="none" stroke="#D3CEC4" stroke-width="2" stroke-linejoin="round" stroke-linecap="round" d="M137.28,91.35L100.01,100.25L88.51,97.71L66.43,81.17L41.58,132.06L23.18,122.52L-3.05,116.79L-15.47,109.16L-27.43,90.71L-32.49,84.35L-34.33,92.62L-27.43,90.71"/>
  <path fill="none" stroke="#D3CEC4" stroke-width="2" stroke-linejoin="round" stroke-linecap="round" d="M-58.26,299.36L-38.48,268.83L-19.61,238.93L48.94,246.57L104.62,251.66L133.14,254.84L169.49,259.92L209.98,261.2L247.25,260.56L295.56,259.29L330.98,260.56L372.85,267.56L405.52,266.92L424.39,269.47L445.55,273.92L605.66,292.37L620.85,294.91L648.45,305.73L670.54,319.72L693.54,338.8L716.55,350.25L737.25,354.71L783.26,353.43L809.49,355.34L829.27,362.97L887.25,390.33"/>
  <path fill="none" stroke="#D3CEC4" stroke-width="2" stroke-linejoin="round" stroke-linecap="round" d="M748.76,510.55L774.52,502.92L770.38,489.56"/>
  <path fill="none" stroke="#D3CEC4" stroke-width="2" stroke-linejoin="round" stroke-linecap="round" d="M699.07,511.18L713.33,560.16L784.64,537.9L800.29,594.51L813.63,639.03L826.51,683.56L943.38,647.94"/>
  <path fill="none" stroke="#D3CEC4" stroke-width="2" stroke-linejoin="round" stroke-linecap="round" d="M917.15,559.53L800.29,594.51L725.75,617.41L662.72,636.49"/>
  <path fill="none" stroke="#D3CEC4" stroke-width="2" stroke-linejoin="round" stroke-linecap="round" d="M585.88,373.79L517.79,376.33L511.34,376.97L474.08,378.24L456.59,378.24L396.32,380.79L375.61,381.42L329.6,383.33L326.38,371.24L323.62,359.79L318.1,342.62L317.18,340.07L309.82,313.36L302.92,289.19L297.4,266.92L295.56,259.29L288.2,229.39L285.44,217.3"/>
  <path fill="none" stroke="#D3CEC4" stroke-width="2" stroke-linejoin="round" stroke-linecap="round" d="M399.08,325.44L396.32,380.79"/>
  <path fill="none" stroke="#D3CEC4" stroke-width="2" stroke-linejoin="round" stroke-linecap="round" d="M462.57,336.26L474.08,378.24"/>
  <path fill="none" stroke="#D3CEC4" stroke-width="2" stroke-linejoin="round" stroke-linecap="round" d="M397.7,822.85L371.47,735.71L356.29,685.47L367.79,681.01L382.98,672.11L402.76,652.39L410.12,648.57L451.99,635.85L525.15,613.59L583.12,596.42L620.85,584.97L645.69,579.24L651.67,579.24L713.33,560.16"/>
  <path fill="none" stroke="#D3CEC4" stroke-width="2" stroke-linejoin="round" stroke-linecap="round" d="M665.94,647.94L603.36,666.38L627.29,744.62L572.08,760.52L570.7,762.43L570.24,765.61"/>
  <path fill="none" stroke="#D3CEC4" stroke-width="2" stroke-linejoin="round" stroke-linecap="round" d="M170.87,464.75L124.4,479.38L51.7,500.37L-93.23,542.35"/>
  <path fill="none" stroke="#D3CEC4" stroke-width="2" stroke-linejoin="round" stroke-linecap="round" d="M95.87,434.85L37.44,452.03L-96.91,492.1"/>
  <path fill="none" stroke="#D3CEC4" stroke-width="2" stroke-linejoin="round" stroke-linecap="round" d="M-95.07,617.41L40.66,577.97L71.95,568.43L191.57,533.45L198.02,532.17L252.31,516.91L230.68,446.3"/>
  <path fill="none" stroke="#D3CEC4" stroke-width="2" stroke-linejoin="round" stroke-linecap="round" d="M487.42,485.1L496.62,510.55L488.34,515.64L423.47,535.99L398.16,452.03L375.61,381.42"/>
  <path fill="none" stroke="#D3CEC4" stroke-width="2" stroke-linejoin="round" stroke-linecap="round" d="M-84.49,-96.96L-31.11,-112.86L-20.07,-116.04L17.2,-126.86L29.62,-130.67L59.07,-138.31L85.75,-141.49L97.71,-151.03"/>
  <path fill="none" stroke="#D3CEC4" stroke-width="2" stroke-linejoin="round" stroke-linecap="round" d="M529.29,417.68L517.79,376.33"/>
  <path fill="none" stroke="#D3CEC4" stroke-width="2" stroke-linejoin="round" stroke-linecap="round" d="M476.38,445.67L457.05,383.97L456.59,378.24"/>
  <path fill="none" stroke="#D3CEC4" stroke-width="2" stroke-linejoin="round" stroke-linecap="round" d="M606.12,443.76L565.64,455.84L562.88,459.03L567.02,459.03L607.05,446.94"/>
  <path fill="none" stroke="#D3CEC4" stroke-width="2" stroke-linejoin="round" stroke-linecap="round" d="M741.39,224.3L710.11,220.48"/>
  <path fill="none" stroke="#D3CEC4" stroke-width="2" stroke-linejoin="round" stroke-linecap="round" d="M827.89,260.56L821.45,268.19L812.25,273.28L792.93,275.83L773.6,275.83L739.09,283.46L722.99,282.82L715.63,279.01L685.72,256.74L679.28,250.38"/>
  <path fill="none" stroke="#D3CEC4" stroke-width="2" stroke-linejoin="round" stroke-linecap="round" d="M896.91,612.32L818.23,637.13L813.63,639.03L810.41,640.94L739.09,661.93L751.98,706.46L688.94,726.17L627.29,744.62"/>
  <path fill="none" stroke="#D3CEC4" stroke-width="2" stroke-linejoin="round" stroke-linecap="round" d="M100.01,664.48L162.13,645.39"/>
  <path fill="none" stroke="#D3CEC4" stroke-width="2" stroke-linejoin="round" stroke-linecap="round" d="M25.94,280.92L-38.02,300L-59.64,305.73"/>
  <path fill="none" stroke="#D3CEC4" stroke-width="2" stroke-linejoin="round" stroke-linecap="round" d="M500.76,331.81L499.38,343.26L511.34,376.97"/>
  <path fill="none" stroke="#D3CEC4" stroke-width="2" stroke-linejoin="round" stroke-linecap="round" d="M159.83,497.19L132.22,505.46L124.4,479.38"/>
  <path fill="none" stroke="#D3CEC4" stroke-width="2" stroke-linejoin="round" stroke-linecap="round" d="M392.18,235.75L435.89,218.58L481.9,198.86L526.53,181.68"/>
  <path fill="none" stroke="#D3CEC4" stroke-width="2" stroke-linejoin="round" stroke-linecap="round" d="M562.42,171.5L570.7,168.96"/>
  <path fill="none" stroke="#D3CEC4" stroke-width="2" stroke-linejoin="round" stroke-linecap="round" d="M580.36,13.74L587.72,34.09"/>
  <path fill="none" stroke="#D3CEC4" stroke-width="2" stroke-linejoin="round" stroke-linecap="round" d="M680.66,123.79L682.5,136.52"/>
  <path fill="none" stroke="#D3CEC4" stroke-width="2" stroke-linejoin="round" stroke-linecap="round" d="M713.33,115.52L725.75,120.61"/>
  <path fill="none" stroke="#D3CEC4" stroke-width="2" stroke-linejoin="round" stroke-linecap="round" d="M263.81,141.6L272.09,144.78L366.87,150.51L375.61,150.51L404.14,142.88"/>
  <path fill="none" stroke="#D3CEC4" stroke-width="2" stroke-linejoin="round" stroke-linecap="round" d="M460.27,128.25L481.9,198.86"/>
  <path fill="none" stroke="#D3CEC4" stroke-width="2" stroke-linejoin="round" stroke-linecap="round" d="M366.87,150.51L392.18,235.75"/>
  <path fill="none" stroke="#D3CEC4" stroke-width="2" stroke-linejoin="round" stroke-linecap="round" d="M272.09,-5.98L292.34,-10.44"/>
  <path fill="none" stroke="#D3CEC4" stroke-width="2" stroke-linejoin="round" stroke-linecap="round" d="M135.44,65.27L150.17,63.99L162.59,61.45L188.35,50"/>
  <path fill="none" stroke="#D3CEC4" stroke-width="2" stroke-linejoin="round" stroke-linecap="round" d="M121.18,-75.33L137.28,-66.42L140.04,-64.51L152.93,-58.79L212.28,-49.88L237.58,-44.79"/>
  <path fill="none" stroke="#D3CEC4" stroke-width="2" stroke-linejoin="round" stroke-linecap="round" d="M76.09,-82.96L101.86,-83.6L121.18,-75.33"/>
  <path fill="none" stroke="#D3CEC4" stroke-width="2" stroke-linejoin="round" stroke-linecap="round" d="M326.38,371.24L247.25,395.42L217.8,403.69"/>
  <path fill="none" stroke="#D3CEC4" stroke-width="2" stroke-linejoin="round" stroke-linecap="round" d="M300.16,599.6L325.92,684.83L326.38,689.28L295.1,683.56L289.12,684.19L241.73,698.82L192.03,714.09L121.64,735.71L88.05,745.89L6.61,770.06"/>
  <path fill="none" stroke="#D3CEC4" stroke-width="2" stroke-linejoin="round" stroke-linecap="round" d="M300.16,599.6L326.84,591.33L387.58,574.16L378.38,543.62L360.43,484.47"/>
  <path fill="none" stroke="#D3CEC4" stroke-width="2" stroke-linejoin="round" stroke-linecap="round" d="M-74.82,233.84L-19.61,238.93L2.93,198.86L11.68,184.86L41.58,132.06"/>
  <path fill="none" stroke="#D3CEC4" stroke-width="2" stroke-linejoin="round" stroke-linecap="round" d="M774.52,502.92L784.64,537.9L861.94,513.73"/>
  <path fill="none" stroke="#D3CEC4" stroke-width="2" stroke-linejoin="round" stroke-linecap="round" d="M739.09,661.93L725.75,617.41"/>
  <path fill="none" stroke="#D3CEC4" stroke-width="2" stroke-linejoin="round" stroke-linecap="round" d="M545.85,684.19L533.43,642.21L525.15,613.59"/>
  <path fill="none" stroke="#D3CEC4" stroke-width="2" stroke-linejoin="round" stroke-linecap="round" d="M496.62,510.55L545.85,489.56L549.07,487.01L555.05,464.75L562.88,459.03"/>
  <path fill="none" stroke="#D3CEC4" stroke-width="2" stroke-linejoin="round" stroke-linecap="round" d="M104.16,55.09L118.42,62.72L135.44,65.27"/>
  <path fill="none" stroke="#D3CEC4" stroke-width="2" stroke-linejoin="round" stroke-linecap="round" d="M41.58,-74.69L51.7,-44.15L51.7,-28.89L54,-16.8L65.51,6.74L96.33,44.91L88.97,52.54L104.16,55.09L96.33,44.91"/>
  <path fill="none" stroke="#D3CEC4" stroke-width="2" stroke-linejoin="round" stroke-linecap="round" d="M-58.72,-32.07L-33.41,-34.61L-14.55,-39.7L4.31,-47.97L22.72,-64.51L41.58,-74.69L49.4,-77.87L76.09,-82.96L68.27,-110.95L63.67,-118.59L59.07,-138.31"/>
  <path fill="none" stroke="#D3CEC4" stroke-width="2" stroke-linejoin="round" stroke-linecap="round" d="M417.02,671.47L410.12,648.57L398.62,611.05L387.58,574.16"/>
  <path fill="none" stroke="#D3CEC4" stroke-width="2" stroke-linejoin="round" stroke-linecap="round" d="M326.38,689.28L340.19,688.65L356.29,685.47L326.84,591.33"/>
  <path fill="none" stroke="#D3CEC4" stroke-width="2" stroke-linejoin="round" stroke-linecap="round" d="M66.43,81.17L74.71,65.9L88.97,52.54"/>
  <path fill="none" stroke="#D3CEC4" stroke-width="2" stroke-linejoin="round" stroke-linecap="round" d="M11.68,184.86L-0.75,180.41L-7.65,175.32L-18.69,162.6L-24.67,159.42"/>
  <path fill="none" stroke="#D3CEC4" stroke-width="2" stroke-linejoin="round" stroke-linecap="round" d="M440.03,61.45L521.47,36"/>
  <path fill="none" stroke="#D3CEC4" stroke-width="2" stroke-linejoin="round" stroke-linecap="round" d="M329.6,383.33L338.81,413.86"/>
  <path fill="none" stroke="#D3CEC4" stroke-width="2" stroke-linejoin="round" stroke-linecap="round" d="M417.02,671.47L456.59,802.5"/>

  <!-- major streets -->
  <path fill="none" stroke="#B8B2A7" stroke-width="3.5" stroke-linejoin="round" stroke-linecap="round" d="M867,140.33L800.29,158.78L776.82,165.14L756.12,177.23L732.65,200.13L710.11,220.48L693.54,237.02L679.28,250.38L651.67,278.37L639.71,289.82L598.3,327.35L586.34,338.17L554.59,341.98L399.54,313.36L353.53,306.36L337.43,306.36L309.82,313.36L284.97,320.36L268.41,324.81L244.95,331.81L224.24,337.53L205.38,343.26L199.86,344.53L194.34,345.8L189.73,347.07L186.05,348.34L168.57,353.43L156.61,355.98L140.04,360.43L116.58,367.43L84.37,377.61L56.31,386.51L48.94,388.42L39.74,390.96L20.42,397.32L-2.59,403.69L-7.19,405.59L-20.07,409.41L-72.06,424.68"/>
  <path fill="none" stroke="#B8B2A7" stroke-width="3.5" stroke-linejoin="round" stroke-linecap="round" d="M188.81,312.72L197.56,316.54L206.76,335.62L205.38,343.26"/>
  <path fill="none" stroke="#B8B2A7" stroke-width="3.5" stroke-linejoin="round" stroke-linecap="round" d="M583.12,364.25L554.59,341.98"/>
  <path fill="none" stroke="#B8B2A7" stroke-width="3.5" stroke-linejoin="round" stroke-linecap="round" d="M690.78,-71.51L663.18,-51.15L650.29,-46.7L630.05,-53.06L623.15,-63.87L622.23,-83.6L637.41,-100.14L665.48,-108.41L681.12,-108.41L689.86,-103.32L702.75,-88.69L705.51,-86.14L706.89,-84.87L708.73,-83.6L713.33,-79.78"/>
  <path fill="none" stroke="#B8B2A7" stroke-width="3.5" stroke-linejoin="round" stroke-linecap="round" d="M799.83,10.56L769.46,-35.88L739.09,-84.23L736.79,-96.32L745.08,-115.41L756.12,-129.4"/>
  <path fill="none" stroke="#B8B2A7" stroke-width="3.5" stroke-linejoin="round" stroke-linecap="round" d="M756.12,177.23L740.47,176.59L725.29,167.69L717.47,168.32"/>
  <path fill="none" stroke="#B8B2A7" stroke-width="3.5" stroke-linejoin="round" stroke-linecap="round" d="M164.43,438.03L177.77,440.58"/>
  <path fill="none" stroke="#B8B2A7" stroke-width="3.5" stroke-linejoin="round" stroke-linecap="round" d="M709.65,-88.05L706.89,-84.87L697.68,-74.05L689.86,-58.15L692.62,-39.06L705.51,-5.98L712.41,4.83L722.07,10.56L741.39,11.19L751.52,4.2L757.5,-6.62L757.96,-19.98L750.14,-42.24"/>
  <path fill="none" stroke="#B8B2A7" stroke-width="3.5" stroke-linejoin="round" stroke-linecap="round" d="M586.34,338.17L583.12,364.25L645.69,579.24L704.13,777.69"/>
  <path fill="none" stroke="#B8B2A7" stroke-width="3.5" stroke-linejoin="round" stroke-linecap="round" d="M185.59,513.73L182.83,486.38L177.31,467.29L177.31,456.48L189.27,412.59L195.72,385.87L196.18,371.88L196.18,355.98L194.34,345.8L192.95,336.89L188.81,312.72L183.29,294.91L181.45,284.1L170.87,221.76L157.99,175.96L157.07,172.14L143.26,126.34L137.28,91.35L135.44,65.27L140.04,-19.98L137.74,-33.97L123.94,-83.6L108.3,-130.67L97.71,-151.03L74.25,-184.75"/>
  <path fill="none" stroke="#B8B2A7" stroke-width="3.5" stroke-linejoin="round" stroke-linecap="round" d="M95.41,-164.39L113.36,-131.95L140.04,-46.06L141.42,-32.7L140.04,-19.98"/>
  <path fill="none" stroke="#B8B2A7" stroke-width="3.5" stroke-linejoin="round" stroke-linecap="round" d="M170.87,464.75L177.77,440.58L189.27,412.59"/>
  <path fill="none" stroke="#B8B2A7" stroke-width="3.5" stroke-linejoin="round" stroke-linecap="round" d="M187.89,338.17L188.81,342.62L189.73,347.07L191.11,356.61L196.18,371.88"/>
  <path fill="none" stroke="#B8B2A7" stroke-width="3.5" stroke-linejoin="round" stroke-linecap="round" d="M183.29,294.91L187.89,338.17"/>
  <path fill="none" stroke="#B8B2A7" stroke-width="3.5" stroke-linejoin="round" stroke-linecap="round" d="M855.96,108.52L839.4,70.36L815.01,30.28L799.83,10.56L750.14,-42.24L713.33,-79.78L708.73,-87.41L704.13,-94.41L698.14,-105.23L687.56,-135.13L685.26,-166.3"/>
  <path fill="none" stroke="#B8B2A7" stroke-width="3.5" stroke-linejoin="round" stroke-linecap="round" d="M140.04,360.43L157.07,418.95L164.43,438.03L170.87,464.75L166.27,458.39L157.07,418.95"/>
  <path fill="none" stroke="#B8B2A7" stroke-width="3.5" stroke-linejoin="round" stroke-linecap="round" d="M131.3,766.88L121.64,735.71L102.78,672.11L37.44,452.03L25.02,411.95L20.42,397.32L8.45,356.61L0.17,333.08L-8.11,324.81L-32.03,318.45L-54.12,324.17"/>
  <path fill="none" stroke="#B8B2A7" stroke-width="3.5" stroke-linejoin="round" stroke-linecap="round" d="M717.47,168.32L740.47,158.14L755.2,142.24L762.56,115.52L760.26,100.25L751.06,82.44L685.26,15.65L673.76,1.65L666.86,-18.07L666.86,-33.34L671,-47.33L690.78,-71.51L696.3,-76.6L706.43,-85.5L708.73,-87.41L718.39,-96.32L743.23,-118.59L756.12,-129.4L767.16,-138.94L809.95,-178.39"/>
  <path fill="none" stroke="#B8B2A7" stroke-width="3.5" stroke-linejoin="round" stroke-linecap="round" d="M740.47,176.59L735.87,168.32L740.47,158.14"/>
  <path fill="none" stroke="#B8B2A7" stroke-width="3.5" stroke-linejoin="round" stroke-linecap="round" d="M262.43,768.15L241.73,698.82L225.62,646.03L191.57,533.45L185.59,513.73L170.87,464.75"/>
  <path fill="none" stroke="#B8B2A7" stroke-width="3.5" stroke-linejoin="round" stroke-linecap="round" d="M691.7,177.23L717.47,168.32"/>
  <path fill="none" stroke="#B8B2A7" stroke-width="3.5" stroke-linejoin="round" stroke-linecap="round" d="M691.7,177.23L691.24,181.04L699.07,203.95L710.11,220.48"/>

  <!-- buried streams (culverted / underground) -->
  <path fill="none" stroke="#3994C1" stroke-width="1" stroke-linejoin="round" stroke-linecap="round" stroke-dasharray="5,4" d="M568.86,-89.96L632.81,-70.24L711.95,-39.7L805.35,24.55L830.19,27.73"/>

  <!-- buried rivers (culverted / underground) -->
  <!-- buried rivers: none in view -->

  <!-- streams -->
  <!-- streams: none in view -->

  <!-- rivers -->
  <!-- rivers: none in view -->

  <!-- outside-survey wash (paper fill beyond municipal boundary) -->
  <!-- outside mask: none in view -->

  <!-- toronto municipal boundary (solid hairline, consistent with island map) -->
  <!-- boundary: none in view -->

  <!-- threshold marker -->
  <circle cx="401.5" cy="302" r="16" fill="#00000026" filter="url(#mshad)"/>
  <circle cx="400" cy="300" r="16" fill="#DE3A11" stroke="#27241D" stroke-width="1.5"/>
  <circle cx="400" cy="300" r="5" fill="#FFFFFF"/>

  <!-- scale bar: 200m -->
  <g fill="none" stroke="#857F72" stroke-width="1.25" stroke-linecap="round">
    <line x1="20" y1="578" x2="134.29" y2="578"/>
    <line x1="20" y1="572" x2="20" y2="578"/>
    <line x1="134.29" y1="572" x2="134.29" y2="578"/>
  </g>
  <text x="77.14" y="569" fill="#857F72" font-size="10" text-anchor="middle">200m</text>

  <!-- north indicator (halo keeps it visible over street linework) -->
  <circle cx="768" cy="36" r="22" fill="#FAF6EC" fill-opacity="0.9" stroke="#857F72" stroke-opacity="0.3" stroke-width="1"/>
  <g fill="#857F72" stroke="#857F72" stroke-width="2">
    <line x1="768" y1="42" x2="768" y2="24" stroke-linecap="round"/>
    <polygon points="768,16 762.5,27 773.5,27" stroke-width="1" stroke-linejoin="round"/>
  </g>
  <text x="768" y="55" fill="#857F72" font-size="13" text-anchor="middle" font-weight="700">N</text>
</svg>