<svg xmlns="http://www.w3.org/2000/svg" viewBox="0 0 800 600" width="800" height="600">
  <defs>
    <filter id="mshad" x="-40%" y="-40%" width="180%" height="180%">
      <feDropShadow dx="1.5" dy="2" stdDeviation="2.5" flood-color="#00000033"/>
    </filter>
    <style>text { font-family: Archivo, sans-serif; }</style>
  </defs>

  <!-- background -->
  <rect width="800" height="600" fill="#FAF6EC"/>

  <!-- lake ontario -->
  <!-- lake: none in view -->

  <!-- ESA (environmentally sensitive areas) -->
  <path fill="#147D64" fill-opacity="0.85" stroke="#0C6B58" stroke-width="1" stroke-linejoin="round" stroke-linecap="round" d="M796.55,699.98L795.37,698.19L788.46,691.19L779.72,685.47L769.59,676.56L764.53,667.66L759.01,656.21L747.96,639.03L741.98,625.68L733.69,612.96L725.41,607.23L716.2,598.96L707.92,586.24L697.79,586.88L691.81,593.87L694.11,598.96L718.96,628.22L727.71,643.49L736.91,656.84L750.26,657.48L752.1,687.37L766.83,695.01L783.47,699.98Z"/>
  <path fill="#147D64" fill-opacity="0.85" stroke="#0C6B58" stroke-width="1" stroke-linejoin="round" stroke-linecap="round" d="M545.48,699.98L548.67,689.92L548.67,666.38L544.98,649.21L531.64,604.05L524.27,591.33L510.46,576.06L498.5,569.07L482.39,563.98L466.74,555.71L442.8,544.9L428.08,538.54L426.24,542.35L427.62,550.62L434.52,575.43L434.98,587.51L433.14,596.42L433.14,607.23L435.44,621.86L433.14,646.03L429,668.29L424.85,680.38L423.47,693.73L426.7,699.46L427.04,699.98Z"/>

  <!-- ravine / landscape -->
  <path fill="#147D64" fill-opacity="0.95" stroke="#0C6B58" stroke-width="1.5" stroke-linejoin="round" stroke-linecap="round" d="M0,-100.02L0,325.31L3.25,324.81L5.55,324.81L11.54,326.08L17.98,327.35L22.58,327.99L27.65,327.35L32.71,326.08L41.45,327.35L45.14,327.35L52.96,327.35L59.87,326.08L65.39,326.08L72.29,323.54L75.51,326.08L79.2,326.08L84.26,327.35L86.56,327.35L89.78,324.81L92.08,322.26L95.31,317.18L95.77,315.27L105.43,310.18L108.19,308.27L111.88,307.63L116.02,303.82L119.24,300.64L128.44,295.55L132.13,294.27L139.03,292.37L147.32,291.73L149.62,293L156.52,293.64L159.28,293L168.49,291.09L176.77,288.55L178.61,287.28L179.99,293L181.37,294.91L183.68,296.82L197.02,299.36L199.79,299.36L204.85,298.73L211.29,296.82L214.05,296.18L220.96,296.82L226.02,296.18L232.92,291.73L236.15,286.64L239.83,282.82L241.21,280.28L244.89,280.28L251.8,281.55L253.18,282.82L256.4,288.55L258.24,290.46L263.76,293L268.82,294.27L272.97,296.18L278.03,301.91L286.31,307L290.46,307.63L291.84,310.81L297.36,315.27L300.58,317.18L302.42,319.72L305.19,321.63L314.39,326.72L318.53,335.62L318.99,337.53L318.07,341.35L313.47,345.8L312.09,347.71L310.71,353.43L310.71,360.43L309.79,363.61L302.42,380.79L300.58,384.6L299.2,391.6L297.82,394.78L293.68,403.05L293.22,405.59L293.68,409.41L295.98,413.23L293.22,423.4L290,427.86L289.54,430.4L290.46,432.31L286.78,439.31L282.63,438.03L273.43,433.58L266.06,431.04L250.87,428.49L238.91,426.58L236.61,426.58L231.54,427.22L229.24,428.49L219.12,436.13L216.82,436.13L208.53,434.22L204.85,434.85L203.01,436.13L197.94,436.13L190.12,439.31L185.52,439.94L177.23,443.12L172.17,446.94L164.35,450.12L162.04,451.39L159.28,453.94L153.76,455.21L149.16,458.39L147.32,460.93L144.09,461.57L139.95,464.11L138.11,464.11L133.05,464.11L130.75,464.11L127.52,464.11L121.54,466.02L115.56,469.2L113.72,471.75L113.26,474.93L104.51,481.92L99.91,485.1L95.31,488.29L91.16,493.37L89.32,495.28L84.72,496.55L82.42,490.83L81.04,488.92L77.82,485.74L75.51,485.1L69.99,483.2L61.25,480.65L52.04,477.47L40.99,474.29L35.47,473.66L31.79,471.11L27.65,469.84L23.04,469.2L17.52,468.57L7.86,469.84L3.71,472.38L0,475.65L0,592.47L5.09,592.6L7.86,591.33L12,588.15L13.84,584.97L16.14,579.88L16.6,577.97L16.14,568.43L26.27,564.61L28.57,569.7L31.33,574.16L34.09,576.06L36.39,576.7L40.99,576.06L41.45,584.97L42.84,598.33L43.76,604.05L45.14,609.14L47.9,614.23L50.66,618.04L54.34,625.04L57.1,629.49L61.25,633.31L67.23,640.31L69.07,644.76L71.37,647.94L73.21,648.57L75.51,649.21L78.28,648.57L81.5,649.85L94.39,656.84L96.23,657.48L105.43,658.12L110.49,657.48L127.52,653.03L133.97,650.48L137.65,649.85L143.63,649.85L152.38,650.48L162.96,650.48L171.25,649.85L174.47,649.85L181.84,648.57L184.14,647.3L187.36,644.76L194.26,644.12L200.71,644.12L207.15,642.85L218.2,644.12L220.5,644.12L221.88,645.39L229.24,647.3L240.75,647.94L245.81,648.57L261,647.3L269.29,646.67L277.57,650.48L269.29,660.02L263.76,665.75L261.46,668.93L260.08,672.11L258.24,675.29L256.4,677.83L250.41,680.38L243.51,682.29L241.67,683.56L240.75,685.47L240.29,688.01L240.75,691.83L243.5,699.98L268.66,699.98L269.75,698.19L273.43,691.83L275.27,686.74L278.49,686.1L282.63,684.19L284.47,684.19L285.39,689.92L286.31,692.46L288.16,695.01L291.84,698.82L294.07,699.98L800,699.98L800,686.78L798.59,684.83L794.91,681.65L788.46,677.83L786.62,675.93L777.88,665.75L774.19,663.84L770.05,658.12L766.83,653.03L760.39,640.94L757.62,637.13L752.56,633.31L749.8,632.04L746.12,631.4L745.2,626.31L746.58,623.77L747.04,621.22L746.12,614.23L745.2,611.05L742.44,607.87L737.83,603.41L733.23,600.23L731.39,597.69L727.71,595.15L722.18,595.15L718.5,591.33L716.66,587.51L710.68,576.7L707.46,557.62L708.38,553.8L710.22,547.44L711.14,542.99L710.68,539.81L709.3,535.36L707.46,533.45L705.61,532.17L703.77,531.54L701.47,532.17L698.25,534.08L695.95,539.17L694.57,544.9L693.19,547.44L691.35,551.89L690.89,557.62L691.35,561.43L691.35,564.61L692.27,574.79L693.19,577.34L692.73,580.52L686.74,583.06L684.9,584.33L681.22,587.51L680.3,589.42L679.38,592.6L679.84,594.51L681.68,597.69L682.6,604.05L680.3,607.23L679.84,609.14L680.3,612.96L683.06,618.04L685.36,621.22L691.35,626.31L699.63,633.31L701.47,633.95L703.77,633.31L711.14,628.86L714.82,636.49L716.2,642.21L720.34,648.57L723.1,651.12L724.95,656.84L726.79,659.39L728.63,660.66L732.77,661.93L734.61,665.11L736.91,666.38L739.21,667.02L738.75,675.93L739.21,679.74L740.13,683.56L741.06,691.19L745.66,696.28L749.34,697.55L756.24,699.46L757.75,699.98L696.53,699.98L695.95,697.55L695.03,695.64L697.79,691.83L698.25,689.28L698.25,679.74L699.63,677.2L700.09,675.29L699.63,672.11L698.25,668.29L698.25,665.11L697.79,659.39L695.95,654.94L693.19,651.76L687.66,646.03L684.9,644.76L682.14,644.12L679.84,644.76L673.86,647.94L675.24,645.39L676.62,643.49L677.08,640.94L676.16,636.49L673.86,632.04L667.41,624.4L662.35,615.5L655.45,609.14L649.92,602.14L647.62,600.23L637.96,598.33L632.89,598.33L629.21,601.51L624.61,602.14L622.31,601.51L620.01,602.14L616.78,604.05L614.94,605.96L607.58,610.41L606.2,609.78L601.14,604.05L596.99,601.51L595.61,599.6L590.55,594.51L578.58,586.24L568.92,581.15L564.77,579.24L566.16,574.16L566.16,569.07L568,564.61L569.38,563.34L572.14,559.53L573.06,556.98L573.98,549.35L573.52,546.8L572.14,544.9L569.84,543.62L570.76,539.17L570.76,534.08L569.38,529.63L567.08,527.09L571.22,527.09L576.74,526.45L578.58,525.18L579.96,523.27L580.42,521.36L578.58,503.55L577.66,498.46L580.42,498.46L582.26,497.19L594.69,481.92L596.53,480.65L601.14,477.47L612.18,486.38L615.4,487.65L617.7,487.01L623.23,483.2L632.43,470.47L636.12,471.75L639.34,472.38L643.02,471.11L644.86,469.84L649,464.75L654.53,457.12L655.91,455.84L658.21,455.21L660.97,457.12L665.11,457.12L666.95,455.84L671.1,451.39L675.24,445.67L683.52,434.85L685.36,432.95L689.97,429.77L696.87,424.04L701.01,420.86L702.39,418.95L702.85,417.04L702.39,414.5L699.17,408.77L697.33,404.32L695.03,403.05L691.81,402.41L688.12,402.41L683.52,399.87L678,399.23L676.62,397.32L669.25,392.24L665.11,390.33L660.97,388.42L658.67,387.78L654.53,388.42L651.76,390.96L649,389.69L644.86,390.33L640.26,387.78L637.04,387.15L633.35,384.6L629.67,383.97L623.69,384.6L620.01,381.42L615.86,376.97L609.88,369.97L603.9,361.7L611.26,359.79L613.1,358.52L614.94,354.71L616.78,345.8L617.7,342.62L617.7,338.17L615.4,329.9L611.26,321.63L608.96,319.08L607.12,317.81L603.44,317.81L600.67,314.63L598.83,313.36L597.45,304.45L596.07,302.54L595.15,298.73L591.93,289.19L589.63,282.19L587.33,272.65L580.88,251.02L576.28,236.39L571.22,223.67L568.46,219.21L566.62,217.94L563.39,217.3L559.25,217.94L556.95,217.3L545.44,219.85L543.14,221.12L539.92,221.76L534.4,223.67L521.97,227.48L519.21,217.3L516.91,214.12L515.07,209.03L513.22,205.85L507.7,201.4L508.16,195.68L507.24,186.13L509.08,184.86L510,182.95L510.46,181.04L510,177.86L519.21,174.05L527.03,172.14L528.87,170.87L530.25,168.96L530.71,167.05L529.33,163.23L530.25,160.69L529.79,158.14L528.41,156.87L525.19,154.33L521.05,153.69L515.99,153.69L506.78,156.87L502.64,158.14L498.5,158.14L487.45,158.14L484.23,157.51L479.17,151.78L476.86,147.33L473.18,142.88L468.58,138.42L467.2,135.24L465.36,128.25L463.98,125.06L461.22,121.25L447.87,112.34L443.73,107.25L437.28,96.44L435.44,92.62L430.38,84.99L428.54,81.81L428.54,76.08L427.16,72.9L424.39,70.36L422.09,69.08L415.65,68.45L406.9,69.72L402.3,72.26L398.62,73.54L396.78,74.81L393.1,67.18L390.33,64.63L388.03,63.99L383.89,65.27L380.21,58.27L377.45,50.64L376.07,45.55L377.91,34.73L377.91,27.73L376.53,21.37L376.53,18.83L381.13,15.65L383.89,15.01L386.65,11.83L388.95,7.38L390.33,-0.26L391.72,-12.34L390.79,-17.43L388.95,-21.25L387.11,-22.52L381.59,-23.8L376.53,-23.8L367.32,-26.34L365.02,-27.61L356.27,-29.52L353.05,-29.52L351.21,-28.25L348.91,-23.16L346.61,-22.52L341.55,-19.34L337.86,-16.8L335.56,-12.98L324.98,-16.16L321.29,-19.98L316.23,-23.8L311.17,-25.07L306.57,-24.43L304.27,-23.16L301.04,-20.62L297.36,-15.53L295.98,-7.26L296.44,-4.07L297.82,1.01L295.06,1.65L284.01,5.47L281.71,6.1L280.33,4.2L278.03,2.29L275.73,2.29L269.29,3.56L265.6,2.29L260.54,1.65L255.94,2.29L253.18,2.92L250.41,4.2L248.11,4.83L243.97,6.74L238.91,6.74L234.77,9.92L232.92,12.47L232.46,15.65L227.86,18.19L224.18,22.01L219.12,27.1L216.35,28.37L211.29,31.55L208.99,31.55L207.15,30.28L203.93,29.64L201.63,30.28L196.56,32.82L191.5,37.91L190.12,39.82L189.2,43L190.12,48.09L185.98,51.91L184.14,55.09L183.68,58.91L182.3,61.45L181.37,65.27L179.07,69.72L179.07,72.9L176.77,81.17L176.77,83.72L174.93,86.26L173.55,90.71L171.25,91.35L168.95,92.62L162.96,96.44L158.82,100.89L154.68,106.62L151.92,112.98L151.46,116.79L152.38,125.06L147.78,125.06L143.17,126.97L140.41,130.15L137.19,132.06L131.67,133.97L129.83,135.24L127.98,137.79L127.52,140.97L119.24,144.78L115.1,147.97L113.72,149.87L113.26,151.78L114.18,156.24L110.95,158.78L101.29,161.32L96.23,163.87L87.94,168.96L81.5,172.14L79.66,172.78L76.9,176.59L73.21,176.59L69.53,177.23L65.85,178.5L61.25,179.14L52.96,182.32L49.28,184.86L45.6,186.77L42.38,188.04L40.53,188.04L37.77,186.13L31.33,184.23L27.19,182.95L26.73,179.77L25.35,175.96L20.74,167.05L19.36,165.78L13.38,158.78L12,156.87L7.86,151.78L5.09,148.6L0,140.86L0,103.23L1.87,102.8L8.32,104.71L13.84,105.34L15.68,104.71L20.74,102.8L28.11,100.89L35.47,97.07L39.61,94.53L46.06,92.62L50.66,91.98L52.96,90.08L55.26,90.08L66.77,83.72L76.43,79.26L78.28,77.99L81.96,73.54L82.88,69.72L84.72,65.9L86.1,62.72L91.62,60.18L97.61,58.91L100.83,56.36L103.13,55.72L107.27,53.18L117.86,47.45L119.24,46.82L121.54,43.64L122,38.55L127.98,36.64L129.83,35.37L131.21,33.46L131.67,27.1L129.83,23.28L129.83,21.37L128.9,18.19L126.6,12.47L125.22,7.38L127.98,5.47L134.43,-0.26L142.25,-4.71L147.32,-7.26L150.08,-9.16L151.92,-12.34L156.06,-16.16L160.66,-17.43L163.42,-18.71L168.49,-21.89L169.41,-23.8L169.87,-26.34L171.71,-29.52L175.85,-33.97L177.23,-37.16L177.23,-42.88L179.53,-40.97L181.84,-40.97L189.66,-40.97L197.48,-42.24L202.09,-44.15L207.61,-42.88L214.51,-43.52L220.96,-45.43L226.48,-47.33L234.31,-48.61L237.07,-49.88L239.37,-52.42L245.35,-53.06L247.19,-53.7L249.95,-58.79L255.94,-61.97L257.32,-63.87L258.24,-67.06L259.16,-73.42L262.38,-79.14L262.38,-82.96L266.98,-85.5L268.36,-87.41L270.21,-95.68L270.67,-98.86L274.01,-100.02Z"/>

  <!-- minor streets -->
  <path fill="none" stroke="#D3CEC4" stroke-width="2" stroke-linejoin="round" stroke-linecap="round" d="M695.03,285.37L765.91,263.74L798.13,370.61L807.79,401.78L824.36,458.39L763.15,476.84L747.04,486.38L718.04,523.27L739.21,556.98L760.39,591.97L774.65,617.41L784.78,632.67L810.09,672.11L833.57,715.36L851.06,749.07"/>
  <path fill="none" stroke="#D3CEC4" stroke-width="2" stroke-linejoin="round" stroke-linecap="round" d="M681.68,239.57L752.56,218.58L765.91,263.74"/>
  <path fill="none" stroke="#D3CEC4" stroke-width="2" stroke-linejoin="round" stroke-linecap="round" d="M660.51,502.28L672.94,504.19L676.16,511.18L662.81,584.33L654.99,597.69L709.76,662.57L716.2,682.29L717.12,693.1L713.44,707.09L734.15,712.82L769.59,725.54L779.26,726.17"/>
  <path fill="none" stroke="#D3CEC4" stroke-width="2" stroke-linejoin="round" stroke-linecap="round" d="M565.69,525.81L566.62,541.72L569.38,544.9L572.14,525.81"/>
  <path fill="none" stroke="#D3CEC4" stroke-width="2" stroke-linejoin="round" stroke-linecap="round" d="M181.37,138.42L214.05,139.7L266.52,144.15L301.5,149.24L337.4,153.05L409.21,158.14L415.19,157.51L437.28,163.87L458.91,176.59L469.04,189.95L483.31,226.85L485.61,236.39L492.05,279.64L470.88,279.01L458.91,279.01L439.12,282.82L420.25,291.09L400,300L375.15,308.27L346.15,308.27L337.4,307.63L278.03,303.18L228.78,301.27L227.86,336.26L228.78,351.52L230.62,364.25L237.53,384.6L231.08,406.23"/>
  <path fill="none" stroke="#D3CEC4" stroke-width="2" stroke-linejoin="round" stroke-linecap="round" d="M446.49,110.43L436.36,91.98L604.36,44.27L622.31,37.91"/>
  <path fill="none" stroke="#D3CEC4" stroke-width="2" stroke-linejoin="round" stroke-linecap="round" d="M608.96,-7.26L465.82,34.73L419.79,62.09L436.36,91.98"/>
  <path fill="none" stroke="#D3CEC4" stroke-width="2" stroke-linejoin="round" stroke-linecap="round" d="M635.19,81.81L514.61,118.07"/>
  <path fill="none" stroke="#D3CEC4" stroke-width="2" stroke-linejoin="round" stroke-linecap="round" d="M666.49,-173.93L673.86,-147.85L700.09,-61.97L714.82,-13.62L732.77,49.36L765.91,163.23L738.75,171.5L752.56,218.58"/>
  <path fill="none" stroke="#D3CEC4" stroke-width="2" stroke-linejoin="round" stroke-linecap="round" d="M539.46,523.91L538.54,499.73L534.4,490.83L524.73,482.56L504.02,460.3L480.55,430.4L457.07,461.57L450.63,477.47L448.33,494.65L444.65,503.55"/>
  <path fill="none" stroke="#D3CEC4" stroke-width="2" stroke-linejoin="round" stroke-linecap="round" d="M633.35,513.09L628.75,497.83L607.58,478.11L573.06,451.39L550.51,429.77L539,414.5L514.61,375.06L511.38,376.33L480.55,430.4"/>
  <path fill="none" stroke="#D3CEC4" stroke-width="2" stroke-linejoin="round" stroke-linecap="round" d="M514.15,268.19L530.25,322.9L502.18,330.53L509.08,364.25L514.61,375.06"/>
  <path fill="none" stroke="#D3CEC4" stroke-width="2" stroke-linejoin="round" stroke-linecap="round" d="M706.54,323.54L665.11,336.26L650.84,287.91L610.8,299.36L610.34,295.55L567.08,151.15L527.03,162.6L492.51,172.14L479.17,173.41L446.49,165.14L437.28,163.87"/>
  <path fill="none" stroke="#D3CEC4" stroke-width="2" stroke-linejoin="round" stroke-linecap="round" d="M692.27,275.83L650.84,287.91L607.12,139.06L567.08,151.15"/>
  <path fill="none" stroke="#D3CEC4" stroke-width="2" stroke-linejoin="round" stroke-linecap="round" d="M100.83,52.54L128.44,105.98L137.65,111.07L141.33,103.44L150.54,76.08L155.14,66.54L178.15,37.91L208.07,9.92L231.54,-7.89L241.67,-12.98L237.07,-29.52L205.77,-23.16L189.2,-17.43L168.03,-5.35L129.37,22.64L110.49,30.28L62.17,44.91L32.71,50.64L82.42,149.24L121.08,128.88L137.65,111.07"/>
  <path fill="none" stroke="#D3CEC4" stroke-width="2" stroke-linejoin="round" stroke-linecap="round" d="M509.08,522L511.84,538.54L543.14,563.98L555.57,562.07L550.51,573.52L543.14,563.98"/>
  <path fill="none" stroke="#D3CEC4" stroke-width="2" stroke-linejoin="round" stroke-linecap="round" d="M194.26,392.87L188.28,415.13L178.15,426.58L133.51,439.94L125.68,440.58L103.59,436.76L98.07,429.13L93.92,415.13L95.31,378.24"/>
  <path fill="none" stroke="#D3CEC4" stroke-width="2" stroke-linejoin="round" stroke-linecap="round" d="M615.4,15.65L663.73,1.65L714.82,-13.62L763.61,-28.89L813.32,-44.15L864.87,-60.06"/>
  <path fill="none" stroke="#D3CEC4" stroke-width="2" stroke-linejoin="round" stroke-linecap="round" d="M667.87,193.13L692.27,185.5L716.2,178.5L738.75,171.5"/>
  <path fill="none" stroke="#D3CEC4" stroke-width="2" stroke-linejoin="round" stroke-linecap="round" d="M648.08,126.34L607.12,139.06"/>
  <path fill="none" stroke="#D3CEC4" stroke-width="2" stroke-linejoin="round" stroke-linecap="round" d="M587.79,-78.51L536.7,-47.33L487.45,-15.53L471.34,-65.78L454.77,-123.68L399.08,-107.13L387.11,-104.59L368.24,-105.86L365.02,-103.32L360.88,-74.05L360.42,-50.52L358.58,-38.43L350.29,-14.89L347.99,-2.8L347.07,15.65L349.37,38.55L352.59,56.36L365.94,81.17L410.59,146.06L415.19,157.51"/>
  <path fill="none" stroke="#D3CEC4" stroke-width="2" stroke-linejoin="round" stroke-linecap="round" d="M237.07,409.41L240.29,390.33L237.53,384.6"/>
  <path fill="none" stroke="#D3CEC4" stroke-width="2" stroke-linejoin="round" stroke-linecap="round" d="M568.92,-144.03L595.15,-152.3L616.78,-158.67L663.73,1.65L687.2,80.53L716.2,178.5"/>
  <path fill="none" stroke="#D3CEC4" stroke-width="2" stroke-linejoin="round" stroke-linecap="round" d="M583.18,284.1L590.55,304.45L610.8,299.36L622.77,341.98L626.45,347.07L665.11,336.26"/>
  <path fill="none" stroke="#D3CEC4" stroke-width="2" stroke-linejoin="round" stroke-linecap="round" d="M274.35,685.47L276.65,696.91L279.41,709L292.76,744.62L297.82,764.97"/>
  <path fill="none" stroke="#D3CEC4" stroke-width="2" stroke-linejoin="round" stroke-linecap="round" d="M133.51,814.58L116.94,758.61"/>
  <path fill="none" stroke="#D3CEC4" stroke-width="2" stroke-linejoin="round" stroke-linecap="round" d="M67.69,377.61L67.23,366.79L71.83,361.07L107.27,336.26L132.59,323.54L168.49,310.81L200.25,303.18L228.78,301.27L226.94,293L220.04,284.73L200.71,275.83L184.14,273.92L86.56,277.74L64.01,283.46L39.61,284.1L17.06,279.64L-19.76,268.19L-37.25,261.2L-62.1,248.47"/>
  <path fill="none" stroke="#D3CEC4" stroke-width="2" stroke-linejoin="round" stroke-linecap="round" d="M-49.68,-36.52L-44.61,-44.79L-31.27,-74.05L-15.62,-101.41L-4.57,-125.58L-2.27,-135.13L-3.19,-154.21L-11.02,-179.66"/>
  <path fill="none" stroke="#D3CEC4" stroke-width="2" stroke-linejoin="round" stroke-linecap="round" d="M682.6,483.83L678,476.2L670.63,461.57L643.48,441.85L632.89,434.85L609.88,417.04L585.95,394.78L570.3,371.88L563.85,354.71L553.73,316.54L562.93,313.36L568.46,305.73L568.46,303.82L527.03,162.6"/>
  <path fill="none" stroke="#D3CEC4" stroke-width="2" stroke-linejoin="round" stroke-linecap="round" d="M678.46,488.92L702.39,508L718.04,523.27"/>
  <path fill="none" stroke="#D3CEC4" stroke-width="2" stroke-linejoin="round" stroke-linecap="round" d="M721.26,371.88L695.49,378.88L684.44,381.42L660.05,378.24L645.32,373.15L633.81,362.97L626.45,347.07"/>
  <path fill="none" stroke="#D3CEC4" stroke-width="2" stroke-linejoin="round" stroke-linecap="round" d="M739.21,556.98L753.94,548.08L770.97,532.81L784.32,525.18L840.01,508.64L853.82,554.44"/>
  <path fill="none" stroke="#D3CEC4" stroke-width="2" stroke-linejoin="round" stroke-linecap="round" d="M853.82,554.44L796.29,571.61L760.39,591.97"/>
  <path fill="none" stroke="#D3CEC4" stroke-width="2" stroke-linejoin="round" stroke-linecap="round" d="M585.95,666.38L595.15,658.75L582.26,652.39L585.95,666.38L585.95,691.19L581.8,703.28L570.3,721.08L582.72,726.81L598.37,729.99L614.02,727.44L631.51,715.36L637.96,703.91L640.26,693.1L639.8,681.65L632.43,665.75L618.16,658.12L595.15,658.75"/>
  <path fill="none" stroke="#D3CEC4" stroke-width="2" stroke-linejoin="round" stroke-linecap="round" d="M349.37,38.55L326.36,37.91L347.07,15.65"/>
  <path fill="none" stroke="#D3CEC4" stroke-width="2" stroke-linejoin="round" stroke-linecap="round" d="M326.36,37.91L314.39,45.55L303.34,48.09L280.33,51.27L259.62,55.72L248.11,63.99L233.84,86.26L215.43,128.88L214.05,139.7"/>
  <path fill="none" stroke="#D3CEC4" stroke-width="2" stroke-linejoin="round" stroke-linecap="round" d="M233.84,86.26L264.68,133.97L266.52,144.15"/>
  <path fill="none" stroke="#D3CEC4" stroke-width="2" stroke-linejoin="round" stroke-linecap="round" d="M337.4,153.05L334.64,143.51L281.25,55.72L280.33,51.27"/>
  <path fill="none" stroke="#D3CEC4" stroke-width="2" stroke-linejoin="round" stroke-linecap="round" d="M388.49,16.92L389.41,32.19L397.7,60.18L402.3,66.54L419.79,62.09"/>
  <path fill="none" stroke="#D3CEC4" stroke-width="2" stroke-linejoin="round" stroke-linecap="round" d="M388.49,16.92L478.71,-10.44L487.45,-15.53"/>
  <path fill="none" stroke="#D3CEC4" stroke-width="2" stroke-linejoin="round" stroke-linecap="round" d="M305.19,-89.96L307.95,-83.6L305.65,-58.15L301.04,-47.97L287.7,-30.16L272.51,-19.98L241.67,-12.98"/>
  <path fill="none" stroke="#D3CEC4" stroke-width="2" stroke-linejoin="round" stroke-linecap="round" d="M82.42,149.24L54.8,161.96L40.07,165.78L30.87,164.51L15.22,151.78L-22.98,83.08L-23.44,74.81L-10.55,65.27L9.7,57L32.71,50.64"/>
  <path fill="none" stroke="#D3CEC4" stroke-width="2" stroke-linejoin="round" stroke-linecap="round" d="M388.49,-41.61L387.57,8.01L388.49,16.92"/>
  <path fill="none" stroke="#D3CEC4" stroke-width="2" stroke-linejoin="round" stroke-linecap="round" d="M654.99,597.69L631.51,583.06L602.52,574.79L589.17,567.79L569.38,544.9L555.57,562.07"/>
  <path fill="none" stroke="#D3CEC4" stroke-width="2" stroke-linejoin="round" stroke-linecap="round" d="M582.26,652.39L574.9,640.94L556.03,604.05L552.35,593.87L550.51,573.52"/>
  <path fill="none" stroke="#D3CEC4" stroke-width="2" stroke-linejoin="round" stroke-linecap="round" d="M502.18,330.53L496.66,297.46L492.05,279.64"/>
  <path fill="none" stroke="#D3CEC4" stroke-width="2" stroke-linejoin="round" stroke-linecap="round" d="M125.68,440.58L109.11,448.21L102.21,444.4L103.59,436.76"/>
  <path fill="none" stroke="#D3CEC4" stroke-width="2" stroke-linejoin="round" stroke-linecap="round" d="M360.88,-74.05L388.03,-70.24L389.87,-65.15L388.49,-41.61L471.34,-65.78"/>
  <path fill="none" stroke="#D3CEC4" stroke-width="2" stroke-linejoin="round" stroke-linecap="round" d="M237.07,-29.52L248.57,-33.97L265.6,-47.33L288.16,-79.78L305.19,-89.96L324.06,-98.86L338.32,-103.95L362.72,-105.86L365.02,-103.32"/>
  <path fill="none" stroke="#D3CEC4" stroke-width="2" stroke-linejoin="round" stroke-linecap="round" d="M793.06,154.96L815.16,147.33"/>
  <path fill="none" stroke="#D3CEC4" stroke-width="2" stroke-linejoin="round" stroke-linecap="round" d="M553.73,316.54L530.25,322.9"/>

  <!-- major streets -->
  <path fill="none" stroke="#B8B2A7" stroke-width="3.5" stroke-linejoin="round" stroke-linecap="round" d="M860.72,385.87L807.79,401.78L774.19,412.59L738.29,425.31L718.5,438.67L701.47,460.3L682.6,483.83L678.46,488.92L660.51,502.28L633.35,513.09L621.39,516.27L586.87,524.54L565.69,525.81L539.46,523.91L509.08,522L485.61,518.82L462.14,511.82L425.77,494.65L416.57,490.19L296.44,435.49L260.54,418.95L237.07,409.41L231.08,406.23L194.26,392.87L148.7,383.97L95.31,378.24L67.69,377.61L52.5,379.51L33.63,385.24L-71.31,416.41"/>
  <path fill="none" stroke="#B8B2A7" stroke-width="3.5" stroke-linejoin="round" stroke-linecap="round" d="M738.29,425.31L727.71,392.87L681.68,239.57L671.1,203.95L667.87,193.13L568.92,-144.03L565.23,-156.12L560.63,-171.39"/>

  <!-- buried streams (culverted / underground) -->
  <path fill="none" stroke="#3994C1" stroke-width="1" stroke-linejoin="round" stroke-linecap="round" stroke-dasharray="5,4" d="M205.77,529.63L222.34,532.17"/>

  <!-- buried rivers (culverted / underground) -->
  <!-- buried rivers: none in view -->

  <!-- streams -->
  <path fill="none" stroke="#3994C1" stroke-width="1.25" stroke-linejoin="round" stroke-linecap="round" d="M69.99,-55.6L69.07,-18.71"/>
  <path fill="none" stroke="#3994C1" stroke-width="1.25" stroke-linejoin="round" stroke-linecap="round" d="M322.68,-144.03L303.34,-138.31L283.09,-149.12L257.32,-148.49L243.05,-140.22L188.28,-93.14L162.04,-83.6L141.79,-89.96L122,-73.42L110.95,-76.6L100.37,-56.24L101.75,-39.06L93.46,-25.7L69.07,-18.71"/>
  <path fill="none" stroke="#3994C1" stroke-width="1.25" stroke-linejoin="round" stroke-linecap="round" d="M86.56,608.5L108.19,571.61"/>
  <path fill="none" stroke="#3994C1" stroke-width="1.25" stroke-linejoin="round" stroke-linecap="round" d="M113.26,566.52L122.92,555.71"/>
  <path fill="none" stroke="#3994C1" stroke-width="1.25" stroke-linejoin="round" stroke-linecap="round" d="M332.8,505.46L305.19,538.54L299.66,552.53L300.58,583.7L309.33,611.05"/>
  <path fill="none" stroke="#3994C1" stroke-width="1.25" stroke-linejoin="round" stroke-linecap="round" d="M95.31,541.08L122.92,555.71"/>
  <path fill="none" stroke="#3994C1" stroke-width="1.25" stroke-linejoin="round" stroke-linecap="round" d="M122.92,555.71L185.98,533.45L205.77,529.63"/>
  <path fill="none" stroke="#3994C1" stroke-width="1.25" stroke-linejoin="round" stroke-linecap="round" d="M222.34,532.17L272.05,548.08L299.66,552.53"/>
  <path fill="none" stroke="#3994C1" stroke-width="1.25" stroke-linejoin="round" stroke-linecap="round" d="M69.07,-18.71L50.66,-6.62L22.12,-4.71"/>
  <path fill="none" stroke="#3994C1" stroke-width="1.25" stroke-linejoin="round" stroke-linecap="round" d="M309.33,611.05L332.8,642.21L361.8,651.12"/>

  <!-- rivers -->
  <path fill="none" stroke="#3994C1" stroke-width="2" stroke-linejoin="round" stroke-linecap="round" d="M361.34,544.26L354.89,564.61L353.97,622.5L361.8,651.12L370.08,666.38L402.3,703.28L436.82,773.88"/>
  <path fill="none" stroke="#3994C1" stroke-width="2" stroke-linejoin="round" stroke-linecap="round" d="M44.22,-171.39L47.9,-146.58L33.17,-86.78L-4.11,-46.06L-34.95,-22.52L-84.2,34.09"/>
  <path fill="none" stroke="#3994C1" stroke-width="2" stroke-linejoin="round" stroke-linecap="round" d="M-48.3,228.75L6.47,243.39L64.47,245.29L120.62,255.47L176.31,255.47L278.49,237.02L327.74,236.39L367.78,245.29L394.02,257.38L421.63,286.64L444.19,341.98L446.03,377.61L439.12,399.87L423.01,420.86L391.72,479.38"/>
  <path fill="none" stroke="#3994C1" stroke-width="2" stroke-linejoin="round" stroke-linecap="round" d="M391.72,479.38L377.91,502.28L361.34,544.26"/>

  <!-- outside-survey wash (paper fill beyond municipal boundary) -->
  <!-- outside mask: none in view -->

  <!-- toronto municipal boundary (solid hairline, consistent with island map) -->
  <!-- boundary: none in view -->

  <!-- threshold marker -->
  <circle cx="401.5" cy="302" r="16" fill="#00000026" filter="url(#mshad)"/>
  <circle cx="400" cy="300" r="16" fill="#DE3A11" stroke="#27241D" stroke-width="1.5"/>
  <circle cx="400" cy="300" r="5" fill="#FFFFFF"/>

  <!-- scale bar: 200m -->
  <g fill="none" stroke="#857F72" stroke-width="1.25" stroke-linecap="round">
    <line x1="20" y1="578" x2="134.29" y2="578"/>
    <line x1="20" y1="572" x2="20" y2="578"/>
    <line x1="134.29" y1="572" x2="134.29" y2="578"/>
  </g>
  <text x="77.14" y="569" fill="#857F72" font-size="10" text-anchor="middle">200m</text>

  <!-- north indicator (halo keeps it visible over street linework) -->
  <circle cx="768" cy="36" r="22" fill="#FAF6EC" fill-opacity="0.9" stroke="#857F72" stroke-opacity="0.3" stroke-width="1"/>
  <g fill="#857F72" stroke="#857F72" stroke-width="2">
    <line x1="768" y1="42" x2="768" y2="24" stroke-linecap="round"/>
    <polygon points="768,16 762.5,27 773.5,27" stroke-width="1" stroke-linejoin="round"/>
  </g>
  <text x="768" y="55" fill="#857F72" font-size="13" text-anchor="middle" font-weight="700">N</text>
</svg>