<svg xmlns="http://www.w3.org/2000/svg" viewBox="0 0 800 600" width="800" height="600">
  <defs>
    <filter id="mshad" x="-40%" y="-40%" width="180%" height="180%">
      <feDropShadow dx="1.5" dy="2" stdDeviation="2.5" flood-color="#00000033"/>
    </filter>
    <style>text { font-family: Archivo, sans-serif; }</style>
  </defs>

  <!-- background -->
  <rect width="800" height="600" fill="#FAF6EC"/>

  <!-- lake ontario -->
  <!-- lake: none in view -->

  <!-- ESA (environmentally sensitive areas) -->
  <path fill="#147D64" fill-opacity="0.85" stroke="#0C6B58" stroke-width="1" stroke-linejoin="round" stroke-linecap="round" d="M499.82,306.36L480.5,300L476.36,290.46L469.92,282.82L464.86,282.82L450.14,287.28L429.9,291.73L411.5,297.46L402.3,305.09L395.4,307L380.22,306.36L372.86,309.54L374.7,320.99L373.78,333.71L377.46,338.17L385.74,341.98L416.56,348.34L427.14,355.98L446.46,364.25L468.08,371.24L477.28,375.06L489.24,378.24L506.72,377.61L520.06,379.51L530.18,383.33L534.78,389.05L553.19,401.14L562.39,406.23L573.89,407.5L585.39,399.87L598.27,400.5L604.71,405.59L606.55,411.32L610.69,413.86L626.33,415.13L637.83,414.5L644.27,425.95L653.47,453.94L661.75,465.39L678.77,462.84L693.95,469.2L704.07,469.84L717.41,478.74L720.63,483.83L733.05,489.56L746.39,492.74L751.91,488.29L756.05,489.56L768.47,498.46L774.91,501.01L784.57,498.46L799.29,498.46L800,454.5L794.23,449.48L787.79,436.13L779.97,431.04L770.77,429.77L765.25,423.4L762.49,407.5L762.03,390.96L753.75,389.69L747.77,392.24L735.35,393.51L726.61,400.5L711.43,403.69L700.39,408.14L703.15,416.41L709.13,422.13L710.97,432.31L693.95,429.13L679.23,422.77L667.27,413.23L651.63,399.23L635.99,396.05L625.87,395.42L616.67,368.06L613.45,356.61L602.87,320.99L600.57,320.36L590.91,325.44L569.75,330.53L561.01,329.9L548.58,325.44L535.24,324.81L530.64,321.63L528.8,310.18L530.18,300.64L527.42,298.73L515.46,302.54L508.1,307L499.82,306.36Z"/>

  <!-- ravine / landscape -->
  <path fill="#147D64" fill-opacity="0.95" stroke="#0C6B58" stroke-width="1.5" stroke-linejoin="round" stroke-linecap="round" d="M0,-100.02L0,-96.49L10.37,-89.32L18.19,-84.87L32.91,-76.6L41.65,-72.15L49.47,-68.33L59.13,-63.24L71.09,-57.51L78.45,-53.7L86.73,-51.15L95.01,-50.52L101.91,-50.52L109.73,-50.52L118.01,-51.79L125.83,-53.06L131.35,-54.33L134.57,-56.88L135.95,-58.79L136.87,-62.6L136.41,-64.51L131.81,-81.05L135.03,-81.69L137.79,-79.78L142.85,-77.23L146.99,-77.23L152.97,-77.87L156.19,-74.69L161.71,-72.15L163.55,-70.24L170.45,-65.78L174.59,-63.87L178.73,-60.69L184.25,-58.15L191.61,-55.6L212.31,-46.7L217.83,-42.88L216.91,-39.7L214.61,-33.34L214.15,-31.43L214.61,-26.98L215.53,-23.16L219.67,-18.07L225.65,-14.25L227.95,-13.62L236.23,-12.98L239.91,-11.07L242.21,-7.89L246.35,-4.07L250.04,-3.44L255.1,-4.07L256.94,-0.89L258.32,2.92L262.92,7.38L267.06,8.01L270.74,7.38L275.8,5.47L276.72,7.38L274.88,11.19L274.42,15.01L273.04,18.83L272.58,22.01L273.5,27.73L275.34,33.46L280.4,46.82L284.08,57L287.3,63.99L287.76,68.45L290.98,81.81L292.82,86.9L296.96,92.62L303.86,100.89L308.46,110.43L310.3,112.34L314.44,115.52L317.2,116.16L320.88,116.79L325.94,116.16L331,113.61L335.14,111.71L337.44,111.07L340.2,111.71L345.26,116.16L349.86,116.79L353.08,115.52L356.76,112.98L357.68,111.07L359.06,107.25L362.74,101.53L365.04,99.62L366.42,97.07L366.88,91.98L366.42,88.8L363.2,81.17L361.82,75.45L360.44,72.26L357.68,69.08L355.38,60.18L353.08,56.36L349.86,48.09L347.1,43L344.8,39.18L341.58,33.46L342.5,30.28L342.04,26.46L339.74,23.92L339.28,19.46L339.74,17.55L345.26,2.92L348.02,-0.89L354,-5.35L376.54,-12.98L383.44,-15.53L388.04,-16.8L389.88,-18.07L391.26,-19.98L392.18,-25.07L390.34,-33.97L394.02,-35.25L399.08,-37.16L401.84,-38.43L409.2,-44.79L411.96,-46.06L414.72,-47.97L416.56,-51.15L417.02,-54.33L420.24,-56.88L424.84,-63.24L427.6,-67.06L430.36,-70.87L432.66,-72.15L435.42,-74.05L436.8,-75.96L440.94,-78.51L445.54,-86.14L448.3,-88.05L450.14,-91.23L451.98,-95.68L454.74,-99.5L411.4,-100.02L411.04,-95.05L405.98,-94.41L402.76,-92.5L396.32,-86.78L391.72,-83.6L384.82,-80.42L374.7,-77.87L372.4,-75.96L366.42,-74.05L361.36,-73.42L349.86,-70.24L346.18,-68.96L336.98,-66.42L329.62,-64.51L328.24,-68.33L326.86,-70.24L324.1,-72.15L321.34,-72.78L316.28,-72.78L311.68,-71.51L308.46,-70.24L304.32,-70.87L302.02,-70.87L300.64,-76.6L298.34,-79.78L296.5,-81.05L293.28,-81.69L287.76,-80.42L285.92,-79.14L279.94,-77.87L263.38,-72.78L257.4,-89.32L256.48,-92.5L254.64,-95.68L253.26,-96.96L254.14,-100.02Z"/>
  <path fill="#147D64" fill-opacity="0.95" stroke="#0C6B58" stroke-width="1.5" stroke-linejoin="round" stroke-linecap="round" d="M354,690.55L350.32,689.28L343.88,690.55L340.2,691.83L337.44,697.55L331.46,698.82L321.8,698.82L318.03,699.98L282.1,699.98L285.92,696.28L286.84,692.46L286.38,690.55L283.16,686.1L281.32,682.92L279.48,681.65L272.12,679.74L266.14,680.38L259.7,680.38L256.02,681.01L252.34,681.01L242.21,678.47L240.83,677.83L239.91,675.93L237.61,674.65L230.71,675.93L229.33,674.02L229.33,670.2L228.87,666.38L227.95,662.57L222.89,646.67L222.43,644.76L222.43,627.58L221.51,619.32L219.67,612.32L218.29,611.05L214.15,606.59L210.93,600.87L206.79,594.51L208.63,592.6L210.01,588.78L210.01,584.33L209.09,580.52L206.79,576.06L205.87,574.16L203.11,572.25L198.51,571.61L194.37,570.98L191.15,569.07L188.39,568.43L185.63,568.43L181.49,570.34L179.65,571.61L177.81,574.16L173.21,574.79L170.91,576.7L168.61,575.43L164.47,575.43L159.41,576.7L157.11,579.88L156.65,583.06L157.57,586.88L158.03,590.69L159.87,593.87L163.09,597.05L172.29,602.14L174.59,602.78L178.27,602.78L181.49,608.5L182.87,614.23L183.79,616.14L192.07,624.4L191.61,628.22L187.01,625.04L184.25,625.04L181.49,625.04L177.81,626.95L171.83,631.4L169.99,633.95L169.53,637.76L172.29,644.12L173.67,648.57L167.69,651.75L165.85,653.03L161.25,662.57L160.79,666.38L161.71,670.84L163.55,674.02L167.69,677.2L171.37,679.11L174.13,679.74L169.53,684.19L164.01,687.37L161.25,689.28L159.87,691.19L159.41,693.73L159.87,696.28L161.25,698.19L164.49,699.98L713.02,699.98L715.11,698.82L719.25,694.37L722.47,693.73L752.83,682.29L779.51,672.11L781.35,670.84L782.73,668.93L781.35,661.3L785.95,658.12L789.17,656.21L793.77,653.66L799.75,651.12L800,382.11L797.45,382.69L794.23,385.87L791.01,385.24L785.49,386.51L779.97,389.69L777.67,392.24L776.29,394.78L775.83,399.23L775.83,402.41L777.21,406.87L776.75,410.05L770.77,410.68L768.93,409.41L766.17,405.59L763.87,404.32L764.79,401.14L764.33,397.32L762.95,395.42L760.19,393.51L757.43,392.87L751.91,392.87L750.07,392.87L744.55,391.6L739.49,391.6L737.19,389.69L733.05,387.78L730.75,380.79L726.61,373.15L723.85,369.97L722.01,368.7L716.95,368.06L714.19,367.43L703.15,362.97L699.93,360.43L696.25,354.07L685.67,334.35L683.37,331.17L679.69,326.08L676.47,323.54L670.03,319.72L666.35,318.45L659.91,317.18L650.71,316.54L637.37,315.9L634.61,315.27L630.47,311.45L626.33,311.45L619.43,314.63L611.15,316.54L608.39,319.08L607.01,318.45L601.49,317.18L596.43,317.81L591.83,319.72L588.15,320.36L580.79,320.99L568.37,323.54L559.17,314.63L557.33,313.99L553.19,312.72L547.66,308.27L543.52,307L539.38,307L534.78,298.73L530.64,295.55L526.96,294.27L520.06,294.91L513.62,296.82L504.88,299.36L499.82,296.18L491.54,292.37L489.24,291.73L485.1,293L481.88,284.73L479.58,279.01L477.28,275.83L475.44,274.56L473.6,273.92L465.32,275.83L457.96,278.37L455.2,279.01L451.52,280.92L445.08,283.46L440.02,284.1L425.76,287.91L420.7,289.19L410.58,292.37L405.06,293.64L402.76,294.91L397.24,300L394.94,300.64L388.04,300.64L381.6,301.91L378.84,301.91L373.78,302.54L371.94,303.82L370.56,306.36L368.26,307.63L367.34,309.54L366.42,312.09L367.34,314.63L369.64,317.81L371.02,320.36L372.4,325.44L372.86,332.44L373.78,335.62L375.62,338.8L378.38,340.71L386.66,345.16L392.64,346.44L395.4,348.34L400.46,351.52L403.22,353.43L405.98,354.71L409.2,354.71L414.72,356.61L421.16,359.79L424.38,361.7L429.44,362.34L433.12,363.61L437.72,364.88L441.86,364.25L443.24,370.61L445.54,373.79L447.38,375.06L457.04,376.97L474.98,385.24L478.2,387.78L489.24,392.87L503.04,396.05L512.7,396.69L529.72,398.6L535.24,399.23L539.38,403.69L542.6,405.59L553.65,410.68L557.33,411.32L563.31,413.23L570.67,412.59L574.35,420.22L578.03,424.04L578.95,426.58L582.63,429.77L585.85,430.4L595.05,428.49L595.97,432.95L597.81,439.31L599.19,442.49L601.95,448.21L605.63,451.39L608.85,452.66L610.23,455.21L612.53,457.75L615.29,462.84L617.13,464.75L619.43,466.66L621.73,466.66L624.95,466.02L635.53,462.84L641.05,466.02L644.73,467.29L650.25,467.29L651.63,466.02L653.47,469.84L656.23,471.75L659.45,472.38L664.05,471.75L666.81,470.47L671.41,469.84L675.09,470.47L680.61,472.38L687.05,471.11L689.81,473.02L692.11,474.29L694.87,474.29L697.17,478.11L701.77,480.02L705.91,483.83L708.21,483.83L711.43,483.2L713.73,481.29L715.11,481.29L718.33,487.01L720.63,489.56L731.67,496.55L738.57,498.46L741.79,499.73L754.67,503.55L762.49,502.28L765.71,502.28L768.01,503.55L772.15,506.1L775.37,507.37L778.13,508L784.57,506.73L789.63,504.19L793.31,505.46L800,506.2L800,588.68L797.91,593.87L792.39,594.51L789.17,596.42L787.79,598.33L786.87,602.14L786.87,604.69L787.79,610.41L780.89,612.96L775.83,615.5L774.45,618.04L773.99,620.59L774.45,623.13L768.01,625.68L764.79,626.31L761.57,629.49L758.35,630.77L756.05,633.31L754.67,635.85L750.99,633.95L748.69,633.95L745.01,635.22L742.25,637.13L739.49,640.31L736.73,642.21L734.43,642.21L730.75,642.85L725.69,646.67L719.71,654.3L715.11,656.84L712.81,659.39L710.51,660.02L707.29,661.93L704.07,667.66L700.39,666.38L696.71,667.66L692.11,668.29L687.97,669.56L682.91,672.74L678.77,674.02L667.73,677.83L666.81,675.93L666.35,672.74L664.97,670.84L663.13,669.56L659.91,668.93L649.79,670.2L645.65,670.84L643.81,672.11L641.51,675.29L640.59,678.47L636.45,679.11L634.15,680.38L631.39,680.38L623.11,683.56L619.89,677.2L610.23,652.39L607.93,644.76L606.55,642.85L604.71,641.58L602.41,640.94L597.81,642.21L595.97,643.49L594.13,646.03L593.67,648.57L590.91,646.03L587.23,645.39L584.01,646.03L581.71,647.94L579.87,650.48L578.03,654.94L572.51,658.75L570.67,661.93L569.29,666.38L569.75,670.2L572.05,675.29L576.19,677.2L578.49,684.19L581.71,692.46L584.47,696.28L579.87,697.55L574.81,696.91L571.13,697.55L562.85,696.28L558.25,695.01L552.73,695.64L549.96,694.37L546.28,694.37L540.76,695.64L536.16,694.37L532.94,694.37L530.18,695.01L520.06,695.64L518.68,694.37L514.54,694.37L511.78,692.46L508.56,691.83L502.12,693.1L494.3,692.46L492,693.1L485.1,695.01L483.26,694.37L480.5,693.73L477.28,693.73L472.68,696.28L469.92,695.01L464.86,695.64L458.88,696.28L454.28,693.73L450.14,693.1L447.84,693.1L446,691.83L443.24,691.19L434.5,691.83L430.82,692.46L423,689.92L418.86,688.65L416.1,688.01L411.04,684.83L406.44,683.56L402.3,682.92L399.08,683.56L397.24,681.65L393.1,681.65L389.42,682.29L387.58,683.56L386.66,685.47L386.2,687.37L387.12,692.46L381.14,693.73L373.32,695.01L371.94,694.37L370.1,688.65L368.26,685.47L366.42,684.19L364.12,683.56L358.6,685.47L356.76,686.74L354,690.55Z"/>

  <!-- minor streets -->
  <path fill="none" stroke="#D3CEC4" stroke-width="2" stroke-linejoin="round" stroke-linecap="round" d="M-62.78,8.01L6.23,47.45L27.39,58.91L37.51,65.9L57.29,90.71L67.41,110.43L76.15,137.79L81.21,153.05L89.49,181.04L109.27,249.11L51.31,266.29L74.77,344.53L82.59,373.79"/>
  <path fill="none" stroke="#D3CEC4" stroke-width="2" stroke-linejoin="round" stroke-linecap="round" d="M323.64,580.52L261.08,598.96L285.46,683.56L294.66,690.55L330.54,684.19L335.6,677.83L331.92,654.3L321.8,617.41L324.1,611.68L331.92,609.78"/>
  <path fill="none" stroke="#D3CEC4" stroke-width="2" stroke-linejoin="round" stroke-linecap="round" d="M308,525.81L268.9,536.63L72.01,593.24L77.07,615.5L73.39,617.41L25.09,630.77L17.27,604.69L17.27,596.42L11.75,577.34"/>
  <path fill="none" stroke="#D3CEC4" stroke-width="2" stroke-linejoin="round" stroke-linecap="round" d="M290.98,464.75L241.29,479.38L55.45,532.81L57.75,541.08L63.73,562.71L72.01,593.24"/>
  <path fill="none" stroke="#D3CEC4" stroke-width="2" stroke-linejoin="round" stroke-linecap="round" d="M313.06,543.62L366.42,528.36L393.1,624.4L397.7,638.4L403.22,654.3L408.74,661.93L420.24,671.47L428.06,674.65L446,677.2L476.36,669.56"/>
  <path fill="none" stroke="#D3CEC4" stroke-width="2" stroke-linejoin="round" stroke-linecap="round" d="M196.21,343.26L188.39,315.9L135.95,137.79L81.21,153.05"/>
  <path fill="none" stroke="#D3CEC4" stroke-width="2" stroke-linejoin="round" stroke-linecap="round" d="M532.02,291.09L521.9,259.29"/>
  <path fill="none" stroke="#D3CEC4" stroke-width="2" stroke-linejoin="round" stroke-linecap="round" d="M340.2,638.4L393.1,624.4"/>
  <path fill="none" stroke="#D3CEC4" stroke-width="2" stroke-linejoin="round" stroke-linecap="round" d="M357.22,298.09L362.74,305.73L368.72,318.45L368.72,327.99L359.52,345.16L362.28,358.52L368.26,365.52L387.58,373.15L393.56,375.7L400.92,378.24L398.62,385.87L402.3,401.78L433.12,509.91L502.58,491.47L482.8,419.59L482.34,414.5L475.44,407.5L400.92,378.24"/>
  <path fill="none" stroke="#D3CEC4" stroke-width="2" stroke-linejoin="round" stroke-linecap="round" d="M918.9,448.21L841.61,438.67L822.29,431.67L805.73,413.23L787.79,373.79L785.49,368.7L734.43,195.68L731.67,186.77L694.87,58.91L659.45,-65.78L664.05,-70.87L730.29,-89.32L766.63,38.55L839.31,19.46L874.74,146.69"/>
  <path fill="none" stroke="#D3CEC4" stroke-width="2" stroke-linejoin="round" stroke-linecap="round" d="M528.8,249.11L519.14,212.85L490.16,115.52L435.42,129.52L362.28,147.33L319.04,158.78L293.74,165.14L285,133.33L275.8,103.44L192.99,127.61"/>
  <path fill="none" stroke="#D3CEC4" stroke-width="2" stroke-linejoin="round" stroke-linecap="round" d="M-48.05,-60.69L-43.45,-50.52L11.75,-18.07L36.13,-4.07L32.45,2.29L109.27,46.18L158.03,74.81L165.39,77.99L177.35,74.17L166.31,70.99L106.05,36.64L109.27,46.18L112.95,60.81L135.95,137.79"/>
  <path fill="none" stroke="#D3CEC4" stroke-width="2" stroke-linejoin="round" stroke-linecap="round" d="M872.9,-129.4L802.05,-110.32L839.31,19.46L910.16,-1.53"/>
  <path fill="none" stroke="#D3CEC4" stroke-width="2" stroke-linejoin="round" stroke-linecap="round" d="M293.74,-48.61L285,-83.6L292.36,-85.5L313.52,-84.23L367.8,-100.14L382.06,-103.95L396.78,-111.59L406.9,-123.04L418.4,-145.31L422.08,-165.66"/>
  <path fill="none" stroke="#D3CEC4" stroke-width="2" stroke-linejoin="round" stroke-linecap="round" d="M394.02,-165.03L368.26,-161.21L351.24,-156.12L367.8,-100.14"/>
  <path fill="none" stroke="#D3CEC4" stroke-width="2" stroke-linejoin="round" stroke-linecap="round" d="M26.47,387.78L20.95,366.79L-4.81,281.55L51.31,266.29L19.11,154.33L-3.89,73.54L-4.35,67.81L6.23,47.45L32.45,2.29L12.67,-10.44L-46.21,-44.79"/>
  <path fill="none" stroke="#D3CEC4" stroke-width="2" stroke-linejoin="round" stroke-linecap="round" d="M33.83,766.24L65.11,756.7L70.17,747.16L53.61,685.47L43.49,680.38L2.09,692.46L7.61,712.82L10.37,729.35L14.51,750.98L25.09,789.14"/>
  <path fill="none" stroke="#D3CEC4" stroke-width="2" stroke-linejoin="round" stroke-linecap="round" d="M543.06,401.14L488.32,414.5L482.34,414.5"/>
  <path fill="none" stroke="#D3CEC4" stroke-width="2" stroke-linejoin="round" stroke-linecap="round" d="M802.97,167.05L766.63,38.55L694.87,58.91L625.87,77.35L540.3,99.62L547.66,123.16L560.55,169.59L567.91,192.5L580.33,232.57L582.17,236.39L584.01,240.84L593.21,268.19L600.11,289.19L618.05,350.89L635.99,410.05L638.75,418.32L632.31,420.22L597.81,420.86L562.85,424.68L608.85,581.15L680.61,560.16L691.19,595.78L689.35,604.69L687.05,606.59L623.57,628.86L608.85,581.15"/>
  <path fill="none" stroke="#D3CEC4" stroke-width="2" stroke-linejoin="round" stroke-linecap="round" d="M786.87,529.63L811.25,533.45"/>
  <path fill="none" stroke="#D3CEC4" stroke-width="2" stroke-linejoin="round" stroke-linecap="round" d="M434.96,-78.51L444.62,-44.15L435.88,-53.06L419.32,-62.6"/>
  <path fill="none" stroke="#D3CEC4" stroke-width="2" stroke-linejoin="round" stroke-linecap="round" d="M401.84,13.1L456.12,-2.8L511.78,-18.71L536.62,-26.34L603.79,-45.43L655.31,-62.6L659.45,-65.78L630.47,-161.85L565.61,-143.4L481.88,-118.59L496.6,-68.33L511.78,-18.71L516.38,17.55L522.82,37.91L535.24,80.53L540.3,99.62L490.16,115.52"/>
  <path fill="none" stroke="#D3CEC4" stroke-width="2" stroke-linejoin="round" stroke-linecap="round" d="M581.25,640.31L540.3,632.04L537.08,635.85L545.82,667.02L544.44,675.29L533.86,677.83L503.04,672.11L497.52,669.56"/>
  <path fill="none" stroke="#D3CEC4" stroke-width="2" stroke-linejoin="round" stroke-linecap="round" d="M275.34,410.68L328.24,396.05L366.42,528.36L433.12,509.91L455.66,587.51L461.64,590.06L476.36,586.24L481.88,589.42L491.54,623.13L540.3,632.04L542.14,627.58L502.58,491.47"/>
  <path fill="none" stroke="#D3CEC4" stroke-width="2" stroke-linejoin="round" stroke-linecap="round" d="M637.83,6.1L607.93,15.01L625.87,77.35L644.73,146.06L664.05,207.76"/>
  <path fill="none" stroke="#D3CEC4" stroke-width="2" stroke-linejoin="round" stroke-linecap="round" d="M399.54,-80.42L389.88,-90.59L382.06,-103.95"/>
  <path fill="none" stroke="#D3CEC4" stroke-width="2" stroke-linejoin="round" stroke-linecap="round" d="M13.13,390.33L17.27,404.96L22.79,423.4L30.15,448.21L38.43,476.84L44.41,474.93L250.04,416.41L232.55,397.96L221.51,389.69L190.69,369.97L174.13,358.52L167.69,355.98L162.17,352.8L143.31,331.17L131.81,317.18L127.21,307L119.85,282.82L109.27,249.11"/>
  <path fill="none" stroke="#D3CEC4" stroke-width="2" stroke-linejoin="round" stroke-linecap="round" d="M417.02,65.27L514.08,37.91L522.82,37.91L607.93,15.01"/>
  <path fill="none" stroke="#D3CEC4" stroke-width="2" stroke-linejoin="round" stroke-linecap="round" d="M281.78,433.58L271.66,436.13L264.76,432.31L275.8,445.67L289.6,460.3"/>
  <path fill="none" stroke="#D3CEC4" stroke-width="2" stroke-linejoin="round" stroke-linecap="round" d="M306.62,321.63L328.24,396.05L382.06,381.42L387.58,373.15"/>
  <path fill="none" stroke="#D3CEC4" stroke-width="2" stroke-linejoin="round" stroke-linecap="round" d="M474.52,263.11L476.36,259.92L472.22,244.02L458.88,200.76L439.56,133.33L435.42,129.52L431.74,126.34L422.54,97.71L414.26,90.71L418.4,82.44L422.54,97.71"/>
  <path fill="none" stroke="#D3CEC4" stroke-width="2" stroke-linejoin="round" stroke-linecap="round" d="M755.59,593.24L768.93,588.78L775.83,578.61L774.91,571.61L759.27,525.18L746.85,513.73L720.63,509.28L699.01,501.01L686.13,492.1L675.09,490.83L661.29,494.01L680.61,560.16"/>
  <path fill="none" stroke="#D3CEC4" stroke-width="2" stroke-linejoin="round" stroke-linecap="round" d="M276.26,25.82L255.56,32.82L248.65,13.74L238.99,3.56L219.67,-0.89L192.53,9.28L161.25,18.19"/>
  <path fill="none" stroke="#D3CEC4" stroke-width="2" stroke-linejoin="round" stroke-linecap="round" d="M606.55,-99.5L496.6,-68.33"/>
  <path fill="none" stroke="#D3CEC4" stroke-width="2" stroke-linejoin="round" stroke-linecap="round" d="M247.73,602.78L261.08,598.96"/>
  <path fill="none" stroke="#D3CEC4" stroke-width="2" stroke-linejoin="round" stroke-linecap="round" d="M557.33,408.14L562.85,424.68"/>
  <path fill="none" stroke="#D3CEC4" stroke-width="2" stroke-linejoin="round" stroke-linecap="round" d="M210.93,188.04L242.67,179.14L293.74,165.14"/>
  <path fill="none" stroke="#D3CEC4" stroke-width="2" stroke-linejoin="round" stroke-linecap="round" d="M-68.3,474.29L22.33,448.21L30.15,448.21L36.59,448.21L188.85,404.32L217.37,395.42L221.51,389.69"/>
  <path fill="none" stroke="#D3CEC4" stroke-width="2" stroke-linejoin="round" stroke-linecap="round" d="M141.01,-49.88L89.95,-34.61L85.35,-34.61L79.83,-38.43L-25.05,-99.5L-29.65,-100.77L-76.58,-104.59"/>
  <path fill="none" stroke="#D3CEC4" stroke-width="2" stroke-linejoin="round" stroke-linecap="round" d="M617.59,731.26L642.43,818.4"/>
  <path fill="none" stroke="#D3CEC4" stroke-width="2" stroke-linejoin="round" stroke-linecap="round" d="M858.18,762.43L831.49,668.29L831.95,660.66L820.45,659.39L774.91,675.29L776.29,678.47L804.35,777.69"/>
  <path fill="none" stroke="#D3CEC4" stroke-width="2" stroke-linejoin="round" stroke-linecap="round" d="M76.15,137.79L19.11,154.33L-37.01,170.23L-43.45,146.69L-66.46,64.63"/>
  <path fill="none" stroke="#D3CEC4" stroke-width="2" stroke-linejoin="round" stroke-linecap="round" d="M220.59,745.25L219.21,736.99L210.01,716L225.19,677.83L226.57,672.11L218.75,644.76L218.75,626.95L216.45,614.23L210.01,597.69L198.97,595.15L151.13,608.5L147.45,611.68L146.99,628.22L152.97,664.48L148.37,680.38L139.63,679.11L118.47,681.65L107.43,679.74L103.75,692.46L110.19,714.09L123.07,716.63L142.85,710.27L160.79,692.46L148.37,680.38"/>
  <path fill="none" stroke="#D3CEC4" stroke-width="2" stroke-linejoin="round" stroke-linecap="round" d="M107.43,679.74L105.59,668.93L87.65,625.04L83.97,618.04L77.07,615.5"/>
  <path fill="none" stroke="#D3CEC4" stroke-width="2" stroke-linejoin="round" stroke-linecap="round" d="M787.79,373.79L857.72,353.43"/>
  <path fill="none" stroke="#D3CEC4" stroke-width="2" stroke-linejoin="round" stroke-linecap="round" d="M43.95,497.83L38.43,476.84"/>
  <path fill="none" stroke="#D3CEC4" stroke-width="2" stroke-linejoin="round" stroke-linecap="round" d="M623.57,628.86L607.47,634.58L599.65,639.03"/>
  <path fill="none" stroke="#D3CEC4" stroke-width="2" stroke-linejoin="round" stroke-linecap="round" d="M722.01,695.01L669.57,714.72L634.61,727.44"/>
  <path fill="none" stroke="#D3CEC4" stroke-width="2" stroke-linejoin="round" stroke-linecap="round" d="M722.01,695.01L774.91,675.29"/>
  <path fill="none" stroke="#D3CEC4" stroke-width="2" stroke-linejoin="round" stroke-linecap="round" d="M456.12,-2.8L444.62,-44.15"/>
  <path fill="none" stroke="#D3CEC4" stroke-width="2" stroke-linejoin="round" stroke-linecap="round" d="M661.29,494.01L638.75,418.32"/>
  <path fill="none" stroke="#D3CEC4" stroke-width="2" stroke-linejoin="round" stroke-linecap="round" d="M106.05,36.64L85.35,-34.61"/>
  <path fill="none" stroke="#D3CEC4" stroke-width="2" stroke-linejoin="round" stroke-linecap="round" d="M699.01,501.01L699.93,510.55L709.59,515.64L720.63,509.28"/>
  <path fill="none" stroke="#D3CEC4" stroke-width="2" stroke-linejoin="round" stroke-linecap="round" d="M397.7,638.4L465.32,619.32L491.54,623.13"/>
  <path fill="none" stroke="#D3CEC4" stroke-width="2" stroke-linejoin="round" stroke-linecap="round" d="M396.78,12.47L390.34,-0.89L383.9,-2.17L358.14,5.47L353.54,13.1L377.92,95.17L384.82,100.25L414.26,90.71"/>
  <path fill="none" stroke="#D3CEC4" stroke-width="2" stroke-linejoin="round" stroke-linecap="round" d="M396.78,12.47L408.28,47.45L418.4,82.44"/>
  <path fill="none" stroke="#D3CEC4" stroke-width="2" stroke-linejoin="round" stroke-linecap="round" d="M560.55,169.59L644.73,146.06"/>
  <path fill="none" stroke="#D3CEC4" stroke-width="2" stroke-linejoin="round" stroke-linecap="round" d="M177.35,74.17L260.16,50L275.8,103.44"/>
  <path fill="none" stroke="#D3CEC4" stroke-width="2" stroke-linejoin="round" stroke-linecap="round" d="M260.16,50L255.56,32.82"/>
  <path fill="none" stroke="#D3CEC4" stroke-width="2" stroke-linejoin="round" stroke-linecap="round" d="M55.45,532.81L43.95,497.83L-29.19,518.82L-51.27,525.18"/>
  <path fill="none" stroke="#D3CEC4" stroke-width="2" stroke-linejoin="round" stroke-linecap="round" d="M-57.26,530.9L-45.75,568.43L-31.95,615.5L-20.91,645.39L25.09,630.77"/>
  <path fill="none" stroke="#D3CEC4" stroke-width="2" stroke-linejoin="round" stroke-linecap="round" d="M250.04,416.41L264.76,432.31"/>
  <path fill="none" stroke="#D3CEC4" stroke-width="2" stroke-linejoin="round" stroke-linecap="round" d="M106.05,36.64L36.13,-4.07"/>

  <!-- major streets -->
  <path fill="none" stroke="#B8B2A7" stroke-width="3.5" stroke-linejoin="round" stroke-linecap="round" d="M397.7,839.39L369.64,741.44L313.06,543.62L308,525.81L290.98,464.75L289.6,460.3L287.76,454.57L281.78,433.58L275.34,410.68L254.64,335.62L252.34,326.72L244.05,298.73L210.93,188.04L192.99,127.61L177.35,74.17L162.63,24.55L161.25,18.19L141.01,-49.88L130.43,-84.87L106.05,-170.12"/>
  <path fill="none" stroke="#B8B2A7" stroke-width="3.5" stroke-linejoin="round" stroke-linecap="round" d="M-87.62,427.22L-25.51,409.41L15.43,399.23L123.07,371.24L174.13,358.52L205.87,349.62L254.64,335.62L306.62,321.63L362.74,305.73L389.88,297.46L399.54,295.55L468.54,276.46L521.9,259.29L549.96,250.38L584.01,240.84L647.95,220.48L704.99,203.31L734.43,195.68L805.73,174.68L850.81,162.6"/>
  <path fill="none" stroke="#B8B2A7" stroke-width="3.5" stroke-linejoin="round" stroke-linecap="round" d="M848.51,153.69L756.05,180.41L731.67,186.77L594.13,228.75L580.33,232.57L498.44,258.02L474.52,263.11L414.72,281.55L401.84,285.37L357.22,298.09L279.94,319.08L252.34,326.72L196.21,343.26L162.17,352.8L56.83,380.15L13.13,390.33L-89.92,418.95"/>
  <path fill="none" stroke="#B8B2A7" stroke-width="3.5" stroke-linejoin="round" stroke-linecap="round" d="M722.01,695.01L750.53,794.86"/>

  <!-- rail -->
  <!-- rail: none in view -->

  <!-- buried streams (culverted / underground) -->
  <path fill="none" stroke="#3994C1" stroke-width="1" stroke-linejoin="round" stroke-linecap="round" stroke-dasharray="5,4" d="M359.06,106.62L412.42,308.27"/>
  <path fill="none" stroke="#3994C1" stroke-width="1" stroke-linejoin="round" stroke-linecap="round" stroke-dasharray="5,4" d="M713.27,431.67L719.25,427.22"/>

  <!-- buried rivers (culverted / underground) -->
  <!-- buried rivers: none in view -->

  <!-- streams -->
  <path fill="none" stroke="#3994C1" stroke-width="1.25" stroke-linejoin="round" stroke-linecap="round" d="M327.32,49.36L359.06,106.62"/>
  <path fill="none" stroke="#3994C1" stroke-width="1.25" stroke-linejoin="round" stroke-linecap="round" d="M412.42,308.27L428.52,330.53L469.92,343.89L489.24,354.07L555.03,369.34L582.17,382.69L610.69,387.15L656.23,408.77L684.29,430.4L713.27,431.67"/>
  <path fill="none" stroke="#3994C1" stroke-width="1.25" stroke-linejoin="round" stroke-linecap="round" d="M719.25,427.22L741.33,427.86L757.89,438.67L770.31,457.75L801.13,471.11"/>
  <path fill="none" stroke="#3994C1" stroke-width="1.25" stroke-linejoin="round" stroke-linecap="round" d="M453.36,296.82L484.64,315.27L550.42,338.17L561.93,354.71L582.17,370.61L582.17,382.69"/>
  <path fill="none" stroke="#3994C1" stroke-width="1.25" stroke-linejoin="round" stroke-linecap="round" d="M212.77,620.59L207.25,642.21L210.47,672.74"/>
  <path fill="none" stroke="#3994C1" stroke-width="1.25" stroke-linejoin="round" stroke-linecap="round" d="M210.47,672.74L204.95,710.91"/>

  <!-- rivers -->
  <!-- rivers: none in view -->

  <!-- threshold marker -->
  <circle cx="401.5" cy="302" r="16" fill="#00000026" filter="url(#mshad)"/>
  <circle cx="400" cy="300" r="16" fill="#DE3A11" stroke="#27241D" stroke-width="1.5"/>
  <circle cx="400" cy="300" r="5" fill="#FFFFFF"/>

  <!-- scale bar: 200m -->
  <g fill="none" stroke="#857F72" stroke-width="1.25" stroke-linecap="round">
    <line x1="20" y1="578" x2="134.29" y2="578"/>
    <line x1="20" y1="572" x2="20" y2="578"/>
    <line x1="134.29" y1="572" x2="134.29" y2="578"/>
  </g>
  <text x="77.14" y="569" fill="#857F72" font-size="10" text-anchor="middle">200m</text>

  <!-- north indicator (halo keeps it visible over street linework) -->
  <circle cx="768" cy="36" r="22" fill="#FAF6EC" fill-opacity="0.9" stroke="#857F72" stroke-opacity="0.3" stroke-width="1"/>
  <g fill="#857F72" stroke="#857F72" stroke-width="2">
    <line x1="768" y1="42" x2="768" y2="24" stroke-linecap="round"/>
    <polygon points="768,16 762.5,27 773.5,27" stroke-width="1" stroke-linejoin="round"/>
  </g>
  <text x="768" y="55" fill="#857F72" font-size="13" text-anchor="middle" font-weight="700">N</text>
</svg>