<svg xmlns="http://www.w3.org/2000/svg" viewBox="0 0 800 600" width="800" height="600">
  <defs>
    <filter id="mshad" x="-40%" y="-40%" width="180%" height="180%">
      <feDropShadow dx="1.5" dy="2" stdDeviation="2.5" flood-color="#00000033"/>
    </filter>
    <style>text { font-family: Archivo, sans-serif; }</style>
  </defs>

  <!-- background -->
  <rect width="800" height="600" fill="#FAF6EC"/>

  <!-- lake ontario -->
  <!-- lake: none in view -->

  <!-- ESA (environmentally sensitive areas) -->
  <path fill="#147D64" fill-opacity="0.85" stroke="#0C6B58" stroke-width="1" stroke-linejoin="round" stroke-linecap="round" d="M752.16,358.52L748.94,343.89L738.37,341.98L715.38,348.98L687.34,358.52L675.84,363.61L666.19,365.52L645.5,364.88L631.25,367.43L629.41,371.88L632.17,379.51L645.04,397.96L651.02,403.05L664.35,400.5L688.26,405.59L697.91,411.32L704.35,410.68L724.12,417.04L736.07,419.59L739.29,424.68L744.81,439.31L751.7,448.85L754,454.57L748.02,462.84L748.48,476.2L754,487.01L754.46,498.46L752.62,501.01L758.6,508.64L766.87,522L772.39,534.08L771.47,541.08L774.69,546.17L800,539.1L800,457.76L767.33,466.66L752.16,358.52Z"/>

  <!-- ravine / landscape -->
  <path fill="#147D64" fill-opacity="0.95" stroke="#0C6B58" stroke-width="1.5" stroke-linejoin="round" stroke-linecap="round" d="M675.84,151.15L682.28,150.51L685.5,149.87L689.18,147.33L691.02,144.15L692.39,142.88L696.53,144.15L698.83,143.51L700.67,142.24L702.97,138.42L702.97,135.24L701.59,130.79L703.43,126.97L706.65,126.97L712.16,125.06L714.92,123.16L716.76,119.98L717.22,118.07L716.76,114.25L714.92,110.43L713.08,109.16L709.87,108.52L706.19,109.16L705.27,106.62L707.11,100.89L709.41,97.71L710.32,95.17L709.41,91.98L708.03,89.44L709.87,87.53L710.78,80.53L710.32,77.35L708.95,75.45L706.19,72.9L691.94,70.99L684.12,72.26L681.36,72.9L679.52,74.17L677.68,77.99L674.92,79.9L673.09,81.81L672.63,84.99L673.55,90.71L677.22,97.07L682.28,101.53L684.12,105.34L677.22,109.16L675.38,110.43L674.47,112.34L674.01,116.79L676.3,124.43L674.92,123.79L673.09,119.34L671.25,116.16L668.49,114.89L666.65,112.34L663.43,110.43L659.75,109.8L656.08,109.8L649.18,112.34L639.98,114.25L635.85,114.89L632.17,115.52L628.03,118.07L625.73,120.61L623.43,124.43L622.97,126.34L623.43,128.88L625.27,130.79L633.09,137.15L638.15,139.7L640.9,139.7L645.5,138.42L649.18,133.97L652.86,133.97L657.91,133.33L662.05,133.97L662.51,135.88L664.81,139.7L666.19,144.78L670.33,149.24L672.63,150.51L675.84,151.15Z"/>
  <path fill="#147D64" fill-opacity="0.95" stroke="#0C6B58" stroke-width="1.5" stroke-linejoin="round" stroke-linecap="round" d="M85.08,200.76L86.46,198.86L88.3,206.49L90.13,209.03L94.27,211.58L97.49,212.85L100.71,212.85L105.77,214.12L108.06,216.67L110.82,218.58L116.8,221.76L123.7,235.75L127.37,240.84L132.43,244.66L135.19,245.93L135.65,249.11L137.49,252.29L137.95,254.84L139.79,258.02L142.09,259.92L145.76,266.92L148.52,268.19L150.82,268.83L154.5,268.19L160.93,265.65L170.59,263.11L175.19,265.65L178.41,267.56L182.54,272.01L185.3,273.92L187.14,276.46L189.9,278.37L191.74,279.01L193.12,283.46L194.5,285.37L198.17,287.91L200.01,288.55L201.39,293L200.93,297.46L201.85,300L205.07,303.18L208.29,312.72L204.61,314.63L203.23,318.45L203.23,322.9L205.53,333.71L207.37,338.17L211.51,341.35L213.81,341.98L221.16,343.26L224.38,344.53L228.98,345.16L231.73,344.53L234.49,344.53L238.63,343.89L245.07,343.26L253.34,343.89L262.54,344.53L270.35,348.34L272.19,348.98L278.63,352.8L281.39,354.07L284.15,355.98L290.12,358.52L293.8,359.79L299.78,359.79L303.91,364.88L306.67,371.88L308.05,374.42L310.81,376.33L314.03,376.33L320.92,375.7L323.22,373.79L325.06,370.61L326.44,369.97L329.66,372.52L331.96,372.52L336.56,372.52L340.23,373.79L346.67,380.15L348.97,383.33L350.81,384.6L354.95,385.24L359.08,384.6L361.84,382.69L364.6,379.51L366.44,382.06L368.28,383.33L370.58,383.97L375.63,383.33L378.85,383.97L382.53,383.33L386.21,380.79L392.18,379.51L397.24,376.97L400.92,373.15L403.22,367.43L411.03,364.88L414.25,369.34L416.09,370.61L417.93,371.24L424.37,369.97L428.04,371.24L433.1,371.24L440,369.97L443.22,368.7L449.65,367.43L452.41,366.16L455.63,366.79L458.85,368.7L460.69,371.88L464.36,377.61L468.5,380.15L472.18,385.24L474.48,392.24L477.24,396.05L481.83,398.6L487.35,399.23L496.55,396.69L503.9,397.32L514.02,396.05L525.51,392.24L527.81,390.96L531.95,389.05L536.08,386.51L537.46,383.33L542.06,382.69L545.28,383.33L549.42,396.69L551.25,399.87L556.77,403.05L560.45,404.32L561.83,405.59L564.13,407.5L568.27,408.77L571.94,408.77L579.3,410.05L580.68,410.68L583.44,415.77L584.82,420.86L582.52,425.31L581.6,428.49L582.06,432.31L582.52,434.85L584.36,437.4L588.95,439.94L594.01,441.21L594.47,443.76L596.77,446.94L600.91,451.39L603.21,452.03L604.58,455.84L607.8,460.93L610.1,462.21L612.4,462.84L617.46,461.57L618.84,467.93L622.05,471.75L624.35,479.38L625.73,481.29L628.95,483.2L630.33,485.1L632.63,486.38L636.31,487.65L639.07,488.29L643.66,487.01L642.74,490.83L639.98,492.74L637.69,495.92L634.01,498.46L631.25,499.1L623.89,501.01L622.05,496.55L617.92,494.01L613.78,492.74L609.18,494.01L607.8,494.65L602.75,496.55L599.99,496.55L597.69,496.55L592.17,499.73L586.65,501.64L584.82,502.92L583.9,504.82L583.44,509.28L586.65,520.73L590.33,534.72L593.09,539.81L595.85,541.72L600.91,543.62L603.67,542.99L611.48,541.72L615.16,541.72L620.68,541.72L624.81,541.72L618.84,544.26L614.7,546.8L605.96,549.98L600.91,551.89L598.61,553.8L596.77,556.35L595.39,560.16L594.01,565.89L594.01,569.07L594.93,572.88L597.69,577.97L601.37,582.42L604.58,588.15L610.1,592.6L614.7,593.24L624.35,590.06L634.47,586.24L644.12,583.7L649.64,582.42L655.16,579.88L658.37,577.97L662.51,573.52L665.73,570.98L667.57,568.43L668.95,564.61L670.33,565.25L670.79,569.07L678.14,594.51L679.06,596.42L682.28,598.33L684.12,598.33L687.8,597.69L690.1,596.42L695.15,593.87L700.21,593.24L702.51,591.97L705.73,589.42L709.87,586.88L711.24,584.97L714,586.24L716.3,586.88L727.34,584.33L735.61,583.7L743.89,582.42L748.48,581.79L752.62,581.15L761.36,588.78L768.25,592.6L770.55,593.24L774.69,593.87L783.42,593.87L788.48,595.15L791.7,594.51L794.92,593.24L797.22,591.97L800,587.63L800,446.94L797.22,446.94L792.16,445.03L788.48,442.49L784.8,438.03L781.58,436.13L777.91,431.04L776.99,427.86L774.23,423.4L769.63,415.77L768.71,412.59L766.41,399.87L762.74,387.78L761.82,385.87L754.92,378.24L753.54,377.61L734.69,367.43L726.42,362.34L723.2,360.43L718.6,360.43L714.92,359.16L709.41,358.52L705.73,356.61L702.97,352.8L702.51,349.62L700.67,344.53L699.29,342.62L696.07,336.26L691.94,323.54L691.02,321.63L688.72,320.36L686.88,320.36L680.9,321.63L680.9,317.81L679.98,315.9L672.17,303.18L670.33,300.64L667.11,298.09L662.97,296.18L660.67,296.18L643.2,298.09L640.44,299.36L631.71,300L627.11,300.64L624.35,301.27L621.14,300.64L616.08,301.27L614.24,299.36L605.96,293L602.75,288.55L598.61,284.73L590.79,279.64L585.74,275.19L583.9,273.92L582.52,272.01L579.3,270.1L577.46,269.47L573.32,270.1L563.21,272.65L560.45,270.74L558.61,270.1L553.55,272.01L549.88,271.37L546.2,272.01L541.14,274.56L539.3,275.83L537,279.64L529.65,280.92L525.51,282.19L523.21,282.19L519.99,279.64L514.48,268.19L515.85,264.38L515.85,261.2L513.56,252.93L512.64,244.66L518.15,241.48L519.53,239.57L520.91,235.75L522.75,230.03L523.21,226.85L522.29,221.12L520.45,216.67L518.15,215.4L515.85,214.76L513.1,215.4L510.34,217.3L503.9,219.21L501.6,220.48L498.38,219.21L495.63,219.85L492.41,221.12L490.57,222.39L485.97,224.94L480.45,229.39L478.16,229.39L469.42,231.3L465.74,231.3L459.31,231.94L456.09,231.94L453.33,231.94L446.43,234.48L444.59,235.12L441.38,235.75L438.16,237.66L435.4,238.3L430.34,239.57L422.99,240.84L413.33,244.02L411.49,245.29L403.22,247.84L400.92,249.11L398.62,251.02L393.1,253.56L388.97,255.47L387.13,251.66L385.29,250.38L383.45,249.75L380.69,250.38L371.96,252.93L370.12,254.2L368.28,256.74L365.06,260.56L360,261.83L356.32,260.56L353.57,261.2L348.97,263.11L341.15,266.29L327.36,270.1L322.76,271.37L320.46,273.28L314.49,275.19L312.65,276.46L311.27,279.01L302.08,279.64L297.48,278.37L292.88,270.74L291.04,268.83L295.18,266.92L296.1,265.01L296.56,263.11L296.1,261.2L295.18,259.29L293.34,258.02L289.66,256.74L286.44,256.11L281.39,253.56L278.17,251.02L275.41,246.57L274.95,242.75L273.57,237.66L268.51,227.48L264.84,216.03L262.54,212.22L258.4,207.76L255.64,205.85L250.58,204.58L239.09,202.67L233.57,202.04L224.84,199.49L216.56,195.68L208.75,191.86L201.85,187.41L198.17,184.86L188.06,175.96L180.24,167.05L175.19,160.05L172.43,156.87L168.75,153.05L163.23,150.51L157.26,150.51L150.82,152.42L144.84,152.42L138.87,151.78L134.73,150.51L129.67,147.97L125.99,146.06L122.78,142.88L116.8,136.52L114.04,133.97L110.36,132.7L113.12,129.52L114.04,125.7L112.66,121.88L114.5,114.89L116.34,111.07L116.8,108.52L120.48,104.07L125.99,96.44L131.51,95.17L133.35,93.89L135.65,90.08L135.65,86.26L134.73,83.72L132.43,81.17L134.27,77.99L137.03,67.81L136.11,63.36L134.73,61.45L131.97,59.54L125.53,58.91L123.7,54.45L125.53,51.27L126.45,48.09L126.91,43L126.45,39.82L123.24,34.09L120.48,29.64L120.48,24.55L120.02,15.65L119.1,11.83L119.56,5.47L119.56,1.01L120.48,-4.07L122.78,-9.8L122.78,-12.34L120.94,-16.16L124.62,-23.16L125.53,-26.98L125.53,-30.16L122.32,-46.06L119.56,-58.15L120.02,-61.97L118.64,-65.78L119.1,-68.96L118.64,-71.51L117.26,-73.42L115.42,-74.69L112.66,-75.33L109.9,-74.69L101.63,-70.87L91.05,-68.33L89.22,-67.06L87.38,-64.51L86.92,-60.69L86.92,-56.88L88.3,-49.88L89.22,-47.33L89.68,-43.52L91.51,-40.34L90.13,-38.43L89.22,-35.25L89.22,-32.07L87.84,-30.79L83.7,-30.79L79.1,-29.52L75.88,-30.79L72.21,-29.52L69.91,-30.79L66.69,-30.79L63.47,-30.16L60.25,-28.25L57.49,-23.8L56.57,-19.98L58.87,-12.98L58.87,-9.8L60.25,1.01L62.55,7.38L63.47,15.65L64.39,24.55L65.77,30.28L67.61,34.73L69.91,39.82L72.66,43L72.21,45.55L72.21,50L70.37,53.18L69.91,56.36L70.37,60.81L70.37,66.54L71.75,76.72L72.66,82.44L74.5,87.53L75.42,93.26L75.42,97.07L75.88,100.89L76.8,105.34L75.42,110.43L75.88,113.61L79.1,118.7L79.1,121.88L81.4,126.34L83.7,128.25L85.08,135.24L82.32,139.06L80.02,141.6L79.56,147.33L80.48,153.69L80.48,157.51L78.64,156.24L74.5,156.24L61.17,160.05L56.57,145.42L55.19,142.88L53.36,141.6L50.14,140.97L48.3,141.6L39.1,144.78L16.58,151.15L8.76,151.78L6.92,151.15L0.95,152.42L0,207.24L3.24,205.22L8.76,204.58L15.66,203.31L22.55,201.4L29.45,202.04L39.56,200.76L43.24,203.31L46.46,204.58L50.14,204.58L54.28,207.76L57.49,208.4L80.02,203.31L83.24,202.04L85.08,200.76Z"/>
  <path fill="#147D64" fill-opacity="0.95" stroke="#0C6B58" stroke-width="1.5" stroke-linejoin="round" stroke-linecap="round" d="M767.33,302.54L769.17,301.91L776.53,300L778.37,298.73L779.75,296.82L780.21,294.27L779.29,279.01L777.91,268.83L776.53,255.47L778.37,252.93L781.58,250.38L786.64,248.47L790.78,244.66L792.16,241.48L793.08,233.84L794.46,226.85L793.54,223.03L791.24,220.48L792.62,216.03L791.7,212.85L790.32,210.94L787.56,209.03L782.04,207.13L778.37,207.76L773.77,209.03L770.09,211.58L764.11,214.12L762.28,210.31L755.84,204.58L752.62,202.67L750.32,202.04L747.56,202.67L739.29,205.22L734.23,205.85L728.71,206.49L722.74,207.13L717.22,205.22L714,205.85L712.16,207.13L709.87,210.31L702.97,212.85L698.83,213.49L694.69,212.22L688.26,214.12L684.12,214.12L681.36,209.67L677.68,203.31L676.76,200.13L675.84,193.77L674.47,189.95L672.63,189.31L670.33,188.68L665.27,189.31L663.43,190.59L662.05,192.5L661.59,195.68L663.43,205.85L664.35,208.4L665.73,215.4L668.03,228.12L670.33,233.21L676.76,240.84L682.28,245.29L688.26,251.02L690.1,252.29L693.77,252.29L705.73,249.11L725.04,243.39L728.71,241.48L728.71,245.29L729.17,247.84L730.55,249.75L733.77,252.29L737.91,252.93L746.64,258.02L752.16,260.56L754.92,263.74L757.68,269.47L760.44,279.01L760.9,287.91L760.9,294.27L762.28,298.73L763.2,300.64L765.03,301.91L767.33,302.54Z"/>

  <!-- minor streets -->
  <path fill="none" stroke="#D3CEC4" stroke-width="2" stroke-linejoin="round" stroke-linecap="round" d="M-96.52,801.23L45.08,761.15L85.54,749.07L86.92,758.61L94.27,806.31"/>
  <path fill="none" stroke="#D3CEC4" stroke-width="2" stroke-linejoin="round" stroke-linecap="round" d="M-117.21,747.8L28.07,706.46L75.88,691.83L83.24,732.53L165.07,709.64"/>
  <path fill="none" stroke="#D3CEC4" stroke-width="2" stroke-linejoin="round" stroke-linecap="round" d="M131.97,494.65L23.47,525.18L-88.7,558.25"/>
  <path fill="none" stroke="#D3CEC4" stroke-width="2" stroke-linejoin="round" stroke-linecap="round" d="M3.24,-20.62L3.24,9.28L-93.76,37.28"/>
  <path fill="none" stroke="#D3CEC4" stroke-width="2" stroke-linejoin="round" stroke-linecap="round" d="M-77.67,90.71L4.62,76.08L3.24,9.28"/>
  <path fill="none" stroke="#D3CEC4" stroke-width="2" stroke-linejoin="round" stroke-linecap="round" d="M-84.11,349.62L-32.16,334.35L-11.93,404.32L104.39,371.24L112.2,369.97"/>
  <path fill="none" stroke="#D3CEC4" stroke-width="2" stroke-linejoin="round" stroke-linecap="round" d="M159.56,676.56L216.1,660.66L488.27,584.33L594.93,553.8"/>
  <path fill="none" stroke="#D3CEC4" stroke-width="2" stroke-linejoin="round" stroke-linecap="round" d="M186.68,539.81L193.12,572.25L145.76,584.97"/>
  <path fill="none" stroke="#D3CEC4" stroke-width="2" stroke-linejoin="round" stroke-linecap="round" d="M228.52,513.09L235.87,560.16L193.12,572.25"/>
  <path fill="none" stroke="#D3CEC4" stroke-width="2" stroke-linejoin="round" stroke-linecap="round" d="M129.67,480.65L189.9,462.84L206.91,458.39L256.56,445.03L419.77,399.23L459.31,387.15L613.78,343.26L682.28,323.54L657.91,285.37L655.62,279.64L641.82,230.03L641.82,226.85L645.5,200.76L653.78,184.23L668.95,172.14L678.14,168.96L686.88,167.05L698.83,163.23L727.34,161.96L737.91,168.32L763.65,191.86L892.84,154.33"/>
  <path fill="none" stroke="#D3CEC4" stroke-width="2" stroke-linejoin="round" stroke-linecap="round" d="M108.06,344.53L183.92,322.26L194.04,378.24L209.21,372.52L226.68,373.15L247.37,371.24L269.89,364.25"/>
  <path fill="none" stroke="#D3CEC4" stroke-width="2" stroke-linejoin="round" stroke-linecap="round" d="M181.62,267.56L152.66,276.46L124.62,284.73L106.23,289.82L100.25,294.27L91.51,299.36L82.32,234.48L77.26,231.94L74.96,231.94L-48.25,265.65"/>
  <path fill="none" stroke="#D3CEC4" stroke-width="2" stroke-linejoin="round" stroke-linecap="round" d="M63.93,44.91L71.75,43.64L122.78,28.37L188.06,9.28L183.46,-3.44L183,-16.16L191.74,-37.79L194.04,-53.7L181.62,-98.86"/>
  <path fill="none" stroke="#D3CEC4" stroke-width="2" stroke-linejoin="round" stroke-linecap="round" d="M287.36,267.56L383.45,240.2L462.06,217.3L546.2,193.13L590.79,179.77L604.12,179.14L642.28,181.04L653.78,184.23"/>
  <path fill="none" stroke="#D3CEC4" stroke-width="2" stroke-linejoin="round" stroke-linecap="round" d="M695.61,196.95L686.88,167.05"/>
  <path fill="none" stroke="#D3CEC4" stroke-width="2" stroke-linejoin="round" stroke-linecap="round" d="M877.21,97.71L781.58,125.7L770.09,131.43L727.34,161.96"/>
  <path fill="none" stroke="#D3CEC4" stroke-width="2" stroke-linejoin="round" stroke-linecap="round" d="M148.98,-89.32L124.16,-174.57"/>
  <path fill="none" stroke="#D3CEC4" stroke-width="2" stroke-linejoin="round" stroke-linecap="round" d="M124.16,-174.57L74.04,-160.57L66.69,-155.49L56.11,-144.67L51.98,-142.76L34.97,-138.31"/>
  <path fill="none" stroke="#D3CEC4" stroke-width="2" stroke-linejoin="round" stroke-linecap="round" d="M149.44,610.41L58.41,636.49L54.28,637.76L-137.44,693.73"/>
  <path fill="none" stroke="#D3CEC4" stroke-width="2" stroke-linejoin="round" stroke-linecap="round" d="M430.34,285.37L457.47,279.01L464.82,277.74L562.75,249.11L641.82,226.85"/>
  <path fill="none" stroke="#D3CEC4" stroke-width="2" stroke-linejoin="round" stroke-linecap="round" d="M67.61,68.45L4.62,76.08"/>
  <path fill="none" stroke="#D3CEC4" stroke-width="2" stroke-linejoin="round" stroke-linecap="round" d="M741.13,595.15L508.96,660.66L309.43,716L171.51,754.79"/>
  <path fill="none" stroke="#D3CEC4" stroke-width="2" stroke-linejoin="round" stroke-linecap="round" d="M158.18,668.29L75.88,691.83L58.41,636.49L40.94,580.52L23.47,525.18L6.92,468.57L-11.93,404.32L-124.1,435.49"/>
  <path fill="none" stroke="#D3CEC4" stroke-width="2" stroke-linejoin="round" stroke-linecap="round" d="M140.25,551.89L40.94,580.52L-164.1,640.94"/>
  <path fill="none" stroke="#D3CEC4" stroke-width="2" stroke-linejoin="round" stroke-linecap="round" d="M122.32,436.13L114.5,438.03L6.92,468.57L-105.25,501.64"/>
  <path fill="none" stroke="#D3CEC4" stroke-width="2" stroke-linejoin="round" stroke-linecap="round" d="M241.85,322.9L210.13,315.9L183.92,322.26"/>
  <path fill="none" stroke="#D3CEC4" stroke-width="2" stroke-linejoin="round" stroke-linecap="round" d="M-46.41,135.88L-27.56,133.97L-9.17,133.33L15.66,137.15L34.97,141.6L77.72,139.06L112.66,132.7L126.45,148.6L144.38,154.33L166.45,149.24L197.71,139.06L209.67,141.6L207.83,128.88L216.1,107.25L215.64,91.35L211.05,69.08L210.59,56.36L206.91,46.18L192.66,23.28L188.06,9.28L248.29,-8.53L246.45,-18.71L249.66,-37.16L257.02,-48.61L268.05,-56.88L295.64,-65.78L320.01,-72.15L341.15,-69.6L351.73,-63.24L365.06,-43.52L425.29,-60.69L429.42,-40.34L433.1,-40.34L595.39,-87.41L587.11,-68.33L588.49,-49.88L594.01,-40.34L610.56,-25.7L422.99,29.01L409.19,32.19L394.94,45.55L377.93,57.63L363.68,65.27L335.18,74.17L303.91,83.08L281.85,83.08L271.27,80.53L262.08,69.08L251.96,62.72L235.87,62.09L211.05,69.08L178.86,78.63L147.14,86.9L143.46,65.9L134.73,57.63L128.29,45.55L122.78,28.37L118.64,9.28L124.16,-20.62L124.16,-36.52L117.72,-79.78"/>
  <path fill="none" stroke="#D3CEC4" stroke-width="2" stroke-linejoin="round" stroke-linecap="round" d="M459.77,237.02L462.06,217.3L461.61,213.49L445.05,155.6L365.52,178.5L279.09,203.31L253.8,206.49L236.79,204.58L220.24,199.49L198.63,187.41L185.76,176.59L175.65,164.51L166.45,149.24"/>
  <path fill="none" stroke="#D3CEC4" stroke-width="2" stroke-linejoin="round" stroke-linecap="round" d="M339.77,-145.31L347.13,-135.13L361.84,-130.04L385.29,-117.31L405.52,-98.86L420.69,-74.69L425.29,-60.69"/>
  <path fill="none" stroke="#D3CEC4" stroke-width="2" stroke-linejoin="round" stroke-linecap="round" d="M675.84,87.53L604.12,109.16L599.99,109.8L606.88,90.08L609.18,63.99L625.73,36.64L645.04,30.28L667.11,24.55L754.46,-0.89L841.35,-26.34L881.81,-39.06"/>
  <path fill="none" stroke="#D3CEC4" stroke-width="2" stroke-linejoin="round" stroke-linecap="round" d="M625.27,473.66L587.11,484.47L572.4,431.04L570.1,426.58L565.97,425.31L444.59,459.03L292.42,502.28L287.36,506.1L272.65,493.37L267.13,481.92L256.56,445.03"/>
  <path fill="none" stroke="#D3CEC4" stroke-width="2" stroke-linejoin="round" stroke-linecap="round" d="M199.09,494.65L189.9,462.84"/>
  <path fill="none" stroke="#D3CEC4" stroke-width="2" stroke-linejoin="round" stroke-linecap="round" d="M456.55,268.19L457.47,279.01"/>
  <path fill="none" stroke="#D3CEC4" stroke-width="2" stroke-linejoin="round" stroke-linecap="round" d="M209.67,141.6L218.4,149.87L225.3,151.78L240.01,149.24L288.28,133.97L280.93,118.07L271.27,80.53"/>
  <path fill="none" stroke="#D3CEC4" stroke-width="2" stroke-linejoin="round" stroke-linecap="round" d="M248.29,-8.53L252.42,0.38L262.08,11.19L276.33,18.83L295.18,19.46L317.25,13.1L337.02,6.74L350.35,-0.26L357.24,-6.62L364.14,-18.71L365.98,-31.43L365.06,-43.52"/>
  <path fill="none" stroke="#D3CEC4" stroke-width="2" stroke-linejoin="round" stroke-linecap="round" d="M562.75,249.11L546.2,193.13"/>
  <path fill="none" stroke="#D3CEC4" stroke-width="2" stroke-linejoin="round" stroke-linecap="round" d="M698.83,163.23L701.59,156.24L731.47,73.54L711.7,63.36L686.42,37.28L667.11,24.55"/>
  <path fill="none" stroke="#D3CEC4" stroke-width="2" stroke-linejoin="round" stroke-linecap="round" d="M627.11,-30.16L645.04,30.28"/>
  <path fill="none" stroke="#D3CEC4" stroke-width="2" stroke-linejoin="round" stroke-linecap="round" d="M639.52,-34.61L645.5,-44.15L650.1,-62.6L645.96,-77.23L638.15,-86.14L622.97,-95.68L609.18,-91.87"/>
  <path fill="none" stroke="#D3CEC4" stroke-width="2" stroke-linejoin="round" stroke-linecap="round" d="M772.85,298.73L783.88,343.26L786.64,359.79L793.08,408.14L803.19,419.59L813.31,419.59L915.83,390.33"/>
  <path fill="none" stroke="#D3CEC4" stroke-width="2" stroke-linejoin="round" stroke-linecap="round" d="M409.19,32.19L427.58,93.89L445.05,155.6L599.99,109.8"/>
  <path fill="none" stroke="#D3CEC4" stroke-width="2" stroke-linejoin="round" stroke-linecap="round" d="M678.14,168.96L645.96,143.51L604.12,109.16"/>
  <path fill="none" stroke="#D3CEC4" stroke-width="2" stroke-linejoin="round" stroke-linecap="round" d="M731.47,73.54L858.82,34.09"/>
  <path fill="none" stroke="#D3CEC4" stroke-width="2" stroke-linejoin="round" stroke-linecap="round" d="M858.82,34.09L841.35,-26.34L823.88,-87.41L805.49,-149.76L630.33,-98.23L622.97,-95.68"/>
  <path fill="none" stroke="#D3CEC4" stroke-width="2" stroke-linejoin="round" stroke-linecap="round" d="M409.19,32.19L420.23,11.19L428.5,-18.07L429.42,-40.34"/>
  <path fill="none" stroke="#D3CEC4" stroke-width="2" stroke-linejoin="round" stroke-linecap="round" d="M771.93,298.73L817.9,285.37"/>
  <path fill="none" stroke="#D3CEC4" stroke-width="2" stroke-linejoin="round" stroke-linecap="round" d="M347.59,117.43L427.58,93.89L625.73,36.64"/>
  <path fill="none" stroke="#D3CEC4" stroke-width="2" stroke-linejoin="round" stroke-linecap="round" d="M280.93,549.35L299.32,560.16L315.87,560.8L462.98,519.45L587.11,484.47"/>
  <path fill="none" stroke="#D3CEC4" stroke-width="2" stroke-linejoin="round" stroke-linecap="round" d="M280.93,549.35L280.93,522L287.36,506.1"/>
  <path fill="none" stroke="#D3CEC4" stroke-width="2" stroke-linejoin="round" stroke-linecap="round" d="M890.08,-105.86L823.88,-87.41L646.88,-36.52L639.52,-34.61L627.11,-30.16L610.56,-25.7"/>
  <path fill="none" stroke="#D3CEC4" stroke-width="2" stroke-linejoin="round" stroke-linecap="round" d="M288.28,133.97L347.59,117.43"/>
  <path fill="none" stroke="#D3CEC4" stroke-width="2" stroke-linejoin="round" stroke-linecap="round" d="M194.04,378.24L206.91,458.39"/>
  <path fill="none" stroke="#D3CEC4" stroke-width="2" stroke-linejoin="round" stroke-linecap="round" d="M152.66,276.46L148.98,266.29L140.25,254.2L137.95,243.39L125.08,230.03L117.26,237.66L124.62,284.73"/>
  <path fill="none" stroke="#D3CEC4" stroke-width="2" stroke-linejoin="round" stroke-linecap="round" d="M112.66,132.7L113.12,116.16L121.4,99.62L129.67,93.26L147.14,86.9"/>
  <path fill="none" stroke="#D3CEC4" stroke-width="2" stroke-linejoin="round" stroke-linecap="round" d="M235.87,560.16L274.95,549.98L280.93,549.35"/>
  <path fill="none" stroke="#D3CEC4" stroke-width="2" stroke-linejoin="round" stroke-linecap="round" d="M682.28,323.54L771.93,298.73"/>
  <path fill="none" stroke="#D3CEC4" stroke-width="2" stroke-linejoin="round" stroke-linecap="round" d="M197.71,139.06L207.83,128.88"/>

  <!-- major streets -->
  <path fill="none" stroke="#B8B2A7" stroke-width="3.5" stroke-linejoin="round" stroke-linecap="round" d="M193.12,901.72L171.51,754.79L165.07,709.64L159.56,676.56L158.18,668.29L149.44,610.41L136.57,523.27L131.97,494.65L129.67,480.65L125.08,453.94L104.85,323.54L100.25,294.27L96.57,268.83L87.84,210.94L86.92,203.31L82.78,174.05L81.4,164.51L77.72,139.06L74.96,118.7L57.95,1.65L52.9,-29.52L49.68,-57.51L49.22,-60.69L40.48,-105.86L34.97,-138.31L6.92,-281.45"/>
  <path fill="none" stroke="#B8B2A7" stroke-width="3.5" stroke-linejoin="round" stroke-linecap="round" d="M277.25,-126.86L285.06,-101.41L317.25,13.1L365.52,178.5L383.45,240.2L389.43,261.83L410.57,338.17L418.39,394.78L428.96,432.95L462.52,490.19L529.19,734.44L544.36,791.05"/>
  <path fill="none" stroke="#B8B2A7" stroke-width="3.5" stroke-linejoin="round" stroke-linecap="round" d="M49.68,-57.51L18.42,-51.15L49.22,-60.69"/>
  <path fill="none" stroke="#B8B2A7" stroke-width="3.5" stroke-linejoin="round" stroke-linecap="round" d="M-59.74,-28.25L-14.69,-41.61L3.24,-46.7L18.42,-51.15"/>
  <path fill="none" stroke="#B8B2A7" stroke-width="3.5" stroke-linejoin="round" stroke-linecap="round" d="M49.22,-60.69L78.64,-67.06L117.72,-79.78L205.07,-106.5L277.25,-126.86L296.1,-130.67L318.17,-138.94L339.77,-145.31L373.34,-155.49L429.42,-171.39"/>
  <path fill="none" stroke="#B8B2A7" stroke-width="3.5" stroke-linejoin="round" stroke-linecap="round" d="M49.68,-57.51L68.53,-63.24L78.64,-67.06"/>

  <!-- buried streams (culverted / underground) -->
  <path fill="none" stroke="#3994C1" stroke-width="1" stroke-linejoin="round" stroke-linecap="round" stroke-dasharray="5,4" d="M46,190.59L103.01,204.58"/>
  <path fill="none" stroke="#3994C1" stroke-width="1" stroke-linejoin="round" stroke-linecap="round" stroke-dasharray="5,4" d="M739.29,494.65L741.13,498.46"/>
  <path fill="none" stroke="#3994C1" stroke-width="1" stroke-linejoin="round" stroke-linecap="round" stroke-dasharray="5,4" d="M771.47,544.9L800.89,555.71L829.86,559.53L880.43,551.89"/>
  <path fill="none" stroke="#3994C1" stroke-width="1" stroke-linejoin="round" stroke-linecap="round" stroke-dasharray="5,4" d="M298.86,320.36L436.32,296.18"/>
  <path fill="none" stroke="#3994C1" stroke-width="1" stroke-linejoin="round" stroke-linecap="round" stroke-dasharray="5,4" d="M583.9,333.08L599.53,340.07L615.16,371.88"/>

  <!-- buried rivers (culverted / underground) -->
  <!-- buried rivers: none in view -->

  <!-- streams -->
  <path fill="none" stroke="#3994C1" stroke-width="1.25" stroke-linejoin="round" stroke-linecap="round" d="M615.16,371.88L638.15,404.32L696.07,424.68L716.3,439.31L739.29,494.65"/>
  <path fill="none" stroke="#3994C1" stroke-width="1.25" stroke-linejoin="round" stroke-linecap="round" d="M103.01,204.58L133.81,212.85L179.78,242.75L226.22,268.19L249.21,298.09L268.05,310.18L298.86,320.36"/>
  <path fill="none" stroke="#3994C1" stroke-width="1.25" stroke-linejoin="round" stroke-linecap="round" d="M436.32,296.18L489.19,335.62L523.67,347.71L583.9,333.08"/>
  <path fill="none" stroke="#3994C1" stroke-width="1.25" stroke-linejoin="round" stroke-linecap="round" d="M741.13,498.46L753.54,528.36L771.47,544.9"/>

  <!-- rivers -->
  <!-- rivers: none in view -->

  <!-- outside-survey wash (paper fill beyond municipal boundary) -->
  <!-- outside mask: none in view -->

  <!-- toronto municipal boundary (solid hairline, consistent with island map) -->
  <!-- boundary: none in view -->

  <!-- threshold marker -->
  <circle cx="401.5" cy="302" r="16" fill="#00000026" filter="url(#mshad)"/>
  <circle cx="400" cy="300" r="16" fill="#DE3A11" stroke="#27241D" stroke-width="1.5"/>
  <circle cx="400" cy="300" r="5" fill="#FFFFFF"/>

  <!-- scale bar: 200m -->
  <g fill="none" stroke="#857F72" stroke-width="1.25" stroke-linecap="round">
    <line x1="20" y1="578" x2="134.29" y2="578"/>
    <line x1="20" y1="572" x2="20" y2="578"/>
    <line x1="134.29" y1="572" x2="134.29" y2="578"/>
  </g>
  <text x="77.14" y="569" fill="#857F72" font-size="10" text-anchor="middle">200m</text>

  <!-- north indicator (halo keeps it visible over street linework) -->
  <circle cx="768" cy="36" r="22" fill="#FAF6EC" fill-opacity="0.9" stroke="#857F72" stroke-opacity="0.3" stroke-width="1"/>
  <g fill="#857F72" stroke="#857F72" stroke-width="2">
    <line x1="768" y1="42" x2="768" y2="24" stroke-linecap="round"/>
    <polygon points="768,16 762.5,27 773.5,27" stroke-width="1" stroke-linejoin="round"/>
  </g>
  <text x="768" y="55" fill="#857F72" font-size="13" text-anchor="middle" font-weight="700">N</text>
</svg>