<svg xmlns="http://www.w3.org/2000/svg" viewBox="0 0 800 600" width="800" height="600">
  <defs>
    <filter id="mshad" x="-40%" y="-40%" width="180%" height="180%">
      <feDropShadow dx="1.5" dy="2" stdDeviation="2.5" flood-color="#00000033"/>
    </filter>
    <style>text { font-family: Archivo, sans-serif; }</style>
  </defs>

  <!-- background -->
  <rect width="800" height="600" fill="#FAF6EC"/>

  <!-- lake ontario -->
  <!-- lake: none in view -->

  <!-- ESA (environmentally sensitive areas) -->
  <path fill="#147D64" fill-opacity="0.85" stroke="#0C6B58" stroke-width="1" stroke-linejoin="round" stroke-linecap="round" d="M182.85,-81.05L163.53,-87.41L159.39,-96.96L156.8,-100.02L132.64,-100.02L112.92,-95.68L94.52,-89.96L85.32,-82.32L78.42,-80.42L63.23,-81.05L55.87,-77.87L57.71,-66.42L56.79,-53.7L60.47,-49.24L68.76,-45.43L99.58,-39.06L110.16,-31.43L129.48,-23.16L151.11,-16.16L160.31,-12.34L172.27,-9.16L189.75,-9.8L203.09,-7.89L213.21,-4.07L217.82,1.65L236.22,13.74L245.42,18.83L256.92,20.1L268.42,12.47L281.3,13.1L287.74,18.19L289.59,23.92L293.73,26.46L309.37,27.73L320.87,27.1L327.31,38.55L336.51,66.54L344.79,77.99L361.81,75.45L377,81.81L387.12,82.44L400.46,91.35L403.68,96.44L416.1,102.16L429.44,105.34L434.96,100.89L439.11,102.16L451.53,111.07L457.97,113.61L467.63,111.07L482.35,111.07L509.95,123.16L523.3,126.34L557.8,129.52L571.6,136.52L578.5,135.88L583.1,121.25L595.53,99.62L594.61,88.17L590.47,84.99L573.44,84.99L555.04,86.26L544.46,84.99L531.58,77.99L514.1,78.63L491.09,70.99L481.89,66.54L477.29,62.09L470.85,48.73L463.03,43.64L453.83,42.37L448.31,36L445.55,20.1L445.09,3.56L436.8,2.29L430.82,4.83L418.4,6.1L409.66,13.1L394.48,16.28L383.44,20.74L386.2,29.01L392.18,34.73L394.02,44.91L377,41.73L362.27,35.37L350.31,25.82L334.67,11.83L319.03,8.65L308.91,8.01L299.71,-19.34L296.49,-30.79L285.9,-66.42L283.6,-67.06L273.94,-61.97L252.78,-56.88L244.04,-57.51L231.62,-61.97L218.28,-62.6L213.67,-65.78L211.83,-77.23L213.21,-86.78L210.45,-88.69L198.49,-84.87L191.13,-80.42L182.85,-81.05Z"/>

  <!-- ravine / landscape -->
  <path fill="#147D64" fill-opacity="0.95" stroke="#0C6B58" stroke-width="1.5" stroke-linejoin="round" stroke-linecap="round" d="M664.08,150.51L676.5,146.06L685.24,144.15L688.92,142.24L691.22,140.97L693.52,137.15L696.74,136.52L699.96,146.69L702.26,149.24L704.1,150.51L706.4,151.15L708.7,150.51L711.46,148.6L716.52,144.15L717.9,141.6L718.36,137.79L714.22,124.43L716.98,123.16L723.88,120.61L726.64,118.07L728.02,116.16L729.86,108.52L734.46,107.89L739.07,105.34L741.83,105.98L743.67,105.34L747.81,104.07L751.95,102.8L753.79,100.89L759.31,99.62L762.99,97.07L772.19,94.53L776.79,91.98L778.63,89.44L786.91,86.9L789.67,84.99L800,81.51L800,50.28L789.21,54.45L781.39,56.36L771.27,61.45L767.13,63.36L760.23,67.81L757.01,69.08L748.27,72.26L746.43,71.63L743.21,72.26L739.99,74.17L736.77,74.81L733.54,75.45L730.78,74.17L728.02,74.17L719.74,76.72L718.36,77.99L716.06,81.17L715.6,85.62L715.6,88.17L716.98,92.62L716.52,95.17L715.14,97.07L705.94,102.16L698.58,108.52L692.14,115.52L689.84,116.79L679.26,119.98L677.42,121.25L676.5,123.16L676.04,125.7L672.36,126.97L669.6,130.15L665.92,132.7L663.62,134.61L660.4,135.88L658.55,136.52L657.63,138.42L657.17,140.97L657.63,144.78L659.93,148.6L661.78,149.87L664.08,150.51Z"/>
  <path fill="#147D64" fill-opacity="0.95" stroke="#0C6B58" stroke-width="1.5" stroke-linejoin="round" stroke-linecap="round" d="M37.01,303.18L33.33,301.91L26.89,303.18L23.21,304.45L20.45,310.18L14.47,311.45L4.81,311.45L0.67,312.72L0,351.64L17.23,352.8L37.93,354.07L42.53,352.16L45.75,349.62L48.05,345.8L48.97,343.26L50.35,343.89L53.57,348.34L56.79,350.89L60.01,352.16L64.61,353.43L66.92,353.43L90.84,352.16L94.52,350.25L96.36,347.07L96.36,338.8L107.86,339.44L117.52,339.44L129.48,340.07L136.38,339.44L144.67,338.17L150.65,336.89L153.87,334.99L155.71,331.17L161.69,329.9L163.07,334.35L164.45,336.26L166.29,337.53L169.05,338.17L174.11,336.89L181.01,335.62L184.23,334.99L191.59,334.35L193.89,335.62L200.33,334.99L202.63,335.62L209.99,334.99L212.75,334.99L221.96,334.35L228.86,335.62L231.62,335.62L237.14,334.99L244.96,335.62L249.1,334.99L252.32,333.08L266.58,332.44L270.72,331.17L276.7,330.53L285.9,329.9L290.97,327.99L294.65,324.81L296.95,329.26L298.79,332.44L303.39,338.17L307.53,341.35L312.59,342.62L317.19,341.98L328.69,338.17L353.07,329.26L380.22,318.45L385.74,316.54L395.86,312.72L398.16,311.45L402.3,307L405.52,306.36L435.88,294.91L462.57,284.73L464.41,283.46L465.79,281.55L464.41,273.92L469.01,270.74L472.23,268.83L476.83,266.29L482.81,263.74L486.95,261.83L489.25,259.29L493.85,257.38L502.59,254.84L504.89,254.84L509.95,253.56L513.18,250.38L513.64,247.2L513.18,244.02L519.62,240.84L527.44,238.93L535.26,237.02L537.1,235.75L539.4,231.3L541.7,228.12L549.06,220.48L550.44,218.58L555.5,221.76L558.26,224.3L555.04,234.48L555.5,238.93L538.48,244.02L536.18,245.29L534.8,247.2L534.8,251.02L539.4,267.56L541.24,272.01L543.54,275.19L547.68,277.74L552.74,279.01L558.26,278.37L570.68,276.46L573.9,275.19L574.82,273.28L575.28,269.47L572.52,258.65L589.55,254.84L591.39,253.56L592.77,251.66L593.23,249.75L590.93,238.3L590.01,233.84L590.01,226.21L590.47,203.31L591.39,196.31L594.15,180.41L594.15,177.23L592.77,175.32L590.93,174.05L578.5,170.23L581.26,164.51L583.1,158.14L584.02,156.24L586.33,149.87L589.09,143.51L589.55,139.06L590.47,135.24L602.89,134.61L601.97,139.7L602.43,141.6L603.35,143.51L608.41,146.06L625.43,151.15L636.47,151.78L638.77,151.15L643.83,147.33L654.41,128.88L656.25,123.16L655.79,118.07L653.49,114.25L649.35,112.34L608.87,111.07L607.03,111.71L605.65,106.62L602.43,102.8L607.03,101.53L614.85,100.25L627.73,98.98L630.95,98.35L635.55,94.53L638.77,89.44L639.23,86.26L642.91,91.98L644.75,93.26L647.05,93.26L652.57,91.98L655.79,88.8L658.55,84.99L661.32,79.26L663.62,72.9L664.54,69.08L666.84,65.27L668.22,57L666.84,53.18L668.22,48.73L666.84,43.64L665.92,41.73L662.24,39.82L649.35,32.19L645.21,30.91L639.23,26.46L636.01,23.92L629.57,19.46L626.81,16.28L623.13,14.37L620.37,13.74L615.31,9.92L613.01,9.28L608.41,8.65L590.93,7.38L586.33,6.74L582.64,6.1L577.58,5.47L574.36,5.47L566.08,4.83L564.24,3.56L561.94,-0.89L561.94,-4.07L561.02,-7.26L559.18,-9.8L555.96,-12.34L552.28,-12.98L550.44,-12.98L546.76,-11.07L544.46,-9.16L541.24,-4.71L540.78,-2.8L541.24,0.38L540.78,3.56L538.02,5.47L534.8,9.28L532.04,8.01L529.28,8.65L523.3,10.56L519.16,6.74L516.86,4.83L515.02,1.01L513.18,-0.89L509.95,-2.8L506.73,-4.07L504.43,-4.07L500.75,-3.44L497.53,-0.26L493.39,-1.53L490.63,-2.17L485.11,-4.71L483.27,-5.35L480.51,-4.71L477.29,-1.53L474.07,-2.17L468.55,-0.89L463.03,2.29L460.73,4.83L459.35,7.38L458.89,11.83L458.89,15.01L460.27,19.46L459.81,22.64L453.83,23.28L451.99,22.01L449.23,18.19L446.93,16.92L447.85,13.74L447.39,9.92L446.01,8.01L443.25,6.1L440.49,5.47L434.96,5.47L433.12,5.47L427.6,4.2L422.54,4.2L420.24,2.29L416.1,0.38L413.8,-6.62L409.66,-14.25L406.9,-17.43L405.06,-18.71L400,-19.34L397.24,-19.98L386.2,-24.43L382.98,-26.98L379.3,-33.34L368.72,-53.06L366.42,-56.24L362.73,-61.33L359.51,-63.87L353.07,-67.69L349.39,-68.96L342.95,-70.24L333.75,-70.87L320.41,-71.51L317.65,-72.14L313.51,-75.96L309.37,-75.96L302.47,-72.78L294.19,-70.87L291.43,-68.33L290.05,-68.96L284.52,-70.24L279.46,-69.6L274.86,-67.69L271.18,-67.06L263.82,-66.42L251.4,-63.87L242.2,-72.78L240.36,-73.42L236.22,-74.69L230.7,-79.14L226.56,-80.42L222.42,-80.42L217.82,-88.69L213.67,-91.87L209.99,-93.14L203.09,-92.5L196.65,-90.59L187.91,-88.05L182.85,-91.23L174.57,-95.05L172.27,-95.68L168.13,-94.41L165.94,-100.02L110.72,-100.02L108.78,-99.5L103.72,-98.23L93.6,-95.05L88.08,-93.78L85.78,-92.5L80.26,-87.41L77.96,-86.78L71.06,-86.78L64.61,-85.5L61.85,-85.5L56.79,-84.87L54.95,-83.6L53.57,-81.05L51.27,-79.78L50.35,-77.87L49.43,-75.33L50.35,-72.78L52.65,-69.6L54.03,-67.06L55.41,-61.97L55.87,-54.97L56.79,-51.79L58.63,-48.61L61.39,-46.7L69.68,-42.24L75.66,-40.97L78.42,-39.06L83.48,-35.88L86.24,-33.97L89,-32.7L92.22,-32.7L97.74,-30.79L104.18,-27.61L107.4,-25.7L112.46,-25.07L116.14,-23.8L120.74,-22.52L124.88,-23.16L126.26,-16.8L128.56,-13.62L130.4,-12.34L140.07,-10.44L158.01,-2.17L161.23,0.38L172.27,5.47L186.07,8.65L195.73,9.28L212.75,11.19L218.28,11.83L222.42,16.28L225.64,18.19L236.68,23.28L240.36,23.92L246.34,25.82L253.7,25.19L257.38,32.82L261.06,36.64L261.98,39.18L265.66,42.37L268.88,43L278.08,41.09L279,45.55L280.84,51.91L282.22,55.09L284.98,60.81L288.67,63.99L291.89,65.27L293.27,67.81L295.57,70.36L298.33,75.45L300.17,77.35L302.47,79.26L304.77,79.26L307.99,78.63L318.57,75.45L324.09,78.63L327.77,79.9L333.29,79.9L334.67,78.63L336.51,82.44L339.27,84.35L342.49,84.99L347.09,84.35L349.85,83.08L354.45,82.44L358.13,83.08L363.66,84.99L370.1,83.72L372.86,85.62L375.16,86.9L377.92,86.9L380.22,90.71L384.82,92.62L388.96,96.44L391.26,96.44L394.48,95.8L396.78,93.89L398.16,93.89L401.38,99.62L403.68,102.16L414.72,109.16L421.62,111.07L424.84,112.34L437.73,116.16L445.55,114.89L448.77,114.89L451.07,116.16L455.21,118.7L458.43,119.98L461.19,120.61L467.63,119.34L472.69,116.79L476.37,118.07L487.87,119.34L492.93,118.07L496.15,121.88L504.43,127.61L511.8,131.43L515.94,132.06L523.3,134.61L527.44,134.61L532.04,133.97L538.02,133.33L541.7,132.06L545.38,132.7L550.44,132.7L554.58,133.33L558.26,136.52L562.4,137.15L566.08,139.7L558.72,147.97L554.58,153.69L551.36,158.14L549.98,157.51L546.3,156.87L539.4,158.78L537.56,160.05L536.64,161.96L536.18,163.87L536.64,168.96L535.72,173.41L536.18,180.41L537.1,183.59L538.94,187.41L538.94,190.59L535.72,192.5L530.2,195.04L527.9,196.95L525.6,198.86L521.46,200.76L509.49,198.22L504.89,198.22L498.91,196.95L491.09,196.31L487.87,196.31L485.11,198.86L483.27,200.76L480.97,206.49L475.45,207.13L472.23,209.03L470.85,210.94L469.93,214.76L469.93,217.3L470.85,223.03L463.95,225.57L458.89,228.12L457.51,230.66L457.05,233.21L457.51,235.75L451.07,238.3L447.85,238.93L444.63,242.11L441.41,243.39L439.11,245.93L437.73,248.47L434.04,246.57L431.74,246.57L428.06,247.84L425.3,249.75L422.54,252.93L419.78,254.84L417.48,254.84L413.8,255.47L408.74,259.29L402.76,266.92L398.16,269.47L395.86,272.01L393.56,272.65L390.34,274.56L387.12,280.28L383.44,279.01L379.76,280.28L375.16,280.92L371.02,282.19L365.96,285.37L361.81,286.64L350.77,290.46L349.85,288.55L349.39,285.37L348.01,283.46L346.17,282.19L342.95,281.55L332.83,282.82L328.69,283.46L326.85,284.73L324.55,287.91L323.63,291.09L319.49,291.73L317.19,293L314.43,293L306.15,296.18L302.93,289.82L293.27,265.01L290.97,257.38L289.59,255.47L287.74,254.2L285.44,253.56L280.84,254.84L279,256.11L277.16,258.65L276.7,261.2L273.94,258.65L270.26,258.02L267.04,258.65L264.74,260.56L262.9,263.11L261.06,267.56L255.54,271.37L253.7,274.56L252.32,279.01L252.78,282.82L255.08,287.91L259.22,289.82L261.52,296.82L264.74,305.09L267.5,308.91L262.9,310.18L257.84,309.54L254.16,310.18L245.88,308.91L241.28,307.63L235.76,308.27L233,307L229.32,307L223.8,308.27L219.2,307L215.98,307L213.21,307.63L203.09,308.27L201.71,307L197.57,307L194.81,305.09L191.59,304.45L185.15,305.73L177.33,305.09L175.03,305.73L168.13,307.63L166.29,307L163.53,306.36L160.31,306.36L155.71,308.91L152.95,307.63L147.89,308.27L141.91,308.91L137.3,306.36L133.16,305.73L130.86,305.73L129.02,304.45L126.26,303.82L117.52,304.45L113.84,305.09L106.02,302.54L101.88,301.27L99.12,300.64L94.06,297.46L89.46,296.18L85.32,295.55L82.1,296.18L80.26,294.27L76.12,294.27L72.44,294.91L70.6,296.18L69.68,298.09L69.22,300L70.14,305.09L64.15,306.36L56.33,307.63L54.95,307L53.11,301.27L51.27,298.09L49.43,296.82L47.13,296.18L41.61,298.09L39.77,299.36L37.01,303.18Z"/>

  <!-- minor streets -->
  <path fill="none" stroke="#D3CEC4" stroke-width="2" stroke-linejoin="round" stroke-linecap="round" d="M847.64,-100.77L778.17,-81.69L770.81,-75.33L765.29,-70.87L662.24,-41.61L679.72,15.01L668.22,12.47L646.13,-5.98L640.15,-9.8L616.69,-16.16L604.27,-40.34L601.51,-51.15L540.78,-33.97L522.84,-95.68L506.27,-152.3L618.53,-184.11"/>
  <path fill="none" stroke="#D3CEC4" stroke-width="2" stroke-linejoin="round" stroke-linecap="round" d="M618.53,-184.11L635.55,-126.86L644.75,-97.59L653.95,-65.78L662.24,-41.61"/>
  <path fill="none" stroke="#D3CEC4" stroke-width="2" stroke-linejoin="round" stroke-linecap="round" d="M877.08,382.69L767.13,415.77L752.87,375.06L774.95,361.7L796.11,350.89L816.82,343.26L861.44,329.9"/>
  <path fill="none" stroke="#D3CEC4" stroke-width="2" stroke-linejoin="round" stroke-linecap="round" d="M504.89,455.84L554.12,625.68L608.41,610.41L679.26,589.42L732.62,574.79L744.13,571.61L769.43,565.25L790.13,569.07L804.85,565.89L785.99,501.64L782.31,464.11L767.13,415.77"/>
  <path fill="none" stroke="#D3CEC4" stroke-width="2" stroke-linejoin="round" stroke-linecap="round" d="M553.66,417.04L559.64,439.94L608.41,610.41L656.25,778.33"/>
  <path fill="none" stroke="#D3CEC4" stroke-width="2" stroke-linejoin="round" stroke-linecap="round" d="M6.65,193.13L-55.92,211.58"/>
  <path fill="none" stroke="#D3CEC4" stroke-width="2" stroke-linejoin="round" stroke-linecap="round" d="M-55.92,211.58L-31.54,296.18L-22.34,303.18L13.55,296.82L18.61,290.46L14.93,266.92L4.81,230.03L7.11,224.3L14.93,222.39"/>
  <path fill="none" stroke="#D3CEC4" stroke-width="2" stroke-linejoin="round" stroke-linecap="round" d="M-3.93,156.24L49.43,140.97L76.12,237.02L80.72,251.02L86.24,266.92L91.76,274.56L103.26,284.1L111.08,287.28L129.02,289.82L159.39,282.19"/>
  <path fill="none" stroke="#D3CEC4" stroke-width="2" stroke-linejoin="round" stroke-linecap="round" d="M294.65,528.36L296.95,536.63L330.99,654.3L341.11,670.2L389.42,656.84L394.02,672.11L446.47,656.84L398.16,486.38"/>
  <path fill="none" stroke="#D3CEC4" stroke-width="2" stroke-linejoin="round" stroke-linecap="round" d="M348.01,509.28L389.42,656.84"/>
  <path fill="none" stroke="#D3CEC4" stroke-width="2" stroke-linejoin="round" stroke-linecap="round" d="M-67.42,749.07L37.47,717.9L47.13,753.52"/>
  <path fill="none" stroke="#D3CEC4" stroke-width="2" stroke-linejoin="round" stroke-linecap="round" d="M95.9,504.19L140.53,491.47L199.41,474.93L211.37,471.11L248.64,462.21L223.34,371.88L217.82,346.44L265.66,347.07L293.73,345.8L300.63,343.89L296.49,340.71L276.7,270.1L279,255.47L282.68,251.66L282.68,270.1L298.33,327.35L307.53,337.53L317.65,340.07L300.63,343.89L298.33,327.35"/>
  <path fill="none" stroke="#D3CEC4" stroke-width="2" stroke-linejoin="round" stroke-linecap="round" d="M215.06,-96.32L204.93,-128.13"/>
  <path fill="none" stroke="#D3CEC4" stroke-width="2" stroke-linejoin="round" stroke-linecap="round" d="M23.21,251.02L76.12,237.02"/>
  <path fill="none" stroke="#D3CEC4" stroke-width="2" stroke-linejoin="round" stroke-linecap="round" d="M40.23,-89.32L45.75,-81.69L51.73,-68.96L51.73,-59.42L42.53,-42.24L45.29,-28.89L51.27,-21.89L70.6,-14.25L76.58,-11.71L83.94,-9.16L81.64,-1.53L85.32,14.37L116.14,122.52L185.61,104.07L165.83,32.19L165.37,27.1L158.47,20.1L83.94,-9.16"/>
  <path fill="none" stroke="#D3CEC4" stroke-width="2" stroke-linejoin="round" stroke-linecap="round" d="M763.45,29.64L753.33,-5.98L679.72,15.01L681.1,23.28L679.26,45.55L675.12,68.45L673.28,88.8L660.4,113.61L654.41,110.43L641.53,90.71L627.73,72.26L619.45,66.54L601.97,60.81L524.68,51.27L505.35,44.27L488.79,25.82L470.85,-13.62L468.55,-18.71L417.48,-191.75"/>
  <path fill="none" stroke="#D3CEC4" stroke-width="2" stroke-linejoin="round" stroke-linecap="round" d="M863.28,265.01L843.5,272.65L778.17,292.37L755.17,300.64L737.23,242.11L726.18,205.22L720.2,182.95"/>
  <path fill="none" stroke="#D3CEC4" stroke-width="2" stroke-linejoin="round" stroke-linecap="round" d="M788.75,-16.16L753.33,-5.98"/>
  <path fill="none" stroke="#D3CEC4" stroke-width="2" stroke-linejoin="round" stroke-linecap="round" d="M521,181.68L502.59,179.14L496.61,173.41L494.31,146.06L541.24,153.05L552.28,165.14L554.12,179.77L554.12,202.04L552.28,210.94L538.48,228.75L535.26,235.75L536.18,248.47L544.46,278.37L601.05,270.74L635.55,311.45L645.21,326.08L644.75,339.44L653.03,339.44L677.42,333.08L750.11,311.45L756.09,307L755.17,300.64"/>
  <path fill="none" stroke="#D3CEC4" stroke-width="2" stroke-linejoin="round" stroke-linecap="round" d="M226.1,13.74L171.35,27.1L165.37,27.1"/>
  <path fill="none" stroke="#D3CEC4" stroke-width="2" stroke-linejoin="round" stroke-linecap="round" d="M250.94,-194.93L263.36,-154.85L265.2,-151.03L267.04,-146.58L276.24,-119.22L283.14,-98.23L301.09,-36.52L319.03,22.64L321.79,30.91L315.35,32.82L280.84,33.46L245.88,37.28L291.89,193.77L363.66,172.78L374.24,208.4L372.4,217.3L370.1,219.21L306.61,241.48L291.89,193.77"/>
  <path fill="none" stroke="#D3CEC4" stroke-width="2" stroke-linejoin="round" stroke-linecap="round" d="M469.93,142.24L494.31,146.06"/>
  <path fill="none" stroke="#D3CEC4" stroke-width="2" stroke-linejoin="round" stroke-linecap="round" d="M264.28,252.93L223.34,244.66L220.12,248.47L228.86,279.64L227.48,287.91L216.9,290.46L186.07,284.73L180.55,282.19"/>
  <path fill="none" stroke="#D3CEC4" stroke-width="2" stroke-linejoin="round" stroke-linecap="round" d="M-41.66,23.28L11.25,8.65L49.43,140.97L116.14,122.52L138.68,200.13L144.67,202.67L159.39,198.86L164.91,202.04L174.57,235.75L223.34,244.66L225.18,240.2L185.61,104.07"/>
  <path fill="none" stroke="#D3CEC4" stroke-width="2" stroke-linejoin="round" stroke-linecap="round" d="M611.63,424.68L626.81,478.11L636.93,514.36L651.19,541.08L679.26,589.42L686.62,604.05L720.66,717.27L742.75,792.32"/>
  <path fill="none" stroke="#D3CEC4" stroke-width="2" stroke-linejoin="round" stroke-linecap="round" d="M438.65,205.85L451.99,201.4L458.89,191.22L457.97,184.23L442.33,137.79L429.9,126.34L403.68,121.88L382.06,113.61L369.18,104.71L358.13,103.44L344.33,106.62L363.66,172.78"/>
  <path fill="none" stroke="#D3CEC4" stroke-width="2" stroke-linejoin="round" stroke-linecap="round" d="M240.36,20.74L245.88,37.28"/>
  <path fill="none" stroke="#D3CEC4" stroke-width="2" stroke-linejoin="round" stroke-linecap="round" d="M300.63,343.89L325.47,431.04L329.15,436.13L379.76,422.13L426.68,408.77L433.58,407.5L456.13,402.41L468.09,396.05L487.41,390.33L541.24,375.06L514.56,280.92L515.02,273.28L503.51,272.01L457.97,287.91L459.35,291.09L487.41,390.33"/>
  <path fill="none" stroke="#D3CEC4" stroke-width="2" stroke-linejoin="round" stroke-linecap="round" d="M732.62,574.79L719.74,535.36L709.16,518.82L697.66,508.64L688.92,497.19L674.2,470.47L662.24,467.29L626.81,478.11"/>
  <path fill="none" stroke="#D3CEC4" stroke-width="2" stroke-linejoin="round" stroke-linecap="round" d="M352.61,327.35L364.12,366.16L363.66,382.69L371.94,393.51L379.76,422.13"/>
  <path fill="none" stroke="#D3CEC4" stroke-width="2" stroke-linejoin="round" stroke-linecap="round" d="M251.4,605.96L289.13,738.26L325.47,865.46"/>
  <path fill="none" stroke="#D3CEC4" stroke-width="2" stroke-linejoin="round" stroke-linecap="round" d="M233.46,545.53L225.18,518.82L221.04,504.19L216.9,490.19L211.37,471.11"/>
  <path fill="none" stroke="#D3CEC4" stroke-width="2" stroke-linejoin="round" stroke-linecap="round" d="M140.53,491.47L114.76,401.14L102.34,355.34L101.88,349.62L52.65,354.07L9.87,352.16L-14.98,350.89L-66.04,354.07"/>
  <path fill="none" stroke="#D3CEC4" stroke-width="2" stroke-linejoin="round" stroke-linecap="round" d="M601.51,-51.15L642.45,-61.97L653.95,-65.78"/>
  <path fill="none" stroke="#D3CEC4" stroke-width="2" stroke-linejoin="round" stroke-linecap="round" d="M470.85,-13.62L540.78,-33.97"/>
  <path fill="none" stroke="#D3CEC4" stroke-width="2" stroke-linejoin="round" stroke-linecap="round" d="M641.53,90.71L633.71,95.8L607.49,98.98L603.35,107.25L606.11,129.52L592.31,181.04L588.63,207.76L588.17,232.57L592.31,251.66L601.05,270.74L632.33,266.92L634.17,278.37L642.45,295.55L645.21,308.91L645.21,326.08"/>
  <path fill="none" stroke="#D3CEC4" stroke-width="2" stroke-linejoin="round" stroke-linecap="round" d="M636.93,230.03L642.91,230.03L726.18,205.22"/>
  <path fill="none" stroke="#D3CEC4" stroke-width="2" stroke-linejoin="round" stroke-linecap="round" d="M660.4,410.68L692.14,399.23L746.43,378.24L752.87,375.06"/>
  <path fill="none" stroke="#D3CEC4" stroke-width="2" stroke-linejoin="round" stroke-linecap="round" d="M306.61,241.48L290.51,247.2L282.68,251.66"/>
  <path fill="none" stroke="#D3CEC4" stroke-width="2" stroke-linejoin="round" stroke-linecap="round" d="M632.33,266.92L636.93,230.03L640.61,192.5L639.69,173.41L641.07,152.42L660.4,113.61"/>
  <path fill="none" stroke="#D3CEC4" stroke-width="2" stroke-linejoin="round" stroke-linecap="round" d="M541.24,375.06L579.88,364.25L607.95,355.34L631.87,348.98L639.69,348.98L644.75,339.44"/>
  <path fill="none" stroke="#D3CEC4" stroke-width="2" stroke-linejoin="round" stroke-linecap="round" d="M642.91,366.16L647.97,384.6L652.57,397.96L660.4,410.68"/>
  <path fill="none" stroke="#D3CEC4" stroke-width="2" stroke-linejoin="round" stroke-linecap="round" d="M546.76,288.55L544.46,278.37L532.5,279.64L515.02,273.28"/>
  <path fill="none" stroke="#D3CEC4" stroke-width="2" stroke-linejoin="round" stroke-linecap="round" d="M639.69,348.98L642.91,366.16"/>
  <path fill="none" stroke="#D3CEC4" stroke-width="2" stroke-linejoin="round" stroke-linecap="round" d="M101.88,349.62L164.45,346.44L217.82,346.44"/>
  <path fill="none" stroke="#D3CEC4" stroke-width="2" stroke-linejoin="round" stroke-linecap="round" d="M199.41,474.93L192.05,451.39L165.37,356.61L164.45,346.44"/>
  <path fill="none" stroke="#D3CEC4" stroke-width="2" stroke-linejoin="round" stroke-linecap="round" d="M405.06,307.63L352.61,327.35L317.65,340.07"/>
  <path fill="none" stroke="#D3CEC4" stroke-width="2" stroke-linejoin="round" stroke-linecap="round" d="M405.06,307.63L457.97,287.91"/>
  <path fill="none" stroke="#D3CEC4" stroke-width="2" stroke-linejoin="round" stroke-linecap="round" d="M532.5,279.64L546.76,288.55L561.48,301.27L607.95,355.34"/>
  <path fill="none" stroke="#D3CEC4" stroke-width="2" stroke-linejoin="round" stroke-linecap="round" d="M344.33,106.62L321.79,30.91"/>
  <path fill="none" stroke="#D3CEC4" stroke-width="2" stroke-linejoin="round" stroke-linecap="round" d="M382.06,113.61L382.98,123.16L392.64,128.25L403.68,121.88"/>
  <path fill="none" stroke="#D3CEC4" stroke-width="2" stroke-linejoin="round" stroke-linecap="round" d="M80.72,251.02L148.35,231.94L174.57,235.75"/>
  <path fill="none" stroke="#D3CEC4" stroke-width="2" stroke-linejoin="round" stroke-linecap="round" d="M248.64,462.21L277.62,455.21L288.2,443.12L293.27,439.94L325.47,431.04"/>
  <path fill="none" stroke="#D3CEC4" stroke-width="2" stroke-linejoin="round" stroke-linecap="round" d="M233.46,545.53L251.4,605.96"/>
  <path fill="none" stroke="#D3CEC4" stroke-width="2" stroke-linejoin="round" stroke-linecap="round" d="M639.69,173.41L668.22,165.78L708.7,147.33"/>

  <!-- major streets -->
  <path fill="none" stroke="#B8B2A7" stroke-width="3.5" stroke-linejoin="round" stroke-linecap="round" d="M734.93,-197.47L754.25,-131.31L788.75,-16.16L853.62,207.13"/>
  <path fill="none" stroke="#B8B2A7" stroke-width="3.5" stroke-linejoin="round" stroke-linecap="round" d="M181.01,804.41L117.06,579.88L106.02,540.44L101.42,523.91L80.72,452.03L52.65,354.07L-3.93,156.24L-9,138.42L-26.02,77.35L-27.4,72.9L-29.24,67.18L-35.22,46.18L-41.66,23.28L-62.36,-51.79"/>
  <path fill="none" stroke="#B8B2A7" stroke-width="3.5" stroke-linejoin="round" stroke-linecap="round" d="M-62.36,-51.79L-10.38,-65.78L45.75,-81.69L72.9,-89.96L82.56,-91.87L151.57,-110.95L204.93,-128.13L233,-137.04L267.04,-146.58L330.99,-166.94"/>
  <path fill="none" stroke="#B8B2A7" stroke-width="3.5" stroke-linejoin="round" stroke-linecap="round" d="M414.72,-200.65L277.16,-158.67L263.36,-154.85L181.47,-129.4L157.55,-124.31L97.74,-105.86L84.86,-102.05L40.23,-89.32L-37.06,-68.33L-64.66,-60.69"/>
  <path fill="none" stroke="#B8B2A7" stroke-width="3.5" stroke-linejoin="round" stroke-linecap="round" d="M660.4,410.68L693.98,441.85L738.61,483.2L751.49,491.47L768.51,498.46L785.99,501.64L809,502.92L850.4,502.92"/>
  <path fill="none" stroke="#B8B2A7" stroke-width="3.5" stroke-linejoin="round" stroke-linecap="round" d="M405.06,307.63L433.58,407.5L439.57,429.13L442.79,439.94L451.53,471.11L483.27,577.97L500.75,641.58L506.27,660.66L534.34,761.15L558.26,844.47"/>
  <path fill="none" stroke="#B8B2A7" stroke-width="3.5" stroke-linejoin="round" stroke-linecap="round" d="M-75.7,637.13L-18.66,621.86L7.57,613.59L89.92,588.15L117.06,579.88L140.99,572.88L161.69,567.16L233.46,545.53L294.65,528.36L336.51,516.27L348.01,509.28L374.7,492.74L398.16,486.38L424.84,478.74L451.53,471.11L479.59,462.84L504.89,455.84L559.64,439.94L611.63,424.68L628.19,419.59L642.45,415.77L660.4,410.68"/>

  <!-- rail -->
  <path fill="none" stroke="#D3CEC4" stroke-width="1.5" stroke-linejoin="round" stroke-linecap="round" stroke-dasharray="4,4" d="M98.2,532.81L-217.86,624.4"/>
  <path fill="none" stroke="#D3CEC4" stroke-width="1.5" stroke-linejoin="round" stroke-linecap="round" stroke-dasharray="4,4" d="M227.94,495.28L213.67,499.73L109.24,529.63L98.2,532.81"/>
  <path fill="none" stroke="#D3CEC4" stroke-width="1.5" stroke-linejoin="round" stroke-linecap="round" stroke-dasharray="4,4" d="M862.82,276.46L792.89,317.18L730.78,345.8L693.98,359.79L653.49,372.52L637.39,377.61L448.31,431.67L434.04,436.13L266.12,485.1L227.94,495.28"/>
  <path fill="none" stroke="#D3CEC4" stroke-width="1.5" stroke-linejoin="round" stroke-linecap="round" stroke-dasharray="4,4" d="M-218.32,621.86L98.2,530.9L108.78,527.72L212.75,497.83L227.02,493.37L433.58,434.22L446.93,429.77L614.39,381.42L636.47,375.06L652.57,370.61L693.52,357.25L752.41,333.71L775.87,322.9L808.07,306.36L860.52,275.19"/>
  <path fill="none" stroke="#D3CEC4" stroke-width="1.5" stroke-linejoin="round" stroke-linecap="round" stroke-dasharray="4,4" d="M614.39,381.42L598.29,383.33L446.47,427.86L433.12,431.67L227.02,490.83L211.83,495.28L108.32,525.18L97.28,528.36L-114.81,590.06"/>

  <!-- buried streams (culverted / underground) -->
  <path fill="none" stroke="#3994C1" stroke-width="1" stroke-linejoin="round" stroke-linecap="round" stroke-dasharray="5,4" d="M396.32,44.27L402.3,39.82"/>

  <!-- buried rivers (culverted / underground) -->
  <!-- buried rivers: none in view -->

  <!-- streams -->
  <path fill="none" stroke="#3994C1" stroke-width="1.25" stroke-linejoin="round" stroke-linecap="round" d="M484.19,83.72L511.33,83.72L536.64,90.71L567,93.26"/>
  <path fill="none" stroke="#3994C1" stroke-width="1.25" stroke-linejoin="round" stroke-linecap="round" d="M95.44,-79.14L111.54,-56.88L152.95,-43.52L172.27,-33.34L238.06,-18.07L265.2,-4.71L293.73,-0.26L339.27,21.37L367.34,43L396.32,44.27"/>
  <path fill="none" stroke="#3994C1" stroke-width="1.25" stroke-linejoin="round" stroke-linecap="round" d="M402.3,39.82L424.38,40.46L440.95,51.27L453.37,70.36L484.19,83.72"/>
  <path fill="none" stroke="#3994C1" stroke-width="1.25" stroke-linejoin="round" stroke-linecap="round" d="M136.38,-90.59L167.67,-72.14L233.46,-49.24L244.96,-32.7L265.2,-16.8L265.2,-4.71"/>

  <!-- rivers -->
  <!-- rivers: none in view -->

  <!-- threshold marker -->
  <circle cx="401.5" cy="302" r="16" fill="#00000026" filter="url(#mshad)"/>
  <circle cx="400" cy="300" r="16" fill="#DE3A11" stroke="#27241D" stroke-width="1.5"/>
  <circle cx="400" cy="300" r="5" fill="#FFFFFF"/>

  <!-- scale bar: 200m -->
  <g fill="none" stroke="#857F72" stroke-width="1.25" stroke-linecap="round">
    <line x1="20" y1="578" x2="134.29" y2="578"/>
    <line x1="20" y1="572" x2="20" y2="578"/>
    <line x1="134.29" y1="572" x2="134.29" y2="578"/>
  </g>
  <text x="77.14" y="569" fill="#857F72" font-size="10" text-anchor="middle">200m</text>

  <!-- north indicator (halo keeps it visible over street linework) -->
  <circle cx="768" cy="36" r="22" fill="#FAF6EC" fill-opacity="0.9" stroke="#857F72" stroke-opacity="0.3" stroke-width="1"/>
  <g fill="#857F72" stroke="#857F72" stroke-width="2">
    <line x1="768" y1="42" x2="768" y2="24" stroke-linecap="round"/>
    <polygon points="768,16 762.5,27 773.5,27" stroke-width="1" stroke-linejoin="round"/>
  </g>
  <text x="768" y="55" fill="#857F72" font-size="13" text-anchor="middle" font-weight="700">N</text>
</svg>