<svg xmlns="http://www.w3.org/2000/svg" viewBox="0 0 800 600" width="800" height="600">
  <defs>
    <filter id="mshad" x="-40%" y="-40%" width="180%" height="180%">
      <feDropShadow dx="1.5" dy="2" stdDeviation="2.5" flood-color="#00000033"/>
    </filter>
    <style>text { font-family: Archivo, sans-serif; }</style>
  </defs>

  <!-- background -->
  <rect width="800" height="600" fill="#FAF6EC"/>

  <!-- lake ontario -->
  <!-- lake: none in view -->

  <!-- ESA (environmentally sensitive areas) -->
  <path fill="#147D64" fill-opacity="0.85" stroke="#0C6B58" stroke-width="1" stroke-linejoin="round" stroke-linecap="round" d="M727.32,651.75L711.71,637.13L679.12,612.96L662.13,602.78L643.31,596.42L625.4,591.97L607.5,591.97L590.52,595.15L573.53,601.51L558.38,610.41L542.77,617.41L523.95,625.04L492.73,642.21L476.67,649.85L460.6,654.94L442.23,654.94L432.59,654.3L417.9,649.21L405.05,647.3L390.82,642.21L377.05,633.95L365.11,626.31L349.04,617.41L336.19,606.59L330.22,596.42L324.25,599.6L321.04,605.96L303.59,623.13L283.85,644.12L271,658.75L255.39,674.65L232.9,693.1L231.98,697.55L269.16,694.37L302.68,694.37L349.04,699.46L412.81,699.98L419.28,698.19L444.99,685.47L464.27,677.83L477.58,672.11L496.86,672.11L508.8,668.93L521.2,663.2L529.92,661.3L536.8,664.48L545.53,664.48L554.25,667.02L565.27,677.83L582.71,685.47L590.06,693.1L598.32,695.01L607.5,692.46L615.76,693.73L620.98,699.98L800,699.98L800,693.23L779.19,686.74L760.83,677.2L743.39,664.48L727.32,651.75Z"/>
  <path fill="#147D64" fill-opacity="0.85" stroke="#0C6B58" stroke-width="1" stroke-linejoin="round" stroke-linecap="round" d="M0,547.69L5.66,542.99L17.13,529.63L27.69,515.64L49.27,482.56L54.32,471.75L60.29,466.66L65.79,464.75L74.98,464.75L80.94,467.93L91.04,478.11L110.32,478.11L119.97,476.2L125.93,469.84L129.15,457.12L135.57,452.66L145.67,453.3L155.77,455.84L166.79,467.93L175.97,467.93L186.53,465.39L188.37,450.12L193.88,452.03L202.6,446.3L209.03,447.58L212.7,452.03L197.09,470.47L196.17,482.56L198.01,489.56L201.68,495.28L210.86,502.92L217.75,499.1L239.78,481.92L265.95,465.39L273.75,456.48L282.94,452.03L298.54,446.94L311.86,440.58L329.76,424.04L329.3,418.32L332.52,403.05L332.06,396.05L339.4,381.42L343.53,370.61L342.62,361.07L333.43,347.71L321.96,333.71L304.05,333.08L296.25,334.35L266.41,335.62L253.56,347.71L243.92,350.25L230.14,350.89L211.32,353.43L205.35,357.25L195.71,375.06L182.86,386.51L176.89,397.32L166.33,406.23L156.69,411.95L146.59,410.68L135.57,405.59L128.69,404.96L106.65,413.86L89.67,418.95L82.32,420.22L75.89,417.68L71.3,411.32L65.79,395.42L65.34,387.78L67.63,372.52L71.3,368.7L83.24,366.79L97.93,359.16L107.11,349.62L114.92,338.8L124.1,333.71L139.71,328.63L153.48,321.63L164.5,312.72L175.05,301.27L181.94,291.73L190.2,276.46L200.76,250.38L203.98,240.2L209.48,230.66L216.37,223.03L225.55,218.58L234.27,217.3L245.29,220.48L257.23,226.85L264.11,235.12L266.87,245.93L270.54,267.56L275.59,289.19L280.18,296.82L286.15,302.54L294.87,307L309.56,308.91L325.63,305.09L339.4,305.09L377.96,294.91L385.77,296.18L403.67,307L425.71,303.18L437.18,303.18L448.2,300.64L472.07,282.19L482.17,276.46L484.47,270.74L479.88,263.11L474.37,259.92L461.52,247.2L451.88,236.39L441.78,226.85L428.92,212.22L416.07,201.4L403.21,191.86L389.44,184.23L384.39,184.86L376.13,195.68L371.08,197.58L360.98,209.67L351.34,213.49L343.53,207.76L334.35,205.22L323.33,205.22L318.74,216.67L310.94,228.12L298.09,228.75L291.2,220.48L293.5,209.03L286.61,198.86L267.33,197.58L261.36,194.4L260.44,189.31L253.1,180.41L244.37,174.05L232.9,168.32L220.96,170.87L209.03,174.68L195.71,174.05L186.99,169.59L184.69,163.87L186.07,154.96L181.48,146.69L164.95,140.97L159.45,137.79L149.81,126.97L137.87,108.52L130.07,105.98L123.18,91.98L113.08,99.62L100.68,104.07L92.42,98.35L86.45,100.25L80.03,95.8L75.89,84.99L70.84,76.08L81.4,63.99L77.73,53.18L75.89,37.91L69.47,23.28L56.15,29.64L51.56,41.09L54.78,53.18L46.97,64.63L38.71,63.36L3.36,68.45L0,68.58Z"/>

  <!-- ravine / landscape -->
  <path fill="#147D64" fill-opacity="0.95" stroke="#0C6B58" stroke-width="1.5" stroke-linejoin="round" stroke-linecap="round" d="M0,552.97L4.28,548.71L7.49,542.99L11.17,537.9L13.92,535.99L15.3,533.45L19.43,530.27L23.1,526.45L27.69,520.09L32.28,511.18L32.74,509.28L33.2,504.82L35.04,502.28L39.17,499.1L43.76,494.01L48.35,490.83L54.32,485.1L110.32,588.78L164.95,546.8L166.79,548.08L171.38,553.8L173.22,555.07L175.51,555.71L179.64,555.07L181.02,559.53L185.61,564.61L188.37,566.52L190.66,567.16L192.96,566.52L198.47,562.71L203.52,560.16L213.16,555.71L217.29,553.17L219.58,551.89L225.09,548.08L231.52,545.53L229.22,553.17L230.14,556.35L234.73,562.71L242.08,571.61L243.92,572.88L246.21,573.52L249.88,572.25L271.46,555.07L316.91,519.45L335.27,504.82L366.03,479.38L376.59,470.47L387.61,461.57L412.39,441.85L425.71,431.67L428,436.13L431.68,438.67L434.43,439.31L435.35,445.67L438.56,456.48L433.05,460.93L431.68,463.48L431.22,466.02L431.68,467.93L433.97,471.11L435.81,472.38L438.1,473.02L433.97,477.47L430.3,481.92L412.39,501.01L405.05,508.64L400.92,511.82L393.57,516.91L385.31,523.91L376.13,532.17L355.47,551.89L343.53,563.34L323.79,584.33L314.61,593.87L310.02,598.96L309.1,605.32L309.56,608.5L283.85,633.31L222.34,693.73L224.14,699.98L253.94,699.98L269.62,694.37L272.38,697.55L277.89,695.64L286.15,692.46L296.25,688.65L304.97,689.28L315.99,690.55L318.28,689.92L323.79,693.1L330.68,696.91L334.35,699.46L453.62,699.98L456.47,695.64L457.84,692.46L458.76,688.65L458.3,685.47L464.27,684.19L469.32,682.29L475.75,679.11L484.47,680.38L489.98,679.74L494.57,677.83L497.78,679.11L502.37,679.74L504.21,679.11L508.34,677.2L513.85,673.38L517.06,673.38L517.52,685.47L517.98,687.37L520.28,691.19L523.95,693.1L529.92,696.28L534.05,697.55L536.8,697.55L546.44,695.01L548.28,695.64L552.87,697.55L557.91,699.98L800,699.98L800,692.59L778.74,686.74L760.37,676.56L742.93,664.48L727.32,651.12L711.25,636.49L695.18,624.4L678.66,612.32L662.13,602.14L643.31,595.78L625.4,591.33L607.04,591.33L590.52,594.51L573.07,600.87L557.92,609.78L542.31,616.77L523.95,624.4L508.8,632.04L492.73,641.58L476.67,649.21L461.06,654.3L445.45,659.39L431.22,661.93L422.95,651.75L424.33,635.85L433.05,621.22L445.45,606.59L458.76,593.87L470.24,578.61L480.8,563.34L489.52,547.44L499.62,531.54L504.21,516.27L502.83,496.55L494.11,481.29L485.39,464.11L480.8,455.21L474.83,439.31L471.16,422.77L470.7,405.59L472.53,389.69L474.83,372.52L479.88,357.89L486.31,342.62L491.36,326.08L493.19,310.18L492.27,297.46L489.52,288.55L488.6,283.46L488.6,278.37L487.22,272.65L484.47,268.19L466.57,252.29L454.17,239.57L441.78,226.85L428.92,211.58L416.07,200.76L401.84,193.13L385.31,191.22L371.08,197.58L360.98,209.03L349.04,214.12L336.65,206.49L323.33,204.58L318.28,216.03L310.48,227.48L297.63,228.12L291.2,219.85L293.5,208.4L286.61,198.22L273.75,198.22L261.82,196.31L260.44,188.68L254.93,182.32L253.1,179.77L244.37,173.41L232.44,167.69L220.96,170.23L209.03,174.05L195.71,173.41L184.24,167.05L186.07,154.33L181.48,146.06L169.55,142.24L156.23,137.79L150.72,128.25L141.08,119.98L129.15,104.07L122.72,91.35L113.08,98.98L100.23,104.07L92.42,97.71L80.03,101.53L69.01,91.98L70.84,75.45L81.4,63.36L77.73,52.54L75.89,37.28L69.47,22.64L56.15,29.01L51.56,41.09L54.78,52.54L46.51,64.63L27.23,65.9L9.33,67.81L0,68.44Z"/>

  <!-- minor streets -->
  <path fill="none" stroke="#D3CEC4" stroke-width="2" stroke-linejoin="round" stroke-linecap="round" d="M748.9,432.31L728.24,358.52L718.14,319.72L769.09,303.82L890.29,266.29"/>
  <path fill="none" stroke="#D3CEC4" stroke-width="2" stroke-linejoin="round" stroke-linecap="round" d="M-59.99,621.86L-18.22,593.24L1.07,632.67L17.59,660.66L26.31,661.93L56.15,635.85L56.61,626.95L46.97,612.32L28.15,576.06L17.59,563.34L33.66,546.8L49.73,528.36L69.01,546.17L91.04,591.97L108.03,611.05L111.7,615.5"/>
  <path fill="none" stroke="#D3CEC4" stroke-width="2" stroke-linejoin="round" stroke-linecap="round" d="M69.47,496.55L57.99,517.54L49.73,528.36"/>
  <path fill="none" stroke="#D3CEC4" stroke-width="2" stroke-linejoin="round" stroke-linecap="round" d="M296.71,-96.96L287.99,-102.05L283.4,-119.22"/>
  <path fill="none" stroke="#D3CEC4" stroke-width="2" stroke-linejoin="round" stroke-linecap="round" d="M514.77,-43.52L527.62,-37.16L569.86,-4.71L587.3,9.28L570.32,24.55L528.54,37.28L519.82,39.82L487.22,51.91L416.53,76.08L397.7,31.55L403.21,24.55L470.7,3.56L455.09,-41.61L383.01,-18.71L372.46,-13.62L360.52,-2.17L355.93,-0.89L302.22,-29.52L294.41,-33.97L283.4,-40.34L254.93,-61.97L248.05,-68.33L226.47,-133.85L201.68,-215.29"/>
  <path fill="none" stroke="#D3CEC4" stroke-width="2" stroke-linejoin="round" stroke-linecap="round" d="M381.18,-90.59L387.15,-69.6L433.97,-83.6L431.68,-116.68L424.33,-133.22L415.61,-161.85"/>
  <path fill="none" stroke="#D3CEC4" stroke-width="2" stroke-linejoin="round" stroke-linecap="round" d="M739.25,-81.05L747.98,-53.06L746.6,-47.97L696.1,-32.07L668.56,-25.7L686.46,33.46L691.97,51.91L707.12,99.62L719.06,139.06L724.56,175.32L731.45,209.03L738.34,230.03L746.14,245.93L760.83,275.83L769.09,303.82L836.12,522L842.55,544.26L847.6,558.25"/>
  <path fill="none" stroke="#D3CEC4" stroke-width="2" stroke-linejoin="round" stroke-linecap="round" d="M179.19,549.98L192.04,592.6"/>
  <path fill="none" stroke="#D3CEC4" stroke-width="2" stroke-linejoin="round" stroke-linecap="round" d="M571.69,209.03L575.82,226.21L586.84,254.2"/>
  <path fill="none" stroke="#D3CEC4" stroke-width="2" stroke-linejoin="round" stroke-linecap="round" d="M842.55,544.26L829.23,545.53L819.13,541.08L754.86,495.92L728.7,478.11L637.8,414.5L632.29,406.87L618.52,357.25L621.73,350.25L630.91,345.8L695.18,326.72L718.14,319.72"/>
  <path fill="none" stroke="#D3CEC4" stroke-width="2" stroke-linejoin="round" stroke-linecap="round" d="M613.93,-206.38L668.56,-25.7"/>
  <path fill="none" stroke="#D3CEC4" stroke-width="2" stroke-linejoin="round" stroke-linecap="round" d="M294.41,-33.97L308.19,-58.79L313.69,-62.6L337.57,-69.6L344.45,-68.96L360.06,-61.33L387.15,-69.6"/>
  <path fill="none" stroke="#D3CEC4" stroke-width="2" stroke-linejoin="round" stroke-linecap="round" d="M686.46,33.46L647.9,45.55L631.37,42.36L587.3,9.28"/>
  <path fill="none" stroke="#D3CEC4" stroke-width="2" stroke-linejoin="round" stroke-linecap="round" d="M487.22,51.91L470.7,3.56"/>
  <path fill="none" stroke="#D3CEC4" stroke-width="2" stroke-linejoin="round" stroke-linecap="round" d="M416.53,76.08L428.46,104.07L455.55,128.25L468.86,144.15L481.72,153.05L486.76,153.69L510.64,144.78L512.93,139.06L495.49,77.99L487.22,51.91"/>
  <path fill="none" stroke="#D3CEC4" stroke-width="2" stroke-linejoin="round" stroke-linecap="round" d="M455.09,-41.61L440.86,-65.15L433.97,-83.6"/>

  <!-- major streets -->
  <path fill="none" stroke="#B8B2A7" stroke-width="3.5" stroke-linejoin="round" stroke-linecap="round" d="M64.88,831.75L150.26,747.16L192.96,705.82L229.68,672.74L284.31,620.59L332.06,574.16L444.07,469.2L525.79,400.5L599.24,341.98L749.81,225.57L891.67,98.98"/>
  <path fill="none" stroke="#B8B2A7" stroke-width="3.5" stroke-linejoin="round" stroke-linecap="round" d="M881.57,51.91L829.69,97.71L734.66,184.86L683.25,230.66L599.24,292.37L523.49,350.25L474.37,390.33L429.84,427.86L418.82,438.03L315.07,523.27L221.42,609.14L144.3,689.28L25.4,815.22"/>
  <path fill="none" stroke="#B8B2A7" stroke-width="3.5" stroke-linejoin="round" stroke-linecap="round" d="M857.24,112.98L742.47,216.03L675.44,269.47L521.65,387.15L443.15,452.66L394.49,493.37L372,512.46L284.77,593.24L166.33,708.36L96.55,777.06"/>
  <path fill="none" stroke="#B8B2A7" stroke-width="3.5" stroke-linejoin="round" stroke-linecap="round" d="M854.48,99.62L772.77,171.5L718.14,216.03L658.92,265.65L602.91,307L568.02,333.71L517.98,372.52L439.94,437.4L383.93,488.29L347.21,520.73L204.43,656.84L131.9,729.35L9.79,843.2"/>
  <path fill="none" stroke="#B8B2A7" stroke-width="3.5" stroke-linejoin="round" stroke-linecap="round" d="M-29.69,770.7L-21.43,759.88L-7.2,754.16L12.54,760.52L22.64,775.78"/>
  <path fill="none" stroke="#B8B2A7" stroke-width="3.5" stroke-linejoin="round" stroke-linecap="round" d="M20.35,806.95L79.57,745.89L145.67,675.29L177.81,640.31L218.67,597.69L273.3,551.26L315.07,523.27"/>
  <path fill="none" stroke="#B8B2A7" stroke-width="3.5" stroke-linejoin="round" stroke-linecap="round" d="M332.06,574.16L321.5,591.33L289.36,624.4L185.15,724.26L69.01,845.11"/>
  <path fill="none" stroke="#B8B2A7" stroke-width="3.5" stroke-linejoin="round" stroke-linecap="round" d="M144.3,689.28L158.99,681.01L220.04,621.86L314.61,539.81L366.03,495.92L383.93,488.29"/>
  <path fill="none" stroke="#B8B2A7" stroke-width="3.5" stroke-linejoin="round" stroke-linecap="round" d="M394.49,493.37L386.23,507.37L226.93,667.02L192.96,705.82"/>
  <path fill="none" stroke="#B8B2A7" stroke-width="3.5" stroke-linejoin="round" stroke-linecap="round" d="M718.14,216.03L739.25,192.5L783.33,149.87L833.82,105.98L934.36,20.1"/>
  <path fill="none" stroke="#B8B2A7" stroke-width="3.5" stroke-linejoin="round" stroke-linecap="round" d="M9.33,696.28L16.21,701.37L43.76,725.54L52.02,728.72L65.34,728.08L79.57,722.36L98.85,709.64L127.77,687.37L177.81,640.31"/>
  <path fill="none" stroke="#B8B2A7" stroke-width="3.5" stroke-linejoin="round" stroke-linecap="round" d="M560.68,170.87L570.32,184.23L579.96,186.13L596.02,179.77"/>
  <path fill="none" stroke="#B8B2A7" stroke-width="3.5" stroke-linejoin="round" stroke-linecap="round" d="M124.1,595.78L127.77,601.51"/>
  <path fill="none" stroke="#B8B2A7" stroke-width="3.5" stroke-linejoin="round" stroke-linecap="round" d="M-64.58,774.51L-30.15,742.71L-16.84,724.9L0.15,709L7.49,709.64L16.21,701.37L63.96,659.39L98.39,627.58L111.7,615.5L122.72,605.32L127.77,601.51L146.59,583.7L181.02,555.71L221.42,524.54L348.58,435.49L399.54,395.42L444.99,347.71L498.7,288.55L532.21,251.66L571.69,209.03L587.3,193.77L596.02,179.77L569.86,202.67L528.08,248.47L496.41,283.46L440.4,345.16L393.11,394.14L346.29,430.4L285.69,473.02L198.47,536.63L179.19,549.98L124.1,595.78L108.03,611.05L46.97,665.75L9.33,696.28L0.15,709"/>
  <path fill="none" stroke="#B8B2A7" stroke-width="3.5" stroke-linejoin="round" stroke-linecap="round" d="M816.38,36L746.14,76.08L707.12,99.62L655.7,133.33L643.77,140.97L627.24,153.05L596.02,179.77"/>
  <path fill="none" stroke="#B8B2A7" stroke-width="3.5" stroke-linejoin="round" stroke-linecap="round" d="M571.69,209.03L569.86,202.67L560.68,170.87L555.17,154.96L542.31,114.25L533.59,84.35L519.82,39.82L499.16,-30.79L472.07,-115.41L436.27,-234.37"/>

  <!-- rail -->
  <!-- rail: none in view -->

  <!-- buried streams (culverted / underground) -->
  <!-- buried streams: none in view -->

  <!-- buried rivers (culverted / underground) -->
  <!-- buried rivers: none in view -->

  <!-- streams -->
  <path fill="none" stroke="#3994C1" stroke-width="1.25" stroke-linejoin="round" stroke-linecap="round" d="M93.34,-86.14L122.72,-75.96L131.44,-35.25L136.49,6.74L154.4,30.28L177.81,43L179.19,81.17L197.09,104.71L210.86,112.34L248.05,104.07L272.38,89.44L301.3,88.17L321.04,122.52L327.47,144.78L327.93,202.04"/>
  <path fill="none" stroke="#3994C1" stroke-width="1.25" stroke-linejoin="round" stroke-linecap="round" d="M571.69,532.81L617.6,541.72L651.57,562.71L654.79,588.78"/>
  <path fill="none" stroke="#3994C1" stroke-width="1.25" stroke-linejoin="round" stroke-linecap="round" d="M764.5,-171.39L787.46,-141.49L802.15,-130.67L798.93,-107.13L820.97,-111.59L822.81,-86.78L843.01,-85.5L859.99,-94.41"/>
  <path fill="none" stroke="#3994C1" stroke-width="1.25" stroke-linejoin="round" stroke-linecap="round" d="M867.8,-36.52L845.76,-30.79L859.53,-11.07"/>
  <path fill="none" stroke="#3994C1" stroke-width="1.25" stroke-linejoin="round" stroke-linecap="round" d="M-58.15,70.36L-13.17,70.36L22.18,77.99L139.25,122.52L161.28,138.42L189.29,149.87L195.25,173.41L243,174.05L264.11,193.13L297.17,209.03L293.04,217.94L305.89,233.84L317.83,223.67L327.93,202.04L348.58,212.85L369.7,203.31L377.96,189.31L393.57,186.13L422.95,202.04L451.42,235.12L462.43,240.84L473.91,259.29L492.73,273.92L502.37,307"/>

  <!-- rivers -->
  <path fill="none" stroke="#3994C1" stroke-width="2" stroke-linejoin="round" stroke-linecap="round" d="M-47.6,443.12L-37.96,432.31L-6.74,434.85L18.51,418.95L18.05,384.6L24.48,362.34L43.3,345.16L61.66,343.26L64.42,368.06L74.98,373.79L97.01,368.7L118.59,345.8L160.36,326.72L170.92,316.54L195.25,280.92L214.99,234.48L231.06,223.03L258.15,228.12L262.74,236.39L274.67,292.37L298.09,312.09L343.99,311.45L377.51,298.09L414.23,314.63L457.38,304.45L488.6,287.28L502.37,307L499.62,324.81L480.8,375.7L475.29,415.13L481.26,448.85L507.42,499.73L508.34,523.27L463.81,590.69L432.59,621.22L424.33,647.94L432.14,660.02L456.01,656.21L529,625.68L597.4,590.06L637.34,590.06L661.67,599.6L691.51,618.68L744.76,662.57L775.06,682.92L808.58,696.28L823.72,696.28L875.14,686.1"/>

  <!-- threshold marker -->
  <circle cx="401.5" cy="302" r="16" fill="#00000026" filter="url(#mshad)"/>
  <circle cx="400" cy="300" r="16" fill="#DE3A11" stroke="#27241D" stroke-width="1.5"/>
  <circle cx="400" cy="300" r="5" fill="#FFFFFF"/>

  <!-- scale bar: 200m -->
  <g fill="none" stroke="#857F72" stroke-width="1.25" stroke-linecap="round">
    <line x1="20" y1="578" x2="134.29" y2="578"/>
    <line x1="20" y1="572" x2="20" y2="578"/>
    <line x1="134.29" y1="572" x2="134.29" y2="578"/>
  </g>
  <text x="77.14" y="569" fill="#857F72" font-size="10" text-anchor="middle">200m</text>

  <!-- north indicator (halo keeps it visible over street linework) -->
  <circle cx="768" cy="36" r="22" fill="#FAF6EC" fill-opacity="0.9" stroke="#857F72" stroke-opacity="0.3" stroke-width="1"/>
  <g fill="#857F72" stroke="#857F72" stroke-width="2">
    <line x1="768" y1="42" x2="768" y2="24" stroke-linecap="round"/>
    <polygon points="768,16 762.5,27 773.5,27" stroke-width="1" stroke-linejoin="round"/>
  </g>
  <text x="768" y="55" fill="#857F72" font-size="13" text-anchor="middle" font-weight="700">N</text>
</svg>