<svg xmlns="http://www.w3.org/2000/svg" viewBox="0 0 800 600" width="800" height="600">
  <defs>
    <filter id="mshad" x="-40%" y="-40%" width="180%" height="180%">
      <feDropShadow dx="1.5" dy="2" stdDeviation="2.5" flood-color="#00000033"/>
    </filter>
    <style>text { font-family: Archivo, sans-serif; }</style>
  </defs>

  <!-- background -->
  <rect width="800" height="600" fill="#FAF6EC"/>

  <!-- lake ontario -->
  <!-- lake: none in view -->

  <!-- ESA (environmentally sensitive areas) -->
  <path fill="#147D64" fill-opacity="0.85" stroke="#0C6B58" stroke-width="1" stroke-linejoin="round" stroke-linecap="round" d="M258.79,312.72L264.77,313.36L267.07,317.18L271.21,317.81L294.67,312.09L300.19,313.36L313.53,305.73L335.6,308.91L346.64,320.99L352.62,323.54L359.52,316.54L359.98,310.81L352.16,294.91L345.26,288.55L329.62,283.46L295.13,280.28L273.51,285.37L265.23,292.37L261.55,295.55L254.19,301.91L255.11,307.63L258.79,312.72Z"/>
  <path fill="#147D64" fill-opacity="0.85" stroke="#0C6B58" stroke-width="1" stroke-linejoin="round" stroke-linecap="round" d="M329.39,-100.02L314.45,-79.14L302.95,-57.51L296.51,-42.24L294.21,-31.43L294.21,-18.07L296.51,-6.62L319.05,1.01L348.48,8.01L370.56,15.01L379.76,3.56L388.96,-4.07L391.26,-12.98L388.5,-26.98L384.36,-39.06L382.52,-50.52L381.14,-87.41L386.8,-100.02L631.87,-100.02L640.1,-98.23L649.76,-94.41L657.51,-100.02Z"/>
  <path fill="#147D64" fill-opacity="0.85" stroke="#0C6B58" stroke-width="1" stroke-linejoin="round" stroke-linecap="round" d="M267.07,317.18L264.77,313.36L258.79,312.72L248.21,312.72L229.81,320.36L221.07,312.09L225.67,301.27L233.49,294.91L246.83,292.37L261.55,295.55L265.23,292.37L263.39,259.92L238.55,266.92L227.51,272.65L211.87,259.92L180.13,238.93L183.35,232.57L178.29,231.3L141.5,292.37L135.06,303.82L135.98,307.63L160.82,322.26L160.36,333.71L162.2,339.44L172.31,336.89L167.71,350.25L172.77,357.89L180.13,372.52L185.65,376.33L193.01,375.7L192.55,387.15L185.65,395.42L207.27,397.96L244.07,403.05L245.45,393.51L252.81,375.06L242.69,341.35L241.77,332.44L245.91,328.63L260.63,329.9L265.23,327.35L267.07,317.18Z"/>
  <path fill="#147D64" fill-opacity="0.85" stroke="#0C6B58" stroke-width="1" stroke-linejoin="round" stroke-linecap="round" d="M0,253.62L1.67,254.2L2.13,264.38L30.18,273.28L44.44,252.29L118.96,149.24L113.44,144.15L107,154.96L101.48,159.42L86.3,163.87L82.16,168.96L84,174.68L78.94,176.59L76.64,170.23L69.74,173.41L61.46,170.87L56.4,174.05L45.82,170.87L49.5,165.78L33.86,157.51L35.7,153.69L19.6,142.88L15,137.79L13.16,130.15L6.26,130.79L0,120.33Z"/>
  <path fill="#147D64" fill-opacity="0.85" stroke="#0C6B58" stroke-width="1" stroke-linejoin="round" stroke-linecap="round" d="M116.2,160.69L100.56,183.59L49.5,254.84L123.1,296.18L127.7,293L130.92,300.64L172.77,231.3L164.49,224.94L161.74,220.48L153.92,223.03L148.86,228.12L143.34,221.76L148.86,216.03L146.1,209.67L136.44,212.85L134.6,205.22L135.06,196.95L126.78,200.13L124.94,192.5L139.66,188.04L137.36,182.95L130.92,185.5L130.92,179.77L125.4,171.5L123.1,165.14L116.2,160.69Z"/>
  <path fill="#147D64" fill-opacity="0.85" stroke="#0C6B58" stroke-width="1" stroke-linejoin="round" stroke-linecap="round" d="M185.65,395.42L175.07,399.87L172.77,403.69L145.18,412.59L115.28,420.22L107,424.68L92.28,437.4L81.7,444.4L66.06,449.48L63.76,453.94L65.6,475.56L64.68,498.46L63.3,511.18L58.7,530.27L55.02,535.36L53.18,544.26L50.88,565.89L54.56,590.06L72.5,581.79L97.8,557.62L139.66,552.53L173.23,562.71L193.93,588.15L200.37,602.78L204.05,614.23L197.61,641.58L196.23,658.12L180.18,699.98L243.86,699.98L254.19,665.11L253.27,632.67L239.47,590.06L222.91,549.98L221.53,549.35L208.19,518.18L202.67,482.56L205.43,451.39L212.79,419.59L207.27,397.96L185.65,395.42Z"/>
  <path fill="#147D64" fill-opacity="0.85" stroke="#0C6B58" stroke-width="1" stroke-linejoin="round" stroke-linecap="round" d="M638.26,541.72L623.09,542.99L602.39,552.53L600.55,549.98L585.37,547.44L582.61,552.53L572.03,549.35L559.15,559.53L554.55,571.61L555.93,577.97L565.13,581.15L567.43,584.33L565.59,590.69L567.89,593.87L583.99,605.32L588.59,614.23L590.43,626.31L583.99,644.12L578.47,654.3L578.47,667.02L574.79,678.47L570.65,682.92L566.05,695.01L564.54,699.98L667.05,699.98L668.62,693.73L675.52,684.19L681.96,653.66L683.34,640.31L675.52,635.85L656.2,639.03L649.76,633.31L649.3,621.22L652.52,611.68L654.82,590.69L658.96,584.97L659.42,569.07L652.06,556.35L642.4,544.26L638.26,541.72Z"/>

  <!-- ravine / landscape -->
  <path fill="#147D64" fill-opacity="0.95" stroke="#0C6B58" stroke-width="1.5" stroke-linejoin="round" stroke-linecap="round" d="M800,-100.02L286.01,-100.02L284.55,-97.59L282.71,-95.05L280.41,-90.59L276.27,-86.78L272.13,-79.78L269.83,-77.87L265.23,-77.87L262.47,-75.96L256.49,-77.23L254.19,-76.6L251.43,-75.33L249.13,-70.87L244.53,-68.96L241.31,-67.06L237.17,-69.6L233.49,-72.78L231.19,-74.05L221.99,-80.42L217.85,-82.96L216.47,-84.23L199.45,-95.68L194.39,-99.5L106.45,-100.02L107.46,-96.32L112.98,-88.05L118.5,-81.69L130.46,-65.78L142.88,-51.15L146.56,-46.7L151.16,-41.61L155.3,-34.61L158.52,-26.34L161.74,-15.53L167.71,-2.8L171.39,3.56L174.15,6.74L176.91,8.65L180.13,12.47L183.35,14.37L179.67,22.01L178.29,28.37L177.83,31.55L167.71,43.64L163.11,47.45L155.3,54.45L152.54,56.36L149.78,59.54L146.56,62.72L140.58,68.45L137.36,72.9L131.38,76.72L127.24,77.99L124.02,79.9L122.18,83.08L121.26,88.8L122.18,97.07L119.88,105.98L118.5,111.07L116.66,114.89L113.44,118.07L111.6,121.25L109.76,123.16L107.92,125.7L106.08,126.97L104.24,129.52L102.86,135.24L102.86,138.42L100.1,142.88L96.42,144.15L88.14,146.69L75.72,149.24L63.3,151.78L55.48,150.51L47.66,140.97L39.84,135.24L31.1,129.52L23.74,124.43L15,116.79L9.02,108.52L0,91.5L0,255.71L1.67,255.47L4.42,254.84L7.64,254.84L8.56,256.74L3.05,258.02L0.29,261.2L0,320.75L3.05,316.54L4.42,315.27L9.02,308.91L18.68,296.18L21.44,292.37L32.48,275.83L35.24,272.65L46.28,258.65L50.42,264.38L53.64,265.65L56.4,268.19L62.84,272.65L65.14,275.19L69.28,277.74L72.96,279.01L75.72,279.01L78.02,280.28L81.7,284.1L85.84,287.28L93.2,292.37L98.26,293L104.24,295.55L109.3,299.36L112.52,300L117.12,300L121.26,300.64L124.94,300.64L127.24,299.36L130.92,305.73L133.22,315.27L136.9,320.36L139.66,322.9L141.04,325.44L143.8,327.35L145.18,335.62L146.1,339.44L147.94,341.35L150.7,343.26L152.54,345.16L154.38,345.8L156.68,348.98L158.52,350.25L162.2,350.89L160.82,354.71L160.82,357.25L162.65,361.7L161.74,364.88L162.2,368.06L163.57,369.97L166.33,372.52L169.55,373.15L174.61,371.88L177.83,376.33L180.13,377.61L177.37,378.88L170.93,379.51L168.63,380.15L165.87,382.06L163.57,385.24L162.65,387.78L163.57,392.87L165.87,397.32L168.17,399.87L169.55,404.96L171.85,409.41L173.69,410.68L177.37,411.95L175.99,413.86L173.23,418.95L167.71,420.22L164.49,422.13L161.74,422.77L158.52,423.4L156.22,424.04L149.78,425.31L146.1,422.13L143.8,418.32L141.5,416.41L133.68,413.86L126.78,415.13L118.5,418.32L112.98,418.95L103.32,422.13L97.8,425.31L94.58,429.77L93.2,431.04L89.98,435.49L81.24,438.03L72.96,440.58L69.28,443.12L67.44,446.3L66.52,450.76L65.6,452.66L61.46,455.84L60.08,457.75L59.62,460.93L60.08,474.93L60.08,481.92L60.54,497.83L61,501.01L62.38,505.46L65.14,509.28L66.52,511.82L65.6,514.36L66.06,519.45L59.16,523.27L56.4,527.09L55.48,531.54L55.94,536.63L57.78,539.17L61.46,541.72L66.52,542.99L73.42,542.35L76.18,547.44L79.4,550.62L79.4,553.17L78.48,562.07L80.32,570.34L79.4,579.88L80.32,583.06L84.46,586.88L88.6,588.15L93.2,587.51L96.88,586.24L99.64,583.7L101.94,579.88L103.32,576.06L107.92,576.06L111.6,574.79L116.2,572.25L118.5,569.07L118.96,567.16L121.26,565.25L126.78,567.16L135.52,569.07L139.66,568.43L145.64,570.98L147.02,573.52L150.24,576.06L150.7,577.97L154.38,584.33L155.3,587.51L157.6,591.97L160.36,593.87L164.95,593.87L169.09,598.33L171.85,602.14L175.53,605.96L178.29,607.87L188.41,610.41L194.39,612.96L197.61,616.77L196.69,619.95L195.77,628.22L193.47,632.67L189.33,640.31L188.41,642.85L187.03,644.76L187.03,647.3L187.03,653.03L182.89,654.94L180.59,658.75L179.67,667.66L179.67,673.38L179.67,682.29L176.91,684.19L170.93,691.19L166.33,698.19L165.82,699.98L680.6,699.98L683.34,684.83L686.56,667.66L689.78,664.48L691.62,660.66L698.06,659.39L703.58,657.48L705.42,656.21L706.8,654.3L707.26,651.75L706.8,648.57L708.18,646.67L708.64,641.58L708.18,639.67L706.8,637.76L704.96,636.49L702.66,635.85L699.9,633.31L695.76,626.95L695.3,623.13L697.14,617.41L699.9,606.59L702.2,596.42L706.8,578.61L709.1,571.61L716,557.62L716.46,555.07L716.46,546.8L715.54,542.99L714.16,541.08L711.86,539.17L706.8,537.26L701.28,532.81L693.92,525.18L690.24,520.73L686.56,515.64L681.04,505.46L674.14,494.01L671.38,492.1L669.08,492.1L667.7,488.92L665.4,485.74L663.1,483.83L669.08,478.74L670.92,475.56L671.84,471.75L671.38,465.39L668.16,461.57L668.62,459.66L668.16,453.3L667.7,449.48L665.86,443.12L664.02,439.31L659.88,437.4L655.74,436.76L655.28,431.04L658.04,429.13L660.8,425.95L664.02,426.58L668.16,425.95L671.84,423.4L673.22,421.5L675.98,416.41L676.9,410.05L680.12,403.05L681.96,400.5L684.72,394.78L686.1,392.24L692.54,387.78L697.6,385.24L698.98,385.87L708.18,385.87L713.7,383.97L718.3,381.42L722.44,378.24L726.12,375.7L733.94,372.52L738.54,369.97L739.46,368.06L744.06,356.61L745.44,350.25L746.36,343.89L746.82,336.89L746.36,334.99L743.14,329.26L740.84,327.35L734.86,324.17L729.8,322.26L727.04,320.99L726.58,317.81L725.66,310.81L721.98,299.36L720.14,293.64L718.76,291.73L716.92,290.46L711.4,287.91L707.26,288.55L701.28,292.37L690.7,300L681.5,308.27L672.76,317.18L669.08,324.17L665.86,318.45L663.1,315.9L658.96,314.63L653.44,315.9L650.22,319.08L647.46,319.72L645.62,320.99L643.78,324.81L641.94,326.72L641.48,330.53L638.26,333.08L634.13,335.62L632.75,337.53L626.77,340.07L623.09,342.62L621.25,347.07L618.49,347.71L611.13,350.89L607.91,351.52L604.23,353.43L601.47,352.8L595.95,353.43L592.27,355.98L590.89,354.07L592.27,346.44L597.79,342.62L602.39,341.35L614.81,333.08L634.13,319.08L640.56,313.36L646.54,308.91L652.06,303.82L655.28,300.64L663.56,293.64L671.84,286.01L675.52,278.37L675.98,275.19L677.36,261.2L677.82,259.29L680.12,256.74L681.96,253.56L685.18,245.93L687.02,237.02L687.94,234.48L690.24,231.94L692.08,228.75L692.54,223.03L693.92,220.48L694.84,216.03L694.38,213.49L694.84,209.67L694.84,194.4L695.3,188.04L694.84,182.95L693.46,176.59L691.62,162.6L691.16,158.14L691.62,153.05L693.46,146.06L695.76,140.97L696.68,139.06L705.42,128.25L710.02,121.25L713.24,117.43L716.92,114.89L721.98,112.98L733.94,109.16L740.38,106.62L746.36,103.44L756.94,97.07L761.54,95.17L766.14,93.89L773.04,92.62L778.56,90.71L785.92,86.9L794.2,79.26L798.33,76.08L800,75.03L800,-64.77L775.8,-35.88L760.16,-18.07L754.64,-11.07L746.36,-1.53L721.06,28.37L712.78,38.55L700.36,52.54L675.98,81.17L661.72,98.35L657.12,103.44L648.38,114.25L643.32,121.25L634.59,132.7L626.77,144.78L618.49,157.51L613.89,164.51L606.53,177.23L602.85,184.23L596.41,195.68L588.59,210.31L581.23,226.21L572.49,246.57L566.05,262.47L558.69,282.82L552.25,303.82L545.81,326.72L543.05,339.44L536.61,371.24L535.69,376.97L532.93,403.05L531.09,417.68L530.63,424.68L525.11,418.95L527.41,396.69L530.63,374.42L534.77,350.25L538.45,332.44L540.29,325.44L542.59,317.81L544.89,307.63L551.33,286.64L553.63,279.01L559.15,263.74L561.45,258.02L571.11,234.48L578.47,218.58L585.83,202.67L593.19,188.68L602.85,171.5L613.43,154.33L617.11,148.6L626.31,135.24L638.26,118.7L646.54,107.89L657.12,94.53L665.86,83.72L689.78,55.72L704.5,38.55L721.52,18.19L735.78,1.01L739,-2.17L754.64,-20.62L789.14,-61.33L800,-73.77Z"/>

  <!-- minor streets -->
  <path fill="none" stroke="#D3CEC4" stroke-width="2" stroke-linejoin="round" stroke-linecap="round" d="M-20.41,384.6L-35.13,411.95L-34.21,421.5L-25.93,432.95L-21.33,445.03L-20.87,469.84L38.92,453.3L57.32,448.21L59.62,467.29L60.08,494.65L58.24,515L53.18,529.63L46.74,534.72L-16.27,553.17L-38.35,475.56L-20.87,469.84"/>
  <path fill="none" stroke="#D3CEC4" stroke-width="2" stroke-linejoin="round" stroke-linecap="round" d="M2.13,326.08L38.92,453.3"/>
  <path fill="none" stroke="#D3CEC4" stroke-width="2" stroke-linejoin="round" stroke-linecap="round" d="M39.38,274.56L52.72,282.82L120.8,320.99L134.6,299.36L175.07,230.66L184.73,215.4L183.81,210.94L169.55,201.4L156.68,158.78L156.68,154.96L164.03,144.78L223.37,72.9L257.87,31.55L270.29,16.28L276.73,3.56L279.03,-2.17"/>
  <path fill="none" stroke="#D3CEC4" stroke-width="2" stroke-linejoin="round" stroke-linecap="round" d="M876.99,355.98L840.65,364.88L822.71,364.25L786.84,353.43"/>
  <path fill="none" stroke="#D3CEC4" stroke-width="2" stroke-linejoin="round" stroke-linecap="round" d="M773.5,399.23L837.89,416.41L824.09,464.11L759.7,446.94"/>
  <path fill="none" stroke="#D3CEC4" stroke-width="2" stroke-linejoin="round" stroke-linecap="round" d="M774.88,189.95L967.6,137.15"/>
  <path fill="none" stroke="#D3CEC4" stroke-width="2" stroke-linejoin="round" stroke-linecap="round" d="M726.58,564.61L736.24,565.89L756.02,562.71L785.92,571.61L797.87,570.34L806.61,567.79L819.95,619.95L767.52,633.95L782.24,689.92L796.95,745.25L811.21,798.68"/>
  <path fill="none" stroke="#D3CEC4" stroke-width="2" stroke-linejoin="round" stroke-linecap="round" d="M434.96,209.67L433.12,202.04L433.58,188.68L428.98,170.23L414.72,142.24L394.02,106.62L377,78.63L366.42,63.99L349.4,55.72L336.52,56.36L309.39,59.54L294.67,59.54L285.01,55.09L257.87,31.55"/>
  <path fill="none" stroke="#D3CEC4" stroke-width="2" stroke-linejoin="round" stroke-linecap="round" d="M703.58,174.05L701.74,160.05L706.34,153.69L754.18,140.33L759.7,139.06"/>
  <path fill="none" stroke="#D3CEC4" stroke-width="2" stroke-linejoin="round" stroke-linecap="round" d="M591.35,345.8L655.74,298.73L714.62,248.47L721.52,246.57L786.38,229.39"/>
  <path fill="none" stroke="#D3CEC4" stroke-width="2" stroke-linejoin="round" stroke-linecap="round" d="M738.08,373.15L734.86,376.33L690.24,404.32L681.96,412.59L678.28,424.04L674.6,451.39L675.98,470.47L681.5,488.29L687.94,501.01L698.06,506.73L739,517.54"/>
  <path fill="none" stroke="#D3CEC4" stroke-width="2" stroke-linejoin="round" stroke-linecap="round" d="M95.96,-17.43L71.58,-9.8L-57.67,27.1"/>
  <path fill="none" stroke="#D3CEC4" stroke-width="2" stroke-linejoin="round" stroke-linecap="round" d="M-96.77,-9.16L4.88,-39.06L-2.47,-64.51L-34.21,-55.6"/>
  <path fill="none" stroke="#D3CEC4" stroke-width="2" stroke-linejoin="round" stroke-linecap="round" d="M-76.53,-88.05L-38.35,-99.5L34.32,-121.13L38.92,-123.04L43.52,-126.86"/>
  <path fill="none" stroke="#D3CEC4" stroke-width="2" stroke-linejoin="round" stroke-linecap="round" d="M138.74,-196.2L151.16,-154.21L158.52,-147.85L170.01,-139.58L186.11,-119.86L196.69,-102.05L202.67,-97.59L227.97,-77.23L241.77,-75.33L258.79,-97.59L262.93,-114.77L202.67,-97.59"/>
  <path fill="none" stroke="#D3CEC4" stroke-width="2" stroke-linejoin="round" stroke-linecap="round" d="M400.46,392.87L406.9,390.96L420.7,381.42L424.38,352.16L427.6,343.26L435.88,336.89L453.36,337.53L460.26,348.98L468.54,362.97L488.31,398.6L498.43,415.77L517.75,433.58L553.63,463.48L565.59,471.75L577.09,474.93L599.17,475.56L612.05,478.74L620.33,485.74L640.1,509.91L674.6,559.53L683.34,581.15L684.26,598.96L682.42,618.04L684.26,629.49L694.38,644.12L708.18,647.94L713.7,647.94L767.52,633.95"/>
  <path fill="none" stroke="#D3CEC4" stroke-width="2" stroke-linejoin="round" stroke-linecap="round" d="M172.31,695.64L126.32,707.73L148.4,684.19L161.74,650.48L158.06,630.77L154.84,616.77L142.42,602.14L130,595.15L113.44,590.06L90.44,588.78L67.44,592.6L37.08,600.87L8.1,612.96L-7.07,612.32"/>
  <path fill="none" stroke="#D3CEC4" stroke-width="2" stroke-linejoin="round" stroke-linecap="round" d="M172.31,401.14L146.56,408.77L112.52,418.32L98.72,428.49L91.82,423.4L51.34,287.91L52.72,282.82"/>
  <path fill="none" stroke="#D3CEC4" stroke-width="2" stroke-linejoin="round" stroke-linecap="round" d="M104.7,-110.95L103.78,-99.5L118.04,-79.78L114.36,-70.24L59.62,-54.97L49.04,-93.14L45.36,-106.5L47.66,-116.68L49.5,-121.13"/>
  <path fill="none" stroke="#D3CEC4" stroke-width="2" stroke-linejoin="round" stroke-linecap="round" d="M707.26,179.14L710.02,186.13L709.56,205.85L721.52,246.57L740.38,312.09L744.98,317.81L744.06,328.63L741.76,348.98L746.36,349.62L744.06,328.63"/>
  <path fill="none" stroke="#D3CEC4" stroke-width="2" stroke-linejoin="round" stroke-linecap="round" d="M-26.39,681.01L-14.89,682.29L8.56,670.2L33.86,661.3L63.76,655.57L102.4,650.48L132.76,641.58L158.06,630.77"/>
  <path fill="none" stroke="#D3CEC4" stroke-width="2" stroke-linejoin="round" stroke-linecap="round" d="M57.32,448.21L87.68,438.03L98.72,428.49"/>
  <path fill="none" stroke="#D3CEC4" stroke-width="2" stroke-linejoin="round" stroke-linecap="round" d="M860.43,294.27L814.43,306.36L800.63,307L788.68,306.36L751.88,317.18L744.98,317.81"/>
  <path fill="none" stroke="#D3CEC4" stroke-width="2" stroke-linejoin="round" stroke-linecap="round" d="M797.87,570.34L797.41,562.71L809.83,518.82L815.81,490.83L824.09,464.11"/>
  <path fill="none" stroke="#D3CEC4" stroke-width="2" stroke-linejoin="round" stroke-linecap="round" d="M377,78.63L400,64.63L406.9,65.27L426.22,76.72L447.84,99.62L458.42,118.07L463.94,134.61L464.86,156.24L459.8,160.69L428.98,170.23"/>
  <path fill="none" stroke="#D3CEC4" stroke-width="2" stroke-linejoin="round" stroke-linecap="round" d="M15.46,-42.24L4.88,-80.42L-5.69,-78.51L-2.47,-64.51"/>
  <path fill="none" stroke="#D3CEC4" stroke-width="2" stroke-linejoin="round" stroke-linecap="round" d="M97.34,84.99L62.38,95.17L45.36,105.34L33.86,117.43L23.28,108.52L16.38,94.53L5.8,58.91L-19.03,65.9L-35.13,65.27L-54.45,49.36"/>
  <path fill="none" stroke="#D3CEC4" stroke-width="2" stroke-linejoin="round" stroke-linecap="round" d="M33.86,117.43L48.12,130.15L63.3,139.7L75.72,141.6L89.52,139.06L105.16,132.06L109.3,126.34L108.38,118.7L97.34,84.99L84.46,36L113.44,29.64L146.56,26.46L157.6,30.91L160.36,25.19L155.3,18.19L146.56,26.46"/>
  <path fill="none" stroke="#D3CEC4" stroke-width="2" stroke-linejoin="round" stroke-linecap="round" d="M5.8,58.91L84.46,36L71.58,-9.8L59.62,-54.97L15.46,-42.24L4.88,-39.06"/>
  <path fill="none" stroke="#D3CEC4" stroke-width="2" stroke-linejoin="round" stroke-linecap="round" d="M188.87,214.12L187.95,210.31L183.81,210.94"/>
  <path fill="none" stroke="#D3CEC4" stroke-width="2" stroke-linejoin="round" stroke-linecap="round" d="M184.73,215.4L188.87,214.12L226.59,233.84L239.93,235.75L294.21,220.48L299.73,216.03L301.11,206.49L279.49,122.52L267.53,110.43L189.33,207.13L187.95,210.31"/>
  <path fill="none" stroke="#D3CEC4" stroke-width="2" stroke-linejoin="round" stroke-linecap="round" d="M488.31,398.6L481.87,377.61L473.14,359.79L465.32,346.44L453.36,337.53"/>
  <path fill="none" stroke="#D3CEC4" stroke-width="2" stroke-linejoin="round" stroke-linecap="round" d="M120.8,320.99L122.18,321.63L145.18,397.32L146.56,408.77"/>
  <path fill="none" stroke="#D3CEC4" stroke-width="2" stroke-linejoin="round" stroke-linecap="round" d="M267.53,110.43L223.37,72.9"/>

  <!-- major streets -->
  <path fill="none" stroke="#B8B2A7" stroke-width="3.5" stroke-linejoin="round" stroke-linecap="round" d="M493.37,637.13L481.41,655.57L467.62,682.29L454.28,696.28L418.4,719.81L411.04,724.26"/>
  <path fill="none" stroke="#B8B2A7" stroke-width="3.5" stroke-linejoin="round" stroke-linecap="round" d="M866.41,-140.85L842.95,-114.13L675.06,83.72L642.86,123.16L613.43,167.05L587.67,213.49L563.75,270.1L554.09,301.27L539.83,361.07L534.31,399.87L531.55,434.22L531.09,455.84L531.55,473.66L529.25,521.36L526.03,545.53L517.75,583.06L480.49,697.55L475.44,712.82L472.68,721.08L471.76,724.26L469.46,731.26L459.8,772.6"/>
  <path fill="none" stroke="#B8B2A7" stroke-width="3.5" stroke-linejoin="round" stroke-linecap="round" d="M860.43,-145.94L656.2,93.26L615.73,147.97L593.19,186.13L578.01,215.4L562.83,251.66L544.43,306.36L530.17,371.24L526.03,398.6L523.73,428.49L522.81,448.85L523.27,467.93L520.51,521.36L517.29,549.35L511.77,576.7L493.37,637.13L468.08,710.27L465.32,718.54L464.4,721.72L462.1,728.72L451.98,778.96"/>
  <path fill="none" stroke="#B8B2A7" stroke-width="3.5" stroke-linejoin="round" stroke-linecap="round" d="M243.61,763.7L257.41,748.43L296.05,711.54L321.8,691.19L337.9,679.74L401.84,640.94L426.68,616.77L435.42,602.78L444.62,583.7L451.52,555.71L449.22,516.27L433.12,467.93L413.8,420.22L407.36,411.95L404.14,402.41L400.46,392.87L394.48,369.34L393.56,347.71L397.24,320.36L409.2,288.55L423,267.56L463.48,219.85L476.36,189.95L481.41,160.69L479.12,130.79L473.14,109.8L463.48,90.08L450.6,72.26L435.42,57L415.18,43.64L391.26,33.46L330.08,17.55L311.69,13.74L276.73,3.56L250.05,-11.71L234.87,-23.16L128.62,-116.68L112.06,-124.31L89.98,-124.31L64.22,-116.04L42.6,-119.22L36.62,-127.49L26.96,-161.21L25.12,-167.57"/>
  <path fill="none" stroke="#B8B2A7" stroke-width="3.5" stroke-linejoin="round" stroke-linecap="round" d="M413.8,420.22L414.26,411.95L406.9,390.96L399.54,361.07L399.54,336.26L406.9,305.73L413.8,290.46L427.6,270.1L462.1,230.66L473.14,212.22L484.63,176.59L486.47,149.87L484.17,130.79L478.2,108.52L459.8,75.45L444.16,58.27L422.54,42.37L405.52,33.46L371.02,23.28L330.08,13.1L311.69,8.65L285.93,0.38L279.03,-2.17L253.27,-18.07L234.87,-30.79L138.74,-114.77L119.88,-126.86L106.54,-130.04L89.52,-128.77L58.24,-119.86L41.68,-130.04L33.4,-162.48L31.56,-169.48"/>
  <path fill="none" stroke="#B8B2A7" stroke-width="3.5" stroke-linejoin="round" stroke-linecap="round" d="M759.7,132.06L759.7,139.06L803.85,288.55L800.63,307L786.84,353.43L773.5,399.23L739,517.54L720.6,587.51L708.18,647.94L684.72,773.24"/>
  <path fill="none" stroke="#B8B2A7" stroke-width="3.5" stroke-linejoin="round" stroke-linecap="round" d="M390.34,759.25L400.46,740.8L418.86,724.26L431.74,718.54L450.6,717.9L457.96,719.81L464.4,721.72L471.76,724.26L485.09,728.72L508.55,736.35L532.47,736.35L547.19,728.08L558.69,708.36L559.15,692.46L547.65,670.2L527.87,648.57L518.67,630.13L516.83,611.68L524.19,573.52L526.03,545.53"/>
  <path fill="none" stroke="#B8B2A7" stroke-width="3.5" stroke-linejoin="round" stroke-linecap="round" d="M480.49,697.55L498.89,670.2L512.69,663.84L537.07,666.38L553.63,684.19L556.39,696.28L551.33,717.9L534.77,731.9L515.91,734.44L485.55,725.54L472.68,721.08L465.32,718.54L458.88,716.63L435.42,714.72L418.4,719.81"/>

  <!-- buried streams (culverted / underground) -->
  <path fill="none" stroke="#3994C1" stroke-width="1" stroke-linejoin="round" stroke-linecap="round" stroke-dasharray="5,4" d="M587.21,89.44L581.69,86.26"/>
  <path fill="none" stroke="#3994C1" stroke-width="1" stroke-linejoin="round" stroke-linecap="round" stroke-dasharray="5,4" d="M646.08,20.74L636.43,19.46"/>
  <path fill="none" stroke="#3994C1" stroke-width="1" stroke-linejoin="round" stroke-linecap="round" stroke-dasharray="5,4" d="M287.77,396.05L284.55,396.05"/>
  <path fill="none" stroke="#3994C1" stroke-width="1" stroke-linejoin="round" stroke-linecap="round" stroke-dasharray="5,4" d="M296.05,394.78L292.83,396.05"/>
  <path fill="none" stroke="#3994C1" stroke-width="1" stroke-linejoin="round" stroke-linecap="round" stroke-dasharray="5,4" d="M404.14,273.92L433.12,289.82"/>
  <path fill="none" stroke="#3994C1" stroke-width="1" stroke-linejoin="round" stroke-linecap="round" stroke-dasharray="5,4" d="M277.19,383.33L275.81,385.87"/>
  <path fill="none" stroke="#3994C1" stroke-width="1" stroke-linejoin="round" stroke-linecap="round" stroke-dasharray="5,4" d="M302.49,697.55L307.09,714.09"/>
  <path fill="none" stroke="#3994C1" stroke-width="1" stroke-linejoin="round" stroke-linecap="round" stroke-dasharray="5,4" d="M40.76,221.76L164.03,267.56"/>
  <path fill="none" stroke="#3994C1" stroke-width="1" stroke-linejoin="round" stroke-linecap="round" stroke-dasharray="5,4" d="M212.33,561.43L227.05,570.34"/>
  <path fill="none" stroke="#3994C1" stroke-width="1" stroke-linejoin="round" stroke-linecap="round" stroke-dasharray="5,4" d="M225.21,424.68L197.61,485.74"/>
  <path fill="none" stroke="#3994C1" stroke-width="1" stroke-linejoin="round" stroke-linecap="round" stroke-dasharray="5,4" d="M281.79,623.77L288.23,645.39"/>
  <path fill="none" stroke="#3994C1" stroke-width="1" stroke-linejoin="round" stroke-linecap="round" stroke-dasharray="5,4" d="M273.97,597.05L275.81,602.78"/>
  <path fill="none" stroke="#3994C1" stroke-width="1" stroke-linejoin="round" stroke-linecap="round" stroke-dasharray="5,4" d="M265.69,579.24L267.53,584.97"/>
  <path fill="none" stroke="#3994C1" stroke-width="1" stroke-linejoin="round" stroke-linecap="round" stroke-dasharray="5,4" d="M292.37,660.02L294.67,667.02"/>
  <path fill="none" stroke="#3994C1" stroke-width="1" stroke-linejoin="round" stroke-linecap="round" stroke-dasharray="5,4" d="M265.23,501.64L268.91,504.19"/>
  <path fill="none" stroke="#3994C1" stroke-width="1" stroke-linejoin="round" stroke-linecap="round" stroke-dasharray="5,4" d="M452.44,325.44L458.42,331.17"/>
  <path fill="none" stroke="#3994C1" stroke-width="1" stroke-linejoin="round" stroke-linecap="round" stroke-dasharray="5,4" d="M227.05,421.5L238.09,423.4"/>
  <path fill="none" stroke="#3994C1" stroke-width="1" stroke-linejoin="round" stroke-linecap="round" stroke-dasharray="5,4" d="M241.31,424.68L243.61,424.68"/>
  <path fill="none" stroke="#3994C1" stroke-width="1" stroke-linejoin="round" stroke-linecap="round" stroke-dasharray="5,4" d="M271.21,447.58L268.45,448.85"/>
  <path fill="none" stroke="#3994C1" stroke-width="1" stroke-linejoin="round" stroke-linecap="round" stroke-dasharray="5,4" d="M376.54,-80.42L373.78,-79.78"/>

  <!-- buried rivers (culverted / underground) -->
  <!-- buried rivers: none in view -->

  <!-- streams -->
  <path fill="none" stroke="#3994C1" stroke-width="1.25" stroke-linejoin="round" stroke-linecap="round" d="M549.03,561.43L575.71,570.34L597.33,593.24L604.69,612.96L601.01,644.76L592.27,666.38L574.33,683.56L565.59,716L539.37,740.8L512.69,743.35L487.39,736.99"/>
  <path fill="none" stroke="#3994C1" stroke-width="1.25" stroke-linejoin="round" stroke-linecap="round" d="M636.43,19.46L624.47,10.56"/>
  <path fill="none" stroke="#3994C1" stroke-width="1.25" stroke-linejoin="round" stroke-linecap="round" d="M606.99,108.52L587.21,89.44"/>
  <path fill="none" stroke="#3994C1" stroke-width="1.25" stroke-linejoin="round" stroke-linecap="round" d="M570.65,97.07L562.37,126.97"/>
  <path fill="none" stroke="#3994C1" stroke-width="1.25" stroke-linejoin="round" stroke-linecap="round" d="M581.69,86.26L578.93,84.99"/>
  <path fill="none" stroke="#3994C1" stroke-width="1.25" stroke-linejoin="round" stroke-linecap="round" d="M285.01,357.25L277.19,383.33"/>
  <path fill="none" stroke="#3994C1" stroke-width="1.25" stroke-linejoin="round" stroke-linecap="round" d="M164.03,267.56L182.43,279.01L203.13,301.27L222.91,337.53L230.27,358.52L232.11,396.05L225.21,420.86L227.05,421.5"/>
  <path fill="none" stroke="#3994C1" stroke-width="1.25" stroke-linejoin="round" stroke-linecap="round" d="M321.34,376.33L296.05,394.78"/>
  <path fill="none" stroke="#3994C1" stroke-width="1.25" stroke-linejoin="round" stroke-linecap="round" d="M284.55,396.05L278.57,396.05"/>
  <path fill="none" stroke="#3994C1" stroke-width="1.25" stroke-linejoin="round" stroke-linecap="round" d="M433.12,289.82L452.44,325.44"/>
  <path fill="none" stroke="#3994C1" stroke-width="1.25" stroke-linejoin="round" stroke-linecap="round" d="M340.66,100.89L369.64,152.42L369.18,177.23L385.28,216.67L378.38,244.66L384.82,259.92L404.14,273.92"/>
  <path fill="none" stroke="#3994C1" stroke-width="1.25" stroke-linejoin="round" stroke-linecap="round" d="M275.81,385.87L274.43,388.42"/>
  <path fill="none" stroke="#3994C1" stroke-width="1.25" stroke-linejoin="round" stroke-linecap="round" d="M292.83,396.05L287.77,396.05"/>
  <path fill="none" stroke="#3994C1" stroke-width="1.25" stroke-linejoin="round" stroke-linecap="round" d="M197.61,485.74L196.69,527.09L205.43,555.71L212.33,561.43"/>
  <path fill="none" stroke="#3994C1" stroke-width="1.25" stroke-linejoin="round" stroke-linecap="round" d="M267.53,584.97L273.97,597.05"/>
  <path fill="none" stroke="#3994C1" stroke-width="1.25" stroke-linejoin="round" stroke-linecap="round" d="M275.81,602.78L281.79,623.77"/>
  <path fill="none" stroke="#3994C1" stroke-width="1.25" stroke-linejoin="round" stroke-linecap="round" d="M288.23,645.39L292.37,660.02"/>
  <path fill="none" stroke="#3994C1" stroke-width="1.25" stroke-linejoin="round" stroke-linecap="round" d="M294.67,667.02L302.49,697.55"/>
  <path fill="none" stroke="#3994C1" stroke-width="1.25" stroke-linejoin="round" stroke-linecap="round" d="M458.42,331.17L477.74,346.44"/>
  <path fill="none" stroke="#3994C1" stroke-width="1.25" stroke-linejoin="round" stroke-linecap="round" d="M238.09,423.4L241.31,424.68"/>
  <path fill="none" stroke="#3994C1" stroke-width="1.25" stroke-linejoin="round" stroke-linecap="round" d="M275.35,444.4L271.21,447.58"/>
  <path fill="none" stroke="#3994C1" stroke-width="1.25" stroke-linejoin="round" stroke-linecap="round" d="M268.45,448.85L267.07,448.85"/>
  <path fill="none" stroke="#3994C1" stroke-width="1.25" stroke-linejoin="round" stroke-linecap="round" d="M243.61,424.68L260.17,420.22L275.35,444.4"/>
  <path fill="none" stroke="#3994C1" stroke-width="1.25" stroke-linejoin="round" stroke-linecap="round" d="M267.07,448.85L245.91,467.93L244.07,478.74L265.23,501.64"/>
  <path fill="none" stroke="#3994C1" stroke-width="1.25" stroke-linejoin="round" stroke-linecap="round" d="M268.91,504.19L273.51,541.08L265.69,579.24"/>
  <path fill="none" stroke="#3994C1" stroke-width="1.25" stroke-linejoin="round" stroke-linecap="round" d="M225.21,420.86L225.21,424.68"/>
  <path fill="none" stroke="#3994C1" stroke-width="1.25" stroke-linejoin="round" stroke-linecap="round" d="M179.67,536.63L205.43,555.71"/>
  <path fill="none" stroke="#3994C1" stroke-width="1.25" stroke-linejoin="round" stroke-linecap="round" d="M415.18,336.26L416.56,333.08"/>
  <path fill="none" stroke="#3994C1" stroke-width="1.25" stroke-linejoin="round" stroke-linecap="round" d="M373.78,-79.78L369.18,-79.78"/>
  <path fill="none" stroke="#3994C1" stroke-width="1.25" stroke-linejoin="round" stroke-linecap="round" d="M379.3,-80.42L376.54,-80.42"/>

  <!-- rivers -->
  <path fill="none" stroke="#3994C1" stroke-width="2" stroke-linejoin="round" stroke-linecap="round" d="M571.11,140.33L572.95,167.69L541.21,231.3L491.53,338.8L468.08,356.61"/>
  <path fill="none" stroke="#3994C1" stroke-width="2" stroke-linejoin="round" stroke-linecap="round" d="M468.08,356.61L449.22,380.15L451.06,417.04L484.17,503.55L491.99,539.81L491.07,579.88L484.63,599.6L443.7,649.85L422.54,684.83L398.62,703.28L353.08,723.63L331.46,743.35"/>
  <path fill="none" stroke="#3994C1" stroke-width="2" stroke-linejoin="round" stroke-linecap="round" d="M750.04,-185.39L747.74,-150.4L722.9,-96.32L702.66,-77.87L680.12,-70.87L665.86,-74.69L627.23,-93.14L580.77,-82.96L541.21,-56.24L523.27,-40.34L509.01,-19.34L481.87,1.65L484.17,32.82L512.69,86.26L562.37,126.97L571.11,140.33"/>

  <!-- outside-survey wash (paper fill beyond municipal boundary) -->
  <!-- outside mask: none in view -->

  <!-- toronto municipal boundary (solid hairline, consistent with island map) -->
  <!-- boundary: none in view -->

  <!-- threshold marker -->
  <circle cx="401.5" cy="302" r="16" fill="#00000026" filter="url(#mshad)"/>
  <circle cx="400" cy="300" r="16" fill="#DE3A11" stroke="#27241D" stroke-width="1.5"/>
  <circle cx="400" cy="300" r="5" fill="#FFFFFF"/>

  <!-- scale bar: 200m -->
  <g fill="none" stroke="#857F72" stroke-width="1.25" stroke-linecap="round">
    <line x1="20" y1="578" x2="134.29" y2="578"/>
    <line x1="20" y1="572" x2="20" y2="578"/>
    <line x1="134.29" y1="572" x2="134.29" y2="578"/>
  </g>
  <text x="77.14" y="569" fill="#857F72" font-size="10" text-anchor="middle">200m</text>

  <!-- north indicator (halo keeps it visible over street linework) -->
  <circle cx="768" cy="36" r="22" fill="#FAF6EC" fill-opacity="0.9" stroke="#857F72" stroke-opacity="0.3" stroke-width="1"/>
  <g fill="#857F72" stroke="#857F72" stroke-width="2">
    <line x1="768" y1="42" x2="768" y2="24" stroke-linecap="round"/>
    <polygon points="768,16 762.5,27 773.5,27" stroke-width="1" stroke-linejoin="round"/>
  </g>
  <text x="768" y="55" fill="#857F72" font-size="13" text-anchor="middle" font-weight="700">N</text>
</svg>